<?xml version="1.0" encoding="UTF-8"?>
<svg xmlns="http://www.w3.org/2000/svg" xmlns:xlink="http://www.w3.org/1999/xlink" viewBox="0 0 921.6 651.36">
  <defs>
    <style>
      .cls-1, .cls-2 {
        fill-rule: evenodd;
      }

      .cls-1, .cls-2, .cls-3, .cls-4 {
        fill: #e17c05;
      }

      .cls-2, .cls-3 {
        stroke: #fff;
        stroke-miterlimit: 10;
        stroke-width: .5px;
      }
    </style>
  </defs>
  <g id="Raster_Base">
    <image width="3840" height="2714" transform="scale(.24)" xlink:href="https://infographicsuo.github.io/AEW/svg/5_16_Piplines_Flatten_Raster-01.png"/>
  </g>
  <g id="ProtestData_For_All_Data">
    <g id="Pipeline_Project" data-name="Pipeline Project">
      <circle id="Pipeline_42" class="cls-4" cx="341.05" cy="356.63" r="4"/>
      <circle id="Pipeline_44" class="cls-4" cx="346.05" cy="335.95" r="4" transform="translate(-128.82 420.25) rotate(-54.22)"/>
      <path id="Pipeline_47" class="cls-1" d="m412.36,194.52c2.21,0,4,1.79,4,4s-1.79,4-4,4-4-1.79-4-4,1.79-4,4-4Z"/>
      <circle id="Pipeline_51" class="cls-4" cx="432.72" cy="180.78" r="4" transform="translate(100.1 511.38) rotate(-67.5)"/>
      <path id="Pipeline_52" class="cls-1" d="m335.21,275.82c2.21,0,4,1.79,4,4s-1.79,4-4,4-4-1.79-4-4,1.79-4,4-4Z"/>
      <path id="Pipeline_101" class="cls-1" d="m277.3,490.45c2.21,0,4,1.79,4,4s-1.79,4-4,4-4-1.79-4-4,1.79-4,4-4Z"/>
      <circle id="Pipeline_105" class="cls-4" cx="435.52" cy="171.59" r="4" transform="translate(110.32 508.3) rotate(-67.5)"/>
      <circle id="Pipeline_58" class="cls-3" cx="260.14" cy="82.12" r="4"/>
      <path id="Pipeline_57" class="cls-2" d="m260.14,74.62c2.21,0,4,1.79,4,4s-1.79,4-4,4-4-1.79-4-4,1.79-4,4-4Z"/>
      <circle id="Pipeline_56" class="cls-3" cx="260.14" cy="75.12" r="4" transform="translate(-8.95 105.27) rotate(-22.5)"/>
      <circle id="Pipeline_55" class="cls-3" cx="260.14" cy="71.62" r="4" transform="translate(69.64 262.71) rotate(-60.48)"/>
      <path id="Pipeline_54" class="cls-2" d="m260.14,64.12c2.21,0,4,1.79,4,4s-1.79,4-4,4-4-1.79-4-4,1.79-4,4-4Z"/>
      <circle id="Pipeline_53" class="cls-3" cx="260.14" cy="64.63" r="4"/>
      <path id="Pipeline_49" class="cls-2" d="m260.14,57.13c2.21,0,4,1.79,4,4s-1.79,4-4,4-4-1.79-4-4,1.79-4,4-4Z"/>
      <path id="Pipeline_48" class="cls-2" d="m260.14,53.63c2.21,0,4,1.79,4,4s-1.79,4-4,4-4-1.79-4-4,1.79-4,4-4Z"/>
    </g>
  </g>
</svg>