<?xml version="1.0" encoding="UTF-8"?>
<svg xmlns="http://www.w3.org/2000/svg" xmlns:xlink="http://www.w3.org/1999/xlink" viewBox="0 0 921.6 651.36">
  <defs>
    <style>
      .cls-1, .cls-2, .cls-3 {
        fill: #006F45;
        stroke: #fff;
        stroke-miterlimit: 10;
        stroke-width: 2px;
      }

      .cls-2, .cls-3 {
        stroke: #fff;
        stroke-miterlimit: 10;
        stroke-width: 2px;
      }

      .cls-3 {
        fill-rule: evenodd;
        stroke: #fff;
        stroke-miterlimit: 10;
        fill: #006F45;

        stroke-width: 2px;
      }
    </style>
  </defs>
  <g id="Raster_Base">
    <image width="922" height="652" transform="translate(1.95 -.32)" xlink:href="Civic.jpg"/>
  </g>
  <g id="ProtestData_For_All_Data">
    <g id="Civic">
        <path id="Civic-64" class="cls-1" d="m356.08,271.2c4.77,0,8.64,3.87,8.64,8.64s-3.87,8.64-8.64,8.64-8.64-3.87-8.64-8.64,3.87-8.64,8.64-8.64Z"/>
          <path id="Civic-72" class="cls-1" d="m356.08,261.92c4.77,0,8.64,3.87,8.64,8.64s-3.87,8.64-8.64,8.64-8.64-3.87-8.64-8.64,3.87-8.64,8.64-8.64Z"/>
          <path id="Civic-71" class="cls-1" d="m356.08,252.64c4.77,0,8.64,3.87,8.64,8.64s-3.87,8.64-8.64,8.64-8.64-3.87-8.64-8.64,3.87-8.64,8.64-8.64Z"/>
          <path id="Civic-68" class="cls-1" d="m356.08,243.36c4.77,0,8.64,3.87,8.64,8.64s-3.87,8.64-8.64,8.64-8.64-3.87-8.64-8.64,3.87-8.64,8.64-8.64Z"/>
          <path id="Civic-65" class="cls-1" d="m356.08,234.08c4.77,0,8.64,3.87,8.64,8.64s-3.87,8.64-8.64,8.64-8.64-3.87-8.64-8.64,3.87-8.64,8.64-8.64Z"/>
          <path id="Civic-73" class="cls-1" d="m356.08,224.8c4.77,0,8.64,3.87,8.64,8.64s-3.87,8.64-8.64,8.64-8.64-3.87-8.64-8.64,3.87-8.64,8.64-8.64Z"/>
          <circle id="Civic-43" class="cls-2" cx="466.95" cy="350.53" r="8.64"/>
          <path id="Civic-50" class="cls-1" d="m347.24,343.08c4.77,0,8.64,3.87,8.64,8.64s-3.87,8.64-8.64,8.64-8.64-3.87-8.64-8.64,3.87-8.64,8.64-8.64Z"/>
          <path id="Civic-60" class="cls-1" d="m334,349.95c4.77,0,8.64,3.87,8.64,8.64s-3.87,8.64-8.64,8.64-8.64-3.87-8.64-8.64,3.87-8.64,8.64-8.64Z"/>
          <circle id="Civic-69" class="cls-3" cx="368.88" cy="116.75" r="8.64" transform="translate(-16.6 150.05) rotate(-22.5)"/>
          <circle id="Civic-70" class="cls-2" cx="329.54" cy="308.78" r="8.64" transform="translate(-113.64 395.57) rotate(-54.22)"/>
          <path id="Civic-45" class="cls-1" d="m347.6,323.57c4.77,0,8.64,3.87,8.64,8.64s-3.87,8.64-8.64,8.64-8.64-3.87-8.64-8.64,3.87-8.64,8.64-8.64Z"/>
          <path id="Civic-97" class="cls-1" d="m309.19,264.1c4.77,0,8.64,3.87,8.64,8.64s-3.87,8.64-8.64,8.64-8.64-3.87-8.64-8.64,3.87-8.64,8.64-8.64Z"/>
          <path id="Civic-102" class="cls-1" d="m321.26,422.48c4.77,0,8.64,3.87,8.64,8.64s-3.87,8.64-8.64,8.64-8.64-3.87-8.64-8.64,3.87-8.64,8.64-8.64Z"/>
          <path id="Civic-103" class="cls-1" d="m315.54,453.08c4.77,0,8.64,3.87,8.64,8.64s-3.87,8.64-8.64,8.64-8.64-3.87-8.64-8.64,3.87-8.64,8.64-8.64Z"/>
          <circle id="Civic-104" class="cls-2" cx="407.9" cy="237.77" r="8.64" transform="translate(-23.49 429.65) rotate(-54.22)"/>
          <path id="Civic-74" class="cls-1" d="m356.08,215.52c4.77,0,8.64,3.87,8.64,8.64s-3.87,8.64-8.64,8.64-8.64-3.87-8.64-8.64,3.87-8.64,8.64-8.64Z"/>
          <path id="Civic-76" class="cls-1" d="m355.85,206.24c4.77,0,8.64,3.87,8.64,8.64s-3.87,8.64-8.64,8.64-8.64-3.87-8.64-8.64,3.87-8.64,8.64-8.64Z"/>
          <path id="Civic-77" class="cls-1" d="m355.85,196.96c4.77,0,8.64,3.87,8.64,8.64s-3.87,8.64-8.64,8.64-8.64-3.87-8.64-8.64,3.87-8.64,8.64-8.64Z"/>
          <path id="Civic-75" class="cls-1" d="m355.85,187.68c4.77,0,8.64,3.87,8.64,8.64s-3.87,8.64-8.64,8.64-8.64-3.87-8.64-8.64,3.87-8.64,8.64-8.64Z"/>
          <path id="Civic-87" class="cls-1" d="m356.08,178.4c4.77,0,8.64,3.87,8.64,8.64s-3.87,8.64-8.64,8.64-8.64-3.87-8.64-8.64,3.87-8.64,8.64-8.64Z"/>
          <path id="Civic-96" class="cls-1" d="m355.85,169.12c4.77,0,8.64,3.87,8.64,8.64s-3.87,8.64-8.64,8.64-8.64-3.87-8.64-8.64,3.87-8.64,8.64-8.64Z"/>
          <path id="Civic-99" class="cls-1" d="m355.85,159.84c4.77,0,8.64,3.87,8.64,8.64s-3.87,8.64-8.64,8.64-8.64-3.87-8.64-8.64,3.87-8.64,8.64-8.64Z"/>
          <path id="Civic-83" class="cls-1" d="m347.55,314.29c4.77-.03,8.66,3.82,8.69,8.59.03,4.77-3.82,8.66-8.59,8.69s-8.66-3.82-8.69-8.59,3.82-8.66,8.59-8.69Z"/>
    </g>
  </g>
</svg>