<?xml version="1.0" encoding="UTF-8"?>
<svg xmlns="http://www.w3.org/2000/svg" xmlns:xlink="http://www.w3.org/1999/xlink" viewBox="0 0 921.6 651.36">
  <defs>
    <style>
      .cls-1, .cls-2, .cls-3 {
        fill: #006F45;
      }

      .cls-2, .cls-3 {
        stroke: #fff;
        stroke-miterlimit: 10;
        stroke-width: 1.38px;
      }

      .cls-3 {
        fill-rule: evenodd;
      }
    </style>
  </defs>
  <g id="Raster_Base">
    <image width="922" height="652" transform="translate(1.95 -.32)" xlink:href="https://infographicsuo.github.io/AEW/Fossil_Fuel_Interactive_Maps/Civic/Pipelines_Aug18_v3.jpg"/>
  </g>
  <g id="ProtestData_For_All_Data">
    <g id="Civic">
      <path id="Civic-64" class="cls-1" d="m356.08,273.44c3.53,0,6.4,2.87,6.4,6.4s-2.87,6.4-6.4,6.4-6.4-2.87-6.4-6.4,2.87-6.4,6.4-6.4Z"/>
    <path id="Civic-72" class="cls-1" d="m356.08,265.53c3.53,0,6.4,2.87,6.4,6.4s-2.87,6.4-6.4,6.4-6.4-2.87-6.4-6.4,2.87-6.4,6.4-6.4Z"/>
    <path id="Civic-71" class="cls-1" d="m356.08,257.62c3.53,0,6.4,2.87,6.4,6.4s-2.87,6.4-6.4,6.4-6.4-2.87-6.4-6.4,2.87-6.4,6.4-6.4Z"/>
    <path id="Civic-68" class="cls-1" d="m356.08,249.72c3.53,0,6.4,2.87,6.4,6.4s-2.87,6.4-6.4,6.4-6.4-2.87-6.4-6.4,2.87-6.4,6.4-6.4Z"/>
    <path id="Civic-65" class="cls-1" d="m356.08,241.81c3.53,0,6.4,2.87,6.4,6.4s-2.87,6.4-6.4,6.4-6.4-2.87-6.4-6.4,2.87-6.4,6.4-6.4Z"/>
    <path id="Civic-73" class="cls-1" d="m356.08,233.9c3.53,0,6.4,2.87,6.4,6.4s-2.87,6.4-6.4,6.4-6.4-2.87-6.4-6.4,2.87-6.4,6.4-6.4Z"/>
    <circle id="Civic-43" class="cls-2" cx="466.95" cy="350.53" r="6.4"/>
    <path id="Civic-50" class="cls-1" d="m347.24,345.32c3.53,0,6.4,2.87,6.4,6.4s-2.87,6.4-6.4,6.4-6.4-2.87-6.4-6.4,2.87-6.4,6.4-6.4Z"/>
    <path id="Civic-60" class="cls-1" d="m334,352.19c3.53,0,6.4,2.87,6.4,6.4s-2.87,6.4-6.4,6.4-6.4-2.87-6.4-6.4,2.87-6.4,6.4-6.4Z"/>
    <circle id="Civic-69" class="cls-3" cx="368.88" cy="116.75" r="6.4" transform="translate(-16.6 150.05) rotate(-22.5)"/>
    <circle id="Civic-70" class="cls-2" cx="329.54" cy="308.78" r="6.4" transform="translate(-113.64 395.57) rotate(-54.22)"/>
    <path id="Civic-45" class="cls-1" d="m347.6,325.81c3.53,0,6.4,2.87,6.4,6.4s-2.87,6.4-6.4,6.4-6.4-2.87-6.4-6.4,2.87-6.4,6.4-6.4Z"/>
    <path id="Civic-97" class="cls-1" d="m309.19,266.34c3.53,0,6.4,2.87,6.4,6.4s-2.87,6.4-6.4,6.4-6.4-2.87-6.4-6.4,2.87-6.4,6.4-6.4Z"/>
    <path id="Civic-102" class="cls-1" d="m321.26,424.72c3.53,0,6.4,2.87,6.4,6.4s-2.87,6.4-6.4,6.4-6.4-2.87-6.4-6.4,2.87-6.4,6.4-6.4Z"/>
    <path id="Civic-103" class="cls-1" d="m315.54,455.32c3.53,0,6.4,2.87,6.4,6.4s-2.87,6.4-6.4,6.4-6.4-2.87-6.4-6.4,2.87-6.4,6.4-6.4Z"/>
    <circle id="Civic-104" class="cls-2" cx="407.9" cy="237.77" r="6.4" transform="translate(-23.49 429.65) rotate(-54.22)"/>
    <path id="Civic-74" class="cls-1" d="m356.08,225.99c3.53,0,6.4,2.87,6.4,6.4s-2.87,6.4-6.4,6.4-6.4-2.87-6.4-6.4,2.87-6.4,6.4-6.4Z"/>
    <path id="Civic-76" class="cls-1" d="m355.85,218.08c3.53,0,6.4,2.87,6.4,6.4s-2.87,6.4-6.4,6.4-6.4-2.87-6.4-6.4,2.87-6.4,6.4-6.4Z"/>
    <path id="Civic-77" class="cls-1" d="m355.85,210.17c3.53,0,6.4,2.87,6.4,6.4s-2.87,6.4-6.4,6.4-6.4-2.87-6.4-6.4,2.87-6.4,6.4-6.4Z"/>
    <path id="Civic-75" class="cls-1" d="m355.85,202.26c3.53,0,6.4,2.87,6.4,6.4s-2.87,6.4-6.4,6.4-6.4-2.87-6.4-6.4,2.87-6.4,6.4-6.4Z"/>
    <path id="Civic-87" class="cls-1" d="m356.08,194.35c3.53,0,6.4,2.87,6.4,6.4s-2.87,6.4-6.4,6.4-6.4-2.87-6.4-6.4,2.87-6.4,6.4-6.4Z"/>
    <path id="Civic-96" class="cls-1" d="m355.85,186.44c3.53,0,6.4,2.87,6.4,6.4s-2.87,6.4-6.4,6.4-6.4-2.87-6.4-6.4,2.87-6.4,6.4-6.4Z"/>
    <path id="Civic-99" class="cls-1" d="m355.85,178.53c3.53,0,6.4,2.87,6.4,6.4s-2.87,6.4-6.4,6.4-6.4-2.87-6.4-6.4,2.87-6.4,6.4-6.4Z"/>
    <path id="Civic-83" class="cls-1" d="m347.56,317.37c3.53-.02,6.42,2.83,6.44,6.36s-2.83,6.42-6.36,6.44-6.42-2.83-6.44-6.36,2.83-6.42,6.36-6.44Z"/>
    </g>
  </g>
</svg>