<?xml version="1.0" encoding="UTF-8"?>
<svg xmlns="http://www.w3.org/2000/svg" xmlns:xlink="http://www.w3.org/1999/xlink" viewBox="0 0 921.6 651.36">
  <defs>
    <style>
      .cls-1 {
        font-size: 12px;
      }

      .cls-1, .cls-2 {
        fill: #886939;
        font-family: FreightSansProSemibold-Regular, 'FreightSans Pro';
      }

      .cls-3 {
        fill-rule: evenodd;
      }

      .cls-3, .cls-4 {
        fill: #692e86;
        stroke: #fff;
        stroke-miterlimit: 10;
        stroke-width: 2px;
      }

      .cls-2 {
        font-size: 15px;
      }
    </style>
  </defs>
  <g id="Base_Map" data-name="Base Map">
    <image width="3840" height="2714" transform="translate(-270.68 -472.81) rotate(-2.55) scale(.46)" xlink:href="Hill_Shade_SmallerExtent-01.jpg"/>
  </g>
  <g id="Data_Points" data-name="Data Points">
    <g id="InterviewLocations">
      <path id="_ID_1_" data-name="&amp;lt;ID=1&amp;gt;" class="cls-3" d="m332.79,325.24c3.59-.16,6.64,2.62,6.8,6.22s-2.62,6.64-6.22,6.8-6.64-2.62-6.8-6.22c-.16-3.59,2.62-6.64,6.22-6.8Z"/>
      <path id="_ID_2_" data-name="&amp;lt;ID=2&amp;gt;" class="cls-3" d="m337.32,164.27c3.59-.16,6.64,2.62,6.8,6.22s-2.62,6.64-6.22,6.8-6.64-2.62-6.8-6.22,2.62-6.64,6.22-6.8Z"/>
      <path id="_ID_3_" data-name="&amp;lt;ID=3&amp;gt;" class="cls-3" d="m370.96,164.71c3.59-.16,6.64,2.62,6.8,6.22s-2.62,6.64-6.22,6.8-6.64-2.62-6.8-6.22,2.62-6.64,6.22-6.8Z"/>
      <path id="_ID_4_" data-name="&amp;lt;ID=4&amp;gt;" class="cls-3" d="m353.13,102.25c3.59-.16,6.64,2.62,6.8,6.22s-2.62,6.64-6.22,6.8-6.64-2.62-6.8-6.22c-.16-3.59,2.62-6.64,6.22-6.8Z"/>
      <path id="_ID_5_" data-name="&amp;lt;ID=5&amp;gt;" class="cls-3" d="m370.85,156.54c3.59-.16,6.64,2.62,6.8,6.22s-2.62,6.64-6.22,6.8c-3.59.16-6.64-2.62-6.8-6.22s2.62-6.64,6.22-6.8Z"/>
      <path id="_ID_6_" data-name="&amp;lt;ID=6&amp;gt;" class="cls-3" d="m370.85,148.36c3.59-.16,6.64,2.62,6.8,6.22s-2.62,6.64-6.22,6.8-6.64-2.62-6.8-6.22,2.62-6.64,6.22-6.8Z"/>
      <path id="_ID_7_" data-name="&amp;lt;ID=7&amp;gt;" class="cls-3" d="m239.66,391.77c3.59-.16,6.64,2.62,6.8,6.22s-2.62,6.64-6.22,6.8-6.64-2.62-6.8-6.22,2.62-6.64,6.22-6.8Z"/>
      <path id="_ID_8_" data-name="&amp;lt;ID=8&amp;gt;" class="cls-3" d="m306.5,500.81c3.59-.16,6.64,2.62,6.8,6.22s-2.62,6.64-6.22,6.8c-3.59.16-6.64-2.62-6.8-6.22s2.62-6.64,6.22-6.8Z"/>
      <path id="_ID_9_" data-name="&amp;lt;ID=9&amp;gt;" class="cls-3" d="m332.79,318.53c3.59-.16,6.64,2.62,6.8,6.22s-2.62,6.64-6.22,6.8c-3.59.16-6.64-2.62-6.8-6.22s2.62-6.64,6.22-6.8Z"/>
      <path id="_ID_10_" data-name="&amp;lt;ID=10&amp;gt;" class="cls-3" d="m340.54,227.8c3.59-.16,6.64,2.62,6.8,6.22s-2.62,6.64-6.22,6.8-6.64-2.62-6.8-6.22,2.62-6.64,6.22-6.8Z"/>
      <path id="_ID_11_" data-name="&amp;lt;ID=11&amp;gt;" class="cls-3" d="m332.79,311.83c3.59-.16,6.64,2.62,6.8,6.22s-2.62,6.64-6.22,6.8c-3.59.16-6.64-2.62-6.8-6.22s2.62-6.64,6.22-6.8Z"/>
      <path id="_ID_12_" data-name="&amp;lt;ID=12&amp;gt;" class="cls-3" d="m340.54,221.65c3.59-.16,6.64,2.62,6.8,6.22s-2.62,6.64-6.22,6.8c-3.59.16-6.64-2.62-6.8-6.22s2.62-6.64,6.22-6.8Z"/>
      <path id="_ID_14_" data-name="&amp;lt;ID=14&amp;gt;" class="cls-3" d="m340.54,215.51c3.59-.16,6.64,2.62,6.8,6.22s-2.62,6.64-6.22,6.8-6.64-2.62-6.8-6.22,2.62-6.64,6.22-6.8Z"/>
      <path id="_ID_15_" data-name="&amp;lt;ID=15&amp;gt;" class="cls-3" d="m308.96,415.82c3.59-.16,6.64,2.62,6.8,6.22s-2.62,6.64-6.22,6.8c-3.59.16-6.64-2.62-6.8-6.22-.16-3.59,2.62-6.64,6.22-6.8Z"/>
      <path id="_ID_16_" data-name="&amp;lt;ID=16&amp;gt;" class="cls-3" d="m332.79,305.12c3.59-.16,6.64,2.62,6.8,6.22s-2.62,6.64-6.22,6.8c-3.59.16-6.64-2.62-6.8-6.22-.16-3.59,2.62-6.64,6.22-6.8Z"/>
      <path id="_ID_17_" data-name="&amp;lt;ID=17&amp;gt;" class="cls-3" d="m332.79,298.42c3.59-.16,6.64,2.62,6.8,6.22s-2.62,6.64-6.22,6.8c-3.59.16-6.64-2.62-6.8-6.22-.16-3.59,2.62-6.64,6.22-6.8Z"/>
      <path id="_ID_18_" data-name="&amp;lt;ID=18&amp;gt;" class="cls-3" d="m370.85,140.19c3.59-.16,6.64,2.62,6.8,6.22s-2.62,6.64-6.22,6.8c-3.59.16-6.64-2.62-6.8-6.22s2.62-6.64,6.22-6.8Z"/>
      <path id="_ID_19_" data-name="&amp;lt;ID=19&amp;gt;" class="cls-3" d="m340.54,209.37c3.59-.16,6.64,2.62,6.8,6.22s-2.62,6.64-6.22,6.8-6.64-2.62-6.8-6.22,2.62-6.64,6.22-6.8Z"/>
      <path id="_ID_20_" data-name="&amp;lt;ID=20&amp;gt;" class="cls-3" d="m370.85,132.02c3.59-.16,6.64,2.62,6.8,6.22s-2.62,6.64-6.22,6.8-6.64-2.62-6.8-6.22,2.62-6.64,6.22-6.8Z"/>
      <path id="_ID_21_" data-name="&amp;lt;ID=21&amp;gt;" class="cls-3" d="m370.96,123.85c3.59-.16,6.64,2.62,6.8,6.22s-2.62,6.64-6.22,6.8-6.64-2.62-6.8-6.22,2.62-6.64,6.22-6.8Z"/>
      <path id="_ID_22_" data-name="&amp;lt;ID=22&amp;gt;" class="cls-3" d="m340.54,203.23c3.59-.16,6.64,2.62,6.8,6.22s-2.62,6.64-6.22,6.8c-3.59.16-6.64-2.62-6.8-6.22s2.62-6.64,6.22-6.8Z"/>
      <path id="_ID_23_" data-name="&amp;lt;ID=23&amp;gt;" class="cls-3" d="m342.68,514.52c3.59-.16,6.64,2.62,6.8,6.22s-2.62,6.64-6.22,6.8c-3.59.16-6.64-2.62-6.8-6.22s2.62-6.64,6.22-6.8Z"/>
      <path id="_ID_24_" data-name="&amp;lt;ID=24&amp;gt;" class="cls-3" d="m340.54,197.09c3.59-.16,6.64,2.62,6.8,6.22s-2.62,6.64-6.22,6.8c-3.59.16-6.64-2.62-6.8-6.22s2.62-6.64,6.22-6.8Z"/>
      <path id="_ID_25_" data-name="&amp;lt;ID=25&amp;gt;" class="cls-3" d="m340.54,190.95c3.59-.16,6.64,2.62,6.8,6.22s-2.62,6.64-6.22,6.8c-3.59.16-6.64-2.62-6.8-6.22s2.62-6.64,6.22-6.8Z"/>
      <path id="_ID_26_" data-name="&amp;lt;ID=26&amp;gt;" class="cls-3" d="m239.66,383.03c3.59-.16,6.64,2.62,6.8,6.22s-2.62,6.64-6.22,6.8-6.64-2.62-6.8-6.22,2.62-6.64,6.22-6.8Z"/>
      <circle id="_ID_27_" data-name="&amp;lt;ID=27&amp;gt;" class="cls-4" cx="306.79" cy="498.58" r="6.51"/>
      <path id="_ID_28_" data-name="&amp;lt;ID=28&amp;gt;" class="cls-3" d="m353.13,95.33c3.59-.16,6.64,2.62,6.8,6.22s-2.62,6.64-6.22,6.8-6.64-2.62-6.8-6.22,2.62-6.64,6.22-6.8Z"/>
      <path id="_ID_29_" data-name="&amp;lt;ID=29&amp;gt;" class="cls-3" d="m332.79,291.71c3.59-.16,6.64,2.62,6.8,6.22s-2.62,6.64-6.22,6.8c-3.59.16-6.64-2.62-6.8-6.22-.16-3.59,2.62-6.64,6.22-6.8Z"/>
      <path id="_ID_30_" data-name="&amp;lt;ID=30&amp;gt;" class="cls-3" d="m370.85,115.67c3.59-.16,6.64,2.62,6.8,6.22s-2.62,6.64-6.22,6.8-6.64-2.62-6.8-6.22,2.62-6.64,6.22-6.8Z"/>
      <path id="_ID_31_" data-name="&amp;lt;ID=31&amp;gt;" class="cls-3" d="m321.36,268.56c3.59-.16,6.64,2.62,6.8,6.22s-2.62,6.64-6.22,6.8-6.64-2.62-6.8-6.22,2.62-6.64,6.22-6.8Z"/>
      <path id="_ID_32_" data-name="&amp;lt;ID=32&amp;gt;" class="cls-3" d="m252.56,329.28c3.59-.16,6.64,2.62,6.8,6.22s-2.62,6.64-6.22,6.8c-3.59.16-6.64-2.62-6.8-6.22s2.62-6.64,6.22-6.8Z"/>
      <path id="_ID_33_" data-name="&amp;lt;ID=33&amp;gt;" class="cls-3" d="m332.79,285.01c3.59-.16,6.64,2.62,6.8,6.22s-2.62,6.64-6.22,6.8c-3.59.16-6.64-2.62-6.8-6.22-.16-3.59,2.62-6.64,6.22-6.8Z"/>
      <path id="_ID_34_" data-name="&amp;lt;ID=34&amp;gt;" class="cls-3" d="m361.91,288.42c3.59-.16,6.64,2.62,6.8,6.22s-2.62,6.64-6.22,6.8c-3.59.16-6.64-2.62-6.8-6.22s2.62-6.64,6.22-6.8Z"/>
      <path id="_ID_13_" data-name="&amp;lt;ID=13&amp;gt;" class="cls-3" d="m239.66,374.29c3.59-.16,6.64,2.62,6.8,6.22s-2.62,6.64-6.22,6.8-6.64-2.62-6.8-6.22,2.62-6.64,6.22-6.8Z"/>
      <path id="_ID_26_-2" data-name="&amp;lt;ID=26&amp;gt;" class="cls-3" d="m239.66,365.56c3.59-.16,6.64,2.62,6.8,6.22s-2.62,6.64-6.22,6.8-6.64-2.62-6.8-6.22,2.62-6.64,6.22-6.8Z"/>
    </g>
  </g>
  <g id="Labels">
    <g>
      <text class="cls-2" transform="translate(496.45 342.3)"><tspan x="0" y="0">OR</tspan></text>
      <text class="cls-1" transform="translate(388.53 607.02)"><tspan x="0" y="0">CA</tspan></text>
      <text class="cls-1" transform="translate(766.49 607.2)"><tspan x="0" y="0">NV</tspan></text>
      <text class="cls-1" transform="translate(872.89 294.93)"><tspan x="0" y="0">ID</tspan></text>
      <text class="cls-1" transform="translate(377.65 187.1)"><tspan x="0" y="0">Portland</tspan></text>
      <text class="cls-1" transform="translate(309.25 122.18)"><tspan x="0" y="0">Astoria</tspan></text>
      <text class="cls-1" transform="translate(278.29 182.3)"><tspan x="0" y="0">Tillamook</tspan></text>
      <text class="cls-1" transform="translate(342.97 345.29)"><tspan x="0" y="0">Eugene</tspan></text>
      <text class="cls-1" transform="translate(259.37 351.68)"><tspan x="0" y="0">Florence</tspan></text>
      <text class="cls-1" transform="translate(183.18 413.28)"><tspan x="0" y="0">Coos Bay</tspan></text>
      <text class="cls-1" transform="translate(315.77 434.02)"><tspan x="0" y="0">Roseburg</tspan></text>
      <text class="cls-1" transform="translate(353.42 536.47)"><tspan x="0" y="0">Ashland</tspan></text>
      <text class="cls-1" transform="translate(240.45 524.18)"><tspan x="0" y="0">Grants Pass</tspan></text>
      <text class="cls-1" transform="translate(353.42 244.68)"><tspan x="0" y="0">Salem</tspan></text>
    </g>
  </g>
</svg>