<?xml version="1.0" encoding="UTF-8"?>
<svg xmlns="http://www.w3.org/2000/svg" xmlns:xlink="http://www.w3.org/1999/xlink" viewBox="0 0 921.6 651.36">
  <defs>
    <style>
      .cls-1 {
        fill-rule: evenodd;
      }

      .cls-1, .cls-2 {
        fill: #692E86;
        stroke: #fff;
        stroke-miterlimit: 10;
        stroke-width: 2px;
      }
    </style>
  </defs>
  <g id="Raster_Base">
    <image width="922" height="652" transform="translate(-.2 -.32)" xlink:href="Corporate.jpg"/>
  </g>
  <g id="ProtestData_For_All_Data">
    <g id="Corporation">
     <circle id="Corporation-63" class="cls-2" cx="340.51" cy="229.08" r="8.64" transform="translate(-61.75 147.74) rotate(-22.5)"/>
      <circle id="Corporation-61" class="cls-2" cx="340.51" cy="219.8" r="8.64" transform="translate(-36.9 367.51) rotate(-54.22)"/>
      <path id="Corporation-59" class="cls-1" d="m340.51,201.88c4.77,0,8.64,3.87,8.64,8.64s-3.87,8.64-8.64,8.64-8.64-3.87-8.64-8.64,3.87-8.64,8.64-8.64Z"/>
      <circle id="Corporation-62" class="cls-2" cx="326.15" cy="134.37" r="8.64" transform="translate(26.44 320.39) rotate(-54.22)"/>
      <circle id="Corporation-88" class="cls-2" cx="340.51" cy="201.24" r="8.64" transform="translate(-51.09 145.62) rotate(-22.5)"/>
      <circle id="Corporation-86" class="cls-2" cx="340.51" cy="191.96" r="8.64"/>
      <path id="Corporation-84" class="cls-1" d="m318.81,342.89c4.77,0,8.64,3.87,8.64,8.64s-3.87,8.64-8.64,8.64-8.64-3.87-8.64-8.64,3.87-8.64,8.64-8.64Z"/>
      <path id="Corporation-81" class="cls-1" d="m318.81,333.61c4.77,0,8.64,3.87,8.64,8.64s-3.87,8.64-8.64,8.64-8.64-3.87-8.64-8.64,3.87-8.64,8.64-8.64Z"/>
      <path id="Corporation-89" class="cls-1" d="m295.38,152.16c4.77,0,8.64,3.87,8.64,8.64s-3.87,8.64-8.64,8.64-8.64-3.87-8.64-8.64,3.87-8.64,8.64-8.64Z"/>
      <circle id="Corporation-79" class="cls-2" cx="318.81" cy="332.97" r="8.64" transform="translate(-103.15 147.35) rotate(-22.5)"/>
      <circle id="Corporation-94" class="cls-2" cx="287.44" cy="135.95" r="8.64" transform="translate(9.08 289.65) rotate(-54.22)"/>
      <circle id="Corporation-46" class="cls-2" cx="326.15" cy="125.09" r="8.64" transform="translate(-23.04 134.33) rotate(-22.5)"/>
      <circle id="Corporation-66" class="cls-2" cx="326.15" cy="115.81" r="8.64" transform="translate(-19.49 133.63) rotate(-22.5)"/>
      <path id="Corporation-106" class="cls-1" d="m295.88,425.09c4.77,0,8.64,3.87,8.64,8.64s-3.87,8.64-8.64,8.64-8.64-3.87-8.64-8.64,3.87-8.64,8.64-8.64Z"/>
      <path id="Corporation-67" class="cls-1" d="m326.15,97.89c4.77,0,8.64,3.87,8.64,8.64s-3.87,8.64-8.64,8.64-8.64-3.87-8.64-8.64,3.87-8.64,8.64-8.64Z"/>
      <path id="Corporation-90" class="cls-1" d="m326.15,88.61c4.77,0,8.64,3.87,8.64,8.64s-3.87,8.64-8.64,8.64-8.64-3.87-8.64-8.64,3.87-8.64,8.64-8.64Z"/>
      <path id="Corporation-85" class="cls-1" d="m326.15,79.33c4.77,0,8.64,3.87,8.64,8.64s-3.87,8.64-8.64,8.64-8.64-3.87-8.64-8.64,3.87-8.64,8.64-8.64Z"/>
      <circle id="Corporation-82" class="cls-2" cx="326.15" cy="78.69" r="8.64" transform="translate(-5.29 130.8) rotate(-22.5)"/>
      <circle id="Corporation-80" class="cls-2" cx="326.15" cy="69.41" r="8.64" transform="translate(-1.73 130.1) rotate(-22.5)"/>
      <circle id="Corporation-78" class="cls-2" cx="326.15" cy="60.13" r="8.64" transform="translate(86.67 289.56) rotate(-54.22)"/>
      <circle id="Corporation-98" class="cls-2" cx="326.15" cy="50.85" r="8.64" transform="translate(94.2 285.7) rotate(-54.22)"/>
      <path id="Corporation-95" class="cls-1" d="m326.15,32.93c4.77,0,8.64,3.87,8.64,8.64s-3.87,8.64-8.64,8.64-8.64-3.87-8.64-8.64,3.87-8.64,8.64-8.64Z"/>
      <path id="Corporation-92" class="cls-1" d="m326.15,23.65c4.77,0,8.64,3.87,8.64,8.64s-3.87,8.64-8.64,8.64-8.64-3.87-8.64-8.64,3.87-8.64,8.64-8.64Z"/>
      <circle id="Corporation-100" class="cls-2" cx="340.51" cy="182.68" r="8.64" transform="translate(-43.99 144.21) rotate(-22.5)"/>
      <path id="Corporation-93" class="cls-1" d="m318.81,315.05c4.77,0,8.64,3.87,8.64,8.64s-3.87,8.64-8.64,8.64-8.64-3.87-8.64-8.64,3.87-8.64,8.64-8.64Z"/>
      <circle id="Corporation-91" class="cls-2" cx="326.15" cy="23.01" r="8.64" transform="translate(16.02 126.56) rotate(-22.5)"/>
    </g>
  </g>
</svg>