<?xml version="1.0" encoding="UTF-8"?>
<svg xmlns="http://www.w3.org/2000/svg" xmlns:xlink="http://www.w3.org/1999/xlink" viewBox="0 0 921.6 651.36">
  <defs>
    <style>
      .cls-1 {
        fill-rule: evenodd;
      }

      .cls-1, .cls-2 {
        fill: #692E86;
        stroke: #fff;
        stroke-miterlimit: 10;
        stroke-width: 2px;
      }
    </style>
  </defs>
  <g id="Raster_Base">
    <image width="922" height="652" transform="translate(-.2 -.32)" xlink:href="https://infographicsuo.github.io/AEW/Fossil_Fuel_Interactive_Maps/Corporation/Corp_Aug22.jpg"/>
  </g>
  <g id="ProtestData_For_All_Data">
    <g id="Corporation">
      <circle id="Corporation-63" class="cls-2" cx="340.51" cy="229.08" r="8.64" transform="translate(-61.75 147.74) rotate(-22.5)"/>
      <circle id="Corporation-61" class="cls-2" cx="340.51" cy="220.79" r="8.64" transform="translate(-37.7 367.92) rotate(-54.22)"/>
      <path id="Corporation-59" class="cls-1" d="m340.51,203.85c4.77,0,8.64,3.87,8.64,8.64s-3.87,8.64-8.64,8.64-8.64-3.87-8.64-8.64,3.87-8.64,8.64-8.64Z"/>
      <circle id="Corporation-62" class="cls-2" cx="326.15" cy="134.37" r="8.64" transform="translate(26.44 320.39) rotate(-54.22)"/>
      <circle id="Corporation-88" class="cls-2" cx="340.51" cy="204.2" r="8.64" transform="translate(-52.22 145.85) rotate(-22.5)"/>
      <circle id="Corporation-86" class="cls-2" cx="340.51" cy="195.91" r="8.64"/>
      <path id="Corporation-84" class="cls-1" d="m318.81,342.89c4.77,0,8.64,3.87,8.64,8.64s-3.87,8.64-8.64,8.64-8.64-3.87-8.64-8.64,3.87-8.64,8.64-8.64Z"/>
      <path id="Corporation-81" class="cls-1" d="m318.81,334.83c4.77,0,8.64,3.87,8.64,8.64s-3.87,8.64-8.64,8.64-8.64-3.87-8.64-8.64,3.87-8.64,8.64-8.64Z"/>
      <path id="Corporation-89" class="cls-1" d="m295.38,152.16c4.77,0,8.64,3.87,8.64,8.64s-3.87,8.64-8.64,8.64-8.64-3.87-8.64-8.64,3.87-8.64,8.64-8.64Z"/>
      <circle id="Corporation-79" class="cls-2" cx="318.81" cy="335.41" r="8.64" transform="translate(-104.09 147.54) rotate(-22.5)"/>
      <circle id="Corporation-94" class="cls-2" cx="287.44" cy="135.95" r="8.64" transform="translate(9.08 289.65) rotate(-54.22)"/>
      <circle id="Corporation-46" class="cls-2" cx="326.15" cy="127.46" r="8.64" transform="translate(-23.95 134.52) rotate(-22.5)"/>
      <circle id="Corporation-66" class="cls-2" cx="326.15" cy="120.56" r="8.64" transform="translate(-21.31 133.99) rotate(-22.5)"/>
      <path id="Corporation-106" class="cls-1" d="m295.88,425.09c4.77,0,8.64,3.87,8.64,8.64s-3.87,8.64-8.64,8.64-8.64-3.87-8.64-8.64,3.87-8.64,8.64-8.64Z"/>
      <path id="Corporation-67" class="cls-1" d="m326.15,105.02c4.77,0,8.64,3.87,8.64,8.64s-3.87,8.64-8.64,8.64-8.64-3.87-8.64-8.64,3.87-8.64,8.64-8.64Z"/>
      <path id="Corporation-90" class="cls-1" d="m326.15,98.11c4.77,0,8.64,3.87,8.64,8.64s-3.87,8.64-8.64,8.64-8.64-3.87-8.64-8.64,3.87-8.64,8.64-8.64Z"/>
      <path id="Corporation-85" class="cls-1" d="m326.15,91.21c4.77,0,8.64,3.87,8.64,8.64s-3.87,8.64-8.64,8.64-8.64-3.87-8.64-8.64,3.87-8.64,8.64-8.64Z"/>
      <circle id="Corporation-82" class="cls-2" cx="326.15" cy="92.95" r="8.64" transform="translate(-10.74 131.89) rotate(-22.5)"/>
      <circle id="Corporation-80" class="cls-2" cx="326.15" cy="86.05" r="8.64" transform="translate(-8.1 131.36) rotate(-22.5)"/>
      <circle id="Corporation-78" class="cls-2" cx="326.15" cy="79.14" r="8.64" transform="translate(71.24 297.45) rotate(-54.22)"/>
      <circle id="Corporation-98" class="cls-2" cx="326.15" cy="72.24" r="8.64" transform="translate(76.84 294.59) rotate(-54.22)"/>
      <path id="Corporation-95" class="cls-1" d="m326.15,56.7c4.77,0,8.64,3.87,8.64,8.64s-3.87,8.64-8.64,8.64-8.64-3.87-8.64-8.64,3.87-8.64,8.64-8.64Z"/>
      <path id="Corporation-92" class="cls-1" d="m326.15,49.79c4.77,0,8.64,3.87,8.64,8.64s-3.87,8.64-8.64,8.64-8.64-3.87-8.64-8.64,3.87-8.64,8.64-8.64Z"/>
      <circle id="Corporation-91" class="cls-2" cx="326.15" cy="51.53" r="8.64" transform="translate(5.11 128.74) rotate(-22.5)"/>
      <circle id="Corporation-100" class="cls-2" cx="340.51" cy="187.61" r="8.64" transform="translate(-45.88 144.59) rotate(-22.5)"/>
      <path id="Corporation-93" class="cls-1" d="m318.81,318.71c4.77,0,8.64,3.87,8.64,8.64s-3.87,8.64-8.64,8.64-8.64-3.87-8.64-8.64,3.87-8.64,8.64-8.64Z"/>
    </g>
  </g>
</svg>