<?xml version="1.0" encoding="UTF-8"?>
<svg xmlns="http://www.w3.org/2000/svg" xmlns:xlink="http://www.w3.org/1999/xlink" viewBox="0 0 921.6 651.36">
  <defs>
    <style>
      .cls-1 {
        fill-rule: evenodd;
      }

      .cls-1, .cls-2 {
        fill: #c38ac0;
        stroke: #fff;
        stroke-miterlimit: 10;
        stroke-width: 1.38px;
      }
    </style>
  </defs>
  <g id="Raster_Base">
    <image width="922" height="652" transform="translate(-.2 -.32)" xlink:href="20230718_Corporation_Basemap.png"/>
  </g>
  <g id="ProtestData_For_All_Data">
    <g id="Corporation">
      <circle id="Corporation-46" class="cls-2" cx="332.54" cy="139.64" r="4" transform="translate(-28.13 137.89) rotate(-22.5)"/>
      <circle id="Corporation-100" class="cls-2" cx="340.19" cy="232.53" r="4" transform="translate(-63.09 147.89) rotate(-22.5)"/>
      <circle id="Corporation-88" class="cls-2" cx="340.19" cy="227.36" r="4" transform="translate(-61.11 147.49) rotate(-22.5)"/>
      <circle id="Corporation-98" class="cls-2" cx="332.54" cy="134.77" r="4" transform="translate(28.77 325.74) rotate(-54.22)"/>
      <circle id="Corporation-86" class="cls-2" cx="340.19" cy="222.18" r="4"/>
      <path id="Corporation-95" class="cls-1" d="m332.54,125.89c2.21,0,4,1.79,4,4s-1.79,4-4,4-4-1.79-4-4,1.79-4,4-4Z"/>
      <path id="Corporation-92" class="cls-1" d="m332.54,121.02c2.21,0,4,1.79,4,4s-1.79,4-4,4-4-1.79-4-4,1.79-4,4-4Z"/>
      <circle id="Corporation-91" class="cls-2" cx="332.54" cy="120.14" r="4" transform="translate(-20.66 136.4) rotate(-22.5)"/>
      <path id="Corporation-93" class="cls-1" d="m320.16,345.7c2.21,0,4,1.79,4,4s-1.79,4-4,4-4-1.79-4-4,1.79-4,4-4Z"/>
      <path id="Corporation-90" class="cls-1" d="m332.54,111.27c2.21,0,4,1.79,4,4s-1.79,4-4,4-4-1.79-4-4,1.79-4,4-4Z"/>
      <path id="Corporation-84" class="cls-1" d="m320.16,340.27c2.21,0,4,1.79,4,4s-1.79,4-4,4-4-1.79-4-4,1.79-4,4-4Z"/>
      <path id="Corporation-85" class="cls-1" d="m332.54,106.39c2.21,0,4,1.79,4,4s-1.79,4-4,4-4-1.79-4-4,1.79-4,4-4Z"/>
      <path id="Corporation-81" class="cls-1" d="m320.16,334.84c2.21,0,4,1.79,4,4s-1.79,4-4,4-4-1.79-4-4,1.79-4,4-4Z"/>
      <circle id="Corporation-82" class="cls-2" cx="332.54" cy="105.51" r="4" transform="translate(-15.07 135.29) rotate(-22.5)"/>
      <circle id="Corporation-63" class="cls-2" cx="340.19" cy="217" r="4" transform="translate(-57.15 146.7) rotate(-22.5)"/>
      <circle id="Corporation-61" class="cls-2" cx="340.19" cy="211.83" r="4" transform="translate(-30.56 363.95) rotate(-54.22)"/>
      <path id="Corporation-89" class="cls-1" d="m295.38,156.8c2.21,0,4,1.79,4,4s-1.79,4-4,4-4-1.79-4-4,1.79-4,4-4Z"/>
      <circle id="Corporation-80" class="cls-2" cx="332.54" cy="100.64" r="4" transform="translate(-13.2 134.92) rotate(-22.5)"/>
      <circle id="Corporation-78" class="cls-2" cx="332.54" cy="95.76" r="4" transform="translate(60.41 309.54) rotate(-54.22)"/>
      <path id="Corporation-67" class="cls-1" d="m332.54,86.89c2.21,0,4,1.79,4,4s-1.79,4-4,4-4-1.79-4-4,1.79-4,4-4Z"/>
      <circle id="Corporation-79" class="cls-2" cx="320.16" cy="333.4" r="4" transform="translate(-103.22 147.9) rotate(-22.5)"/>
      <circle id="Corporation-94" class="cls-2" cx="287.44" cy="135.95" r="4" transform="translate(9.08 289.65) rotate(-54.22)"/>
      <circle id="Corporation-66" class="cls-2" cx="332.54" cy="86.01" r="4" transform="translate(-7.6 133.81) rotate(-22.5)"/>
      <circle id="Corporation-62" class="cls-2" cx="332.54" cy="81.14" r="4" transform="translate(72.28 303.47) rotate(-54.22)"/>
      <path id="Corporation-59" class="cls-1" d="m340.19,202.65c2.21,0,4,1.79,4,4s-1.79,4-4,4-4-1.79-4-4,1.79-4,4-4Z"/>
      <path id="Corporation-106" class="cls-1" d="m295.88,429.73c2.21,0,4,1.79,4,4s-1.79,4-4,4-4-1.79-4-4,1.79-4,4-4Z"/>
    </g>
  </g>
</svg>