<svg xmlns="http://www.w3.org/2000/svg" xmlns:xlink="http://www.w3.org/1999/xlink" viewBox="0 0 921.6 651.36">
    <defs>
        <style>
            <!-- .cls-1,.cls-2{fill-rule:evenodd}
            .cls-1,.cls-2,.cls-3,
            .cls-4{fill:#d95a2a}.cls-2,.cls-3{stroke:#fff;stroke-miterlimit:10;stroke-width: 2px} -->

            .cls-1, .cls-2, .cls-3 {
        fill: #d95a2a;
        stroke: #fff;
        stroke-miterlimit: 10;
        stroke-width: 2px;
      }

      .cls-2, .cls-3 {
        stroke: #fff;
        stroke-miterlimit: 10;
        stroke-width: 2px;
      }

      .cls-3 {
        fill-rule: evenodd;
        stroke: #fff;
        stroke-miterlimit: 10;
        fill: #d95a2a;

        stroke-width: 2px;
      }
        </style>
    </defs>
    <image width="3840" height="2714" transform="scale(.24)" xlink:href="https://infographicsuo.github.io/AEW/Fossil_Fuel_Interactive_Maps/Pipeline/Pipelines_Aug25.jpg" id="Raster_Base"/>
    <g id="ProtestData_For_All_Data">
        <g id="Pipeline_Project" data-name="Pipeline Project">
           <path id="Pipeline_49" class="cls-1" d="m260.14,82.93c3.45,0,6.24,2.79,6.24,6.24s-2.79,6.24-6.24,6.24-6.24-2.79-6.24-6.24,2.79-6.24,6.24-6.24Z"/>
      <path id="Pipeline_48" class="cls-1" d="m260.14,76.86c3.45,0,6.24,2.79,6.24,6.24s-2.79,6.24-6.24,6.24-6.24-2.79-6.24-6.24,2.79-6.24,6.24-6.24Z"/>
      <circle id="Pipeline_42" class="cls-2" cx="341.05" cy="356.63" r="6.24"/>
      <circle id="Pipeline_44" class="cls-2" cx="346.05" cy="335.95" r="6.24" transform="translate(-128.82 420.25) rotate(-54.22)"/>
      <path id="Pipeline_47" class="cls-1" d="m412.36,192.28c3.45,0,6.24,2.79,6.24,6.24s-2.79,6.24-6.24,6.24-6.24-2.79-6.24-6.24,2.79-6.24,6.24-6.24Z"/>
      <circle id="Pipeline_51" class="cls-2" cx="432.72" cy="180.78" r="6.24" transform="translate(100.1 511.38) rotate(-67.5)"/>
      <path id="Pipeline_52" class="cls-1" d="m335.21,273.58c3.45,0,6.24,2.79,6.24,6.24s-2.79,6.24-6.24,6.24-6.24-2.79-6.24-6.24,2.79-6.24,6.24-6.24Z"/>
      <path id="Pipeline_101" class="cls-1" d="m277.3,488.21c3.45,0,6.24,2.79,6.24,6.24s-2.79,6.24-6.24,6.24-6.24-2.79-6.24-6.24,2.79-6.24,6.24-6.24Z"/>
      <circle id="Pipeline_105" class="cls-2" cx="435.52" cy="171.59" r="6.24" transform="translate(110.32 508.3) rotate(-67.5)"/>
      <circle id="Pipeline_58" class="cls-2" cx="260.14" cy="77.02" r="6.24"/>
      <path id="Pipeline_57" class="cls-1" d="m260.14,64.7c3.45,0,6.24,2.79,6.24,6.24s-2.79,6.24-6.24,6.24-6.24-2.79-6.24-6.24,2.79-6.24,6.24-6.24Z"/>
      <circle id="Pipeline_56" class="cls-2" cx="260.14" cy="64.86" r="6.24" transform="translate(-5.02 104.49) rotate(-22.5)"/>
      <circle id="Pipeline_55" class="cls-2" cx="260.14" cy="58.78" r="6.24" transform="translate(80.82 256.19) rotate(-60.48)"/>
      <path id="Pipeline_54" class="cls-1" d="m260.14,46.46c3.45,0,6.24,2.79,6.24,6.24s-2.79,6.24-6.24,6.24-6.24-2.79-6.24-6.24,2.79-6.24,6.24-6.24Z"/>
      <circle id="Pipeline_53" class="cls-2" cx="260.14" cy="46.63" r="6.24"/>
        </g>
    </g>
</svg>
