<?xml version="1.0" encoding="iso-8859-1"?>
<!-- Generator: Adobe Illustrator 27.2.0, SVG Export Plug-In . SVG Version: 6.00 Build 0)  -->
<svg version="1.1" xmlns="http://www.w3.org/2000/svg" xmlns:xlink="http://www.w3.org/1999/xlink" x="0px" y="0px"
	 viewBox="0 0 921.6 651.36" style="enable-background:new 0 0 921.6 651.36;" xml:space="preserve">
<g id="Raster_x5F_Base">
	
		<image style="overflow:visible;" width="3840" height="2714" xlink:href="\\cas-fs-geog\infographics\Projects\JustFutures\Essential_Workers_Atlas\Topics\Fossil Fuel Protest\Interactive SVG Maps\Illustrator Maps\Pipelines\5_16_Piplines_Flatten_Raster-01.png"  transform="matrix(0.24 0 0 0.24 0 0)">
	</image>
</g>
<g id="ProtestData_x5F_For_x5F_All_x5F_Data">
	<g id="Pipeline_Project">
		<circle id="_x34_2" style="fill-rule:evenodd;clip-rule:evenodd;fill:#E17C05;" cx="341.049" cy="356.626" r="4"/>
		
			<ellipse id="_x34_4" transform="matrix(0.5847 -0.8112 0.8112 0.5847 -128.8227 420.2458)" style="fill-rule:evenodd;clip-rule:evenodd;fill:#E17C05;" cx="346.05" cy="335.946" rx="4" ry="4"/>
		<path id="_x34_7" style="fill-rule:evenodd;clip-rule:evenodd;fill:#E17C05;" d="M412.364,194.518c2.209,0,4,1.791,4,4
			s-1.791,4-4,4c-2.209,0-4-1.791-4-4S410.154,194.518,412.364,194.518z"/>
		
			<ellipse id="_x35_1" transform="matrix(0.3827 -0.9239 0.9239 0.3827 100.1041 511.3808)" style="fill-rule:evenodd;clip-rule:evenodd;fill:#E17C05;" cx="432.719" cy="180.782" rx="4" ry="4"/>
		<path id="_x35_2" style="fill-rule:evenodd;clip-rule:evenodd;fill:#E17C05;" d="M335.211,275.82c2.209,0,4,1.791,4,4
			c0,2.209-1.791,4-4,4s-4-1.791-4-4C331.211,277.61,333.002,275.82,335.211,275.82z"/>
		<path id="_x31_01" style="fill-rule:evenodd;clip-rule:evenodd;fill:#E17C05;" d="M277.303,490.454c2.209,0,4,1.791,4,4
			c0,2.209-1.791,4-4,4s-4-1.791-4-4C273.303,492.245,275.094,490.454,277.303,490.454z"/>
		
			<ellipse id="_x31_05" transform="matrix(0.3827 -0.9239 0.9239 0.3827 110.3222 508.296)" style="fill-rule:evenodd;clip-rule:evenodd;fill:#E17C05;" cx="435.52" cy="171.594" rx="4" ry="4"/>
		
			<circle id="_x35_8" style="fill-rule:evenodd;clip-rule:evenodd;fill:#E17C05;stroke:#FFFFFF;stroke-width:0.5;stroke-miterlimit:10;" cx="260.136" cy="82.121" r="4"/>
		
			<path id="_x35_7" style="fill-rule:evenodd;clip-rule:evenodd;fill:#E17C05;stroke:#FFFFFF;stroke-width:0.5;stroke-miterlimit:10;" d="
			M260.136,74.622c2.209,0,4,1.791,4,4c0,2.209-1.791,4-4,4c-2.209,0-4-1.791-4-4C256.136,76.413,257.926,74.622,260.136,74.622z"/>
		
			<ellipse id="_x35_6" transform="matrix(0.9239 -0.3827 0.3827 0.9239 -8.9466 105.2681)" style="fill-rule:evenodd;clip-rule:evenodd;fill:#E17C05;stroke:#FFFFFF;stroke-width:0.5;stroke-miterlimit:10;" cx="260.136" cy="75.123" rx="4" ry="4"/>
		
			<ellipse id="_x35_5" transform="matrix(0.4927 -0.8702 0.8702 0.4927 69.6403 262.705)" style="fill-rule:evenodd;clip-rule:evenodd;fill:#E17C05;stroke:#FFFFFF;stroke-width:0.5;stroke-miterlimit:10;" cx="260.136" cy="71.624" rx="4" ry="4"/>
		
			<path id="_x35_4" style="fill-rule:evenodd;clip-rule:evenodd;fill:#E17C05;stroke:#FFFFFF;stroke-width:0.5;stroke-miterlimit:10;" d="
			M260.136,64.125c2.209,0,4,1.791,4,4c0,2.209-1.791,4-4,4c-2.209,0-4-1.791-4-4C256.136,65.916,257.926,64.125,260.136,64.125z"/>
		
			<circle id="_x35_3" style="fill-rule:evenodd;clip-rule:evenodd;fill:#E17C05;stroke:#FFFFFF;stroke-width:0.5;stroke-miterlimit:10;" cx="260.136" cy="64.626" r="4"/>
		
			<path id="_x34_9" style="fill-rule:evenodd;clip-rule:evenodd;fill:#E17C05;stroke:#FFFFFF;stroke-width:0.5;stroke-miterlimit:10;" d="
			M260.136,57.127c2.209,0,4,1.791,4,4c0,2.209-1.791,4-4,4c-2.209,0-4-1.791-4-4C256.136,58.917,257.926,57.127,260.136,57.127z"/>
		
			<path id="_x34_8" style="fill-rule:evenodd;clip-rule:evenodd;fill:#E17C05;stroke:#FFFFFF;stroke-width:0.5;stroke-miterlimit:10;" d="
			M260.136,53.628c2.209,0,4,1.791,4,4c0,2.209-1.791,4-4,4s-4-1.791-4-4C256.136,55.418,257.926,53.628,260.136,53.628z"/>
	</g>
</g>
</svg>
