<?xml version="1.0" encoding="utf-8"?>
<!-- Generator: Adobe Illustrator 27.2.0, SVG Export Plug-In . SVG Version: 6.00 Build 0)  -->
<svg version="1.1" id="Layer_1" xmlns="http://www.w3.org/2000/svg" xmlns:xlink="http://www.w3.org/1999/xlink" x="0px" y="0px"
	 width="921.6px" height="651.6px" viewBox="0 0 921.6 651.6" style="enable-background:new 0 0 921.6 651.6;" xml:space="preserve"
	>
<style type="text/css">
	
		.st0{opacity:0.5;fill-rule:evenodd;clip-rule:evenodd;fill:#86837A;stroke:#1E1E1E;stroke-width:1.03;stroke-miterlimit:10;enable-background:new    ;}
	
		.st1{opacity:0.12;fill-rule:evenodd;clip-rule:evenodd;fill:#1E1E1E;stroke:#000000;stroke-width:1.03;stroke-miterlimit:10;enable-background:new    ;}
	.st2{fill:#FFFFFF;}
	.st3{font-family:'FreightSansProBold-Regular';}
	.st4{font-size:11px;}
	.st5{font-size:16px;}
	.st6{font-size:13px;}
	.st7{fill:none;stroke:#797B7D;stroke-linecap:round;stroke-linejoin:round;}
	.st8{font-size:9px;}
	.st9{fill-rule:evenodd;clip-rule:evenodd;fill:#13AB63;}
	.st10{fill-rule:evenodd;clip-rule:evenodd;fill:#FDBF6F;}
	.st11{fill-rule:evenodd;clip-rule:evenodd;fill:#DBBBF4;}
	.st12{fill-rule:evenodd;clip-rule:evenodd;fill:#FB9A99;}
	.st13{fill-rule:evenodd;clip-rule:evenodd;fill:#FFEDAA;}
	.st14{fill-rule:evenodd;clip-rule:evenodd;fill:#A0F297;}
	.st15{opacity:0.85;fill-rule:evenodd;clip-rule:evenodd;fill:#24B8A5;enable-background:new    ;}
	.st16{opacity:0.85;fill-rule:evenodd;clip-rule:evenodd;fill:#EA5E66;enable-background:new    ;}
	.st17{opacity:0.85;fill-rule:evenodd;clip-rule:evenodd;fill:#1395E5;enable-background:new    ;}
	.st18{fill-rule:evenodd;clip-rule:evenodd;fill:#A6CEE3;}
	.st19{font-family:'FreightSansProSemibold-Regular';}
	.st20{fill:none;stroke:#FFFFFF;stroke-width:0.91;stroke-miterlimit:10;}
	.st21{fill:#1395E5;stroke:#343434;stroke-linecap:round;stroke-linejoin:round;}
	.st22{fill:#FDBF6F;stroke:#343434;stroke-linecap:round;stroke-linejoin:round;}
	.st23{fill:#DBBBF4;stroke:#343434;stroke-linecap:round;stroke-linejoin:round;}
	.st24{fill:#24B8A5;stroke:#343434;stroke-linecap:round;stroke-linejoin:round;}
	.st25{fill-rule:evenodd;clip-rule:evenodd;fill:#24B8A5;stroke:#343434;stroke-linecap:round;stroke-linejoin:round;}
	.st26{fill-rule:evenodd;clip-rule:evenodd;fill:#1395E5;stroke:#343434;stroke-linecap:round;stroke-linejoin:round;}
	.st27{fill:#A6CEE3;stroke:#343434;stroke-linecap:round;stroke-linejoin:round;}
	.st28{fill:#FB9A99;stroke:#343434;stroke-linecap:round;stroke-linejoin:round;}
	.st29{opacity:0.1;}
	.st30{fill:#FFFFFF;stroke:#E5E5E5;stroke-linecap:round;stroke-linejoin:round;}
	.st31{fill:none;}
	.st32{fill:none;stroke:#E5E5E5;stroke-linecap:round;stroke-linejoin:round;}
	.st33{fill:#E5E5E5;}
</style>
<g id="Legend_Frame_to_Highlight">
	<g id="Map_Frames">
		<polygon class="st0" points="25.7,310.1 25.7,43 25.7,37.2 34.1,37.2 191.2,37.2 199.6,37.2 199.6,43 199.6,310.1 199.6,315.9 
			191.2,315.9 34.1,315.9 25.7,315.9 		"/>
		<polygon class="st1" points="25.9,579.3 25.9,339.9 25.9,334.7 33.6,334.7 177.6,334.7 185.3,334.7 185.3,339.9 185.3,579.3 
			185.3,584.5 177.6,584.5 33.6,584.5 25.9,584.5 		"/>
	</g>
</g>
<g id="Legend_Items_Non_Interactive">
	<text transform="matrix(1 0 0 1 43.88 467.27)" class="st2 st3 st4">Preposition Deployments</text>
	<text transform="matrix(1 0 0 1 58.09 401.54)" class="st2 st3 st4">Locations unknown</text>
	<text transform="matrix(1 0 0 1 43.03 352.8398)" class="st2 st3 st5">Deployments not </text>
	<text transform="matrix(1 0 0 1 42.76 370.8398)" class="st2 st3 st5">Displayed on Map</text>
	<text transform="matrix(1 0 0 1 659.97 609.0303)" class="st2 st3 st4">Total Person Days </text>
	<text transform="matrix(1 0 0 1 665.28 620.0303)" class="st2 st3 st4">Per Deployment</text>
	<text transform="matrix(1 0 0 1 33.92 111.98)" class="st2 st3 st6">Person Days Per Institution</text>
	<text transform="matrix(1 0 0 1 67.17 60.48)" class="st2 st3 st5">Deployment:</text>
	<path class="st7" d="M787.8,579c16.6,0,30,13.4,30,30c0,5.3-1.4,10.4-4,15c-5.4,9.3-15.3,15-26,15s-20.6-5.7-26-15
		c-2.6-4.6-4-9.7-4-15C757.8,592.5,771.2,579,787.8,579z"/>
	<path class="st7" d="M787.7,600.9c10.5,0,19,8.5,19,19c0,3.3-0.9,6.6-2.5,9.5c-3.4,5.9-9.7,9.5-16.5,9.5s-13.1-3.6-16.5-9.5
		c-1.7-2.9-2.5-6.2-2.5-9.5C768.6,609.4,777.2,600.9,787.7,600.9z"/>
	<path class="st7" d="M787.8,623.6c4.1,0,7.4,3.3,7.4,7.4c0,1.3-0.3,2.6-1,3.7c-1.3,2.3-3.8,3.7-6.4,3.7s-5.1-1.4-6.4-3.7
		c-0.7-1.1-1-2.4-1-3.7C780.4,626.9,783.7,623.6,787.8,623.6z"/>
	<text transform="matrix(1 0 0 1 782.79 634.5498)" class="st2 st3 st8">10</text>
	<text transform="matrix(1 0 0 1 782.79 609.7803)" class="st2 st3 st8">80</text>
	<text transform="matrix(1 0 0 1 780.3401 587.48)" class="st2 st3 st8">1</text>
	<text transform="matrix(1 0 0 1 785.8701 587.48)" class="st2 st3 st8">5</text>
	<text transform="matrix(1 0 0 1 790.78 587.48)" class="st2 st3 st8">0</text>
</g>
<g id="Legend_Text_to_Highlight">
	<text transform="matrix(1 0 0 1 105.37 150.6802)" class="st2 st3 st4">Deer Ridge</text>
	<text transform="matrix(1 0 0 1 105.37 169.1401)" class="st2 st3 st4">Mill Creek</text>
	<text transform="matrix(1 0 0 1 105.37 187.6001)" class="st2 st3 st4">Powder River</text>
	<text transform="matrix(1 0 0 1 105.37 132.2202)" class="st2 st3 st4">Coffee Creek</text>
	<text transform="matrix(1 0 0 1 105.37 206.0601)" class="st2 st3 st4">Shutter Creek</text>
	<text transform="matrix(1 0 0 1 105.37 224.52)" class="st2 st3 st4">Santiam</text>
	<text transform="matrix(1 0 0 1 105.37 242.98)" class="st2 st3 st4">South Fork</text>
	<text transform="matrix(1 0 0 1 105.37 261.4399)" class="st2 st3 st4">Snake River</text>
	<text transform="matrix(1 0 0 1 105.37 279.8999)" class="st2 st3 st4">Two Rivers</text>
	<text transform="matrix(1 0 0 1 105.37 298.3599)" class="st2 st3 st4">Warner Creek</text>
	<polygon class="st9" points="96.3,280.9 96.3,273.7 90.3,268.4 84.2,273.7 84.2,280.9 	"/>
	<polygon class="st10" points="96.3,133.9 96.3,126.7 90.3,121.4 84.2,126.7 84.2,133.9 	"/>
	<polygon class="st11" points="96.3,152.2 96.3,145.1 90.3,139.8 84.2,145.1 84.2,152.2 	"/>
	<polygon class="st12" points="96.3,170.6 96.3,163.4 90.3,158.1 84.2,163.4 84.2,170.6 	"/>
	<polygon class="st13" points="96.3,189 96.3,181.8 90.3,176.5 84.2,181.8 84.2,189 	"/>
	<polygon class="st14" points="96.3,225.8 96.3,218.6 90.3,213.3 84.2,218.6 84.2,225.8 	"/>
	<polygon class="st15" points="96.3,207.4 96.3,200.2 90.3,194.9 84.2,200.2 84.2,207.4 	"/>
	<polygon class="st16" points="96.3,262.5 96.3,255.4 90.3,250.1 84.2,255.4 84.2,262.5 	"/>
	<polygon class="st17" points="96.3,244.1 96.3,237 90.3,231.7 84.2,237 84.2,244.1 	"/>
	<polygon class="st18" points="96.3,299.3 96.3,292.1 90.3,286.8 84.2,292.1 84.2,299.3 	"/>
</g>
<g id="Interactive_Text">
	<text transform="matrix(1 0 0 1 46.34 223.8799)" class="st2 st3 st4">xxxxx</text>
	<text transform="matrix(1 0 0 1 46.34 260.6201)" class="st2 st3 st4">xxxxx</text>
	<text transform="matrix(1 0 0 1 46.34 242.25)" class="st2 st3 st4">xxxxx</text>
	<text transform="matrix(1 0 0 1 46.34 279)" class="st2 st3 st4">xxxxx</text>
	<text transform="matrix(1 0 0 1 46.34 297.3701)" class="st2 st3 st4">xxxxx</text>
	<text transform="matrix(1 0 0 1 46.34 132.0298)" class="st2 st3 st4">xxxxx</text>
	<text transform="matrix(1 0 0 1 46.34 168.77)" class="st2 st3 st4">xxxxx</text>
	<text transform="matrix(1 0 0 1 46.34 150.3999)" class="st2 st3 st4">xxxxx</text>
	<text transform="matrix(1 0 0 1 46.34 187.1401)" class="st2 st3 st4">xxxxx</text>
	<text transform="matrix(1 0 0 1 46.34 205.5098)" class="st2 st3 st4">xxxxx</text>
	<text transform="matrix(1 0 0 1 61.21 76.75)" class="st2 st19 st4">HOVER FOR DETAILS</text>
	<polyline class="st20" points="45.1,381.2 96.7,381.2 166.1,381.2 	"/>
</g>
<g id="_2020_Data">
	<g id="_2020_Colorful_Pies">
		<circle class="st21" cx="301.9" cy="141.9" r="7.1"/>
		<circle class="st22" cx="434.3" cy="247.6" r="8.7"/>
		<circle class="st21" cx="340" cy="169.2" r="6.4"/>
		<circle class="st23" cx="517.1" cy="298.9" r="6.8"/>
		<circle class="st22" cx="379.9" cy="193.1" r="6.4"/>
		<circle class="st22" cx="411.7" cy="261.1" r="7.9"/>
		<circle class="st21" cx="474.4" cy="186.6" r="8.3"/>
		<circle class="st21" cx="321" cy="143" r="6"/>
		<circle class="st24" cx="313.6" cy="317" r="6.6"/>
		<circle class="st21" cx="482" cy="164.1" r="8.3"/>
        <path class="st25" d="M430.1,325.8L430.1,325.8c0-8.5-6-15.8-14.3-17.4c-1.1-0.2-2.3-0.3-3.5-0.3c-7.2,0-13.7,4.3-16.4,11
			l16.4,6.8L430.1,325.8L430.1,325.8z"/>
		<path class="st26" d="M396,319c-0.9,2.1-1.4,4.5-1.4,6.8c0,8.5,6,15.8,14.3,17.4c1.1,0.2,2.3,0.3,3.5,0.3c9.8,0,17.8-8,17.8-17.8
			h-17.8L396,319L396,319z"/>
		<circle class="st21" cx="342.4" cy="147.4" r="9.4"/>
		<circle class="st27" cx="568" cy="553.6" r="10.9"/>
		<ellipse transform="matrix(0.8506 -0.5258 0.5258 0.8506 -35.0934 372.8418)" class="st23" cx="638.6" cy="248.2" rx="9" ry="9"/>
		<circle class="st24" cx="233" cy="480.4" r="6"/>
		
			<ellipse transform="matrix(0.9239 -0.3827 0.3827 0.9239 -55.5695 168.2175)" class="st22" cx="395.1" cy="223.8" rx="6.8" ry="6.8"/>
		<circle class="st28" cx="370.5" cy="292.4" r="8"/>
		<circle class="st21" cx="291.7" cy="173.9" r="18.9"/>
		<circle class="st27" cx="544.5" cy="501.5" r="17"/>
		<circle class="st24" cx="231.2" cy="434.3" r="11.9"/>
		<circle class="st24" cx="257" cy="381.3" r="6"/>
		<circle class="st24" cx="413" cy="325.2" r="17.8"/>
		<ellipse transform="matrix(0.5257 -0.8507 0.8507 0.5257 -247.1322 422.313)" class="st24" cx="255.2" cy="432.8" rx="6" ry="6"/>
		<circle class="st24" cx="316" cy="350.6" r="6"/>
		<circle class="st24" cx="282.9" cy="413.6" r="7.2"/>
		<circle class="st22" cx="390.9" cy="290.8" r="6.4"/>
		<circle class="st22" cx="376.9" cy="257.5" r="20.9"/>
		
			<ellipse transform="matrix(0.2297 -0.9733 0.9733 0.2297 86.8161 496.9467)" class="st21" cx="357.4" cy="193.6" rx="10.2" ry="10.2"/>
		<circle class="st22" cx="121.8" cy="501.5" r="6"/>
		<circle class="st22" cx="73.7" cy="434.3" r="9.4"/>
	</g>
	<g id="_2020_Interactive_Pie_Outline" class="st29">
		<circle id="_2020_15" class="st30" cx="301.9" cy="141.9" r="7.1"/>
		<circle id="_2020_18" class="st30" cx="434.3" cy="247.6" r="8.7"/>
		<circle id="_2020_25" class="st30" cx="340" cy="169.2" r="6.4"/>
		<circle id="_2020_16" class="st30" cx="517.1" cy="298.9" r="6.8"/>
		<circle id="_2020_05" class="st30" cx="379.9" cy="193.1" r="6.4"/>
		<circle id="_2020_10" class="st30" cx="411.7" cy="261.1" r="7.9"/>
		<circle id="_2020_09" class="st30" cx="474.4" cy="186.6" r="8.3"/>
		<circle id="_2020_31" class="st30" cx="321" cy="143" r="6"/>
		<circle id="_2020_17" class="st30" cx="313.6" cy="317" r="6.6"/>
		<circle id="_2020_20" class="st30" cx="482" cy="164.1" r="8.3"/>
		<circle id="_2020_14" class="st30" cx="413" cy="325.2" r="17.8"/>
		<circle id="_2020_13" class="st30" cx="287.3" cy="380.3" r="8"/>
		<circle id="_2020_28" class="st30" cx="342.4" cy="147.4" r="9.4"/>
		<circle id="_2020_06" class="st30" cx="568" cy="553.6" r="10.9"/>
		
			<ellipse id="_2020_09-2" transform="matrix(0.8506 -0.5258 0.5258 0.8506 -35.0934 372.8418)" class="st30" cx="638.6" cy="248.2" rx="9" ry="9"/>
		<circle id="_2020_30" class="st30" cx="284.1" cy="338.4" r="16.8"/>
		<circle id="_2020_01" class="st30" cx="233" cy="480.4" r="6"/>
		
			<ellipse id="_2020_27" transform="matrix(0.9239 -0.3827 0.3827 0.9239 -55.5695 168.2175)" class="st30" cx="395.1" cy="223.8" rx="6.8" ry="6.8"/>
		<circle id="_2020_11" class="st30" cx="370.5" cy="292.4" r="8"/>
		<circle id="_2020_07" class="st30" cx="285.4" cy="229" r="25.9"/>
		<circle id="_2020_26" class="st30" cx="291.7" cy="173.9" r="18.9"/>
		<circle id="_2020_02" class="st30" cx="544.5" cy="501.5" r="17"/>
		<circle id="_2020_22" class="st30" cx="231.2" cy="434.3" r="11.9"/>
		<circle id="_2020_33" class="st30" cx="257" cy="381.3" r="6"/>
		
			<ellipse id="_2020_08" transform="matrix(0.5257 -0.8507 0.8507 0.5257 -247.1322 422.313)" class="st30" cx="255.2" cy="432.8" rx="6" ry="6"/>
		<circle id="_2020_32" class="st30" cx="316" cy="350.6" r="6"/>
		<circle id="_2020_19" class="st30" cx="282.9" cy="413.6" r="7.2"/>
		<circle id="_2020_21" class="st30" cx="390.9" cy="290.8" r="6.4"/>
		<circle id="_2020_23" class="st30" cx="376.9" cy="257.5" r="20.9"/>
		
			<ellipse id="_2020_04" transform="matrix(0.2297 -0.9733 0.9733 0.2297 86.8161 496.9467)" class="st30" cx="357.4" cy="193.6" rx="10.2" ry="10.2"/>
		<circle id="_2020_03" class="st30" cx="121.8" cy="501.5" r="6"/>
		<circle id="_2020_24" class="st30" cx="73.7" cy="434.3" r="9.4"/>
	</g>
	<g id="_2020_Leader_Line">
		<g id="line2020_15">
			<line class="st31" x1="322.7" y1="156.3" x2="301.9" y2="141.9"/>
			<g>
				<line class="st32" x1="319.8" y1="154.3" x2="301.9" y2="141.9"/>
				<path class="st33" d="M321.7,151.1c1.7,1.2,2.1,3.5,0.9,5.2s-3.5,2.1-5.2,0.9c-1.7-1.2-2.1-3.5-0.9-5.2
					C317.7,150.4,320,149.9,321.7,151.1z"/>
			</g>
		</g>
		<g id="line2020_18">
			<line class="st31" x1="432.9" y1="265.3" x2="434.3" y2="247.6"/>
			<g>
				<line class="st32" x1="433.2" y1="261.8" x2="434.3" y2="247.6"/>
				<path class="st33" d="M436.9,261.9c-0.2,2.1-2,3.6-4,3.5s-3.6-2-3.5-4c0.2-2.1,2-3.6,4-3.5C435.5,258,437.1,259.8,436.9,261.9z"
					/>
			</g>
		</g>
		<g id="line2020_09">
			<line class="st31" x1="474.4" y1="172.2" x2="474.4" y2="187.6"/>
			<g>
				<line class="st32" x1="474.4" y1="175.8" x2="474.4" y2="187.6"/>
				<path class="st33" d="M470.6,176c0-2.1,1.7-3.8,3.8-3.8s3.8,1.7,3.8,3.8s-1.7,3.8-3.8,3.8C472.3,179.8,470.6,178.1,470.6,176z"
					/>
			</g>
		</g>
		<g id="line2020_21">
			<line class="st31" x1="384.8" y1="274.2" x2="390.9" y2="290.8"/>
			<g>
				<line class="st32" x1="386" y1="277.6" x2="390.9" y2="290.8"/>
				<path class="st33" d="M382.6,279.1c-0.7-2,0.3-4.1,2.2-4.8s4.1,0.3,4.8,2.2s-0.3,4.1-2.2,4.8S383.3,281,382.6,279.1z"/>
			</g>
		</g>
	</g>
</g>
</svg>
