<?xml version="1.0" encoding="UTF-8"?>
<svg xmlns="http://www.w3.org/2000/svg" xmlns:xlink="http://www.w3.org/1999/xlink" viewBox="0 0 921.6 651.36">
  <defs>
    <style>
      .cls-1, .cls-2 {
        fill: #1D7BBF;
        stroke: #fff;
        stroke-linecap: round;
        stroke-linejoin: bevel;
        stroke-width: 1.65px;
      }

      .cls-2 {
        fill-rule: evenodd;
      }
    </style>
  </defs>
  <g id="Base_Map_PNG" data-name="Base Map PNG">
    <image width="3840" height="2714" transform="translate(0 0) scale(.24)" xlink:href="Water_Aug22.jpg"/>
  </g>
  <g id="Water_Project" data-name="Water Project">
    <g id="Water_Project">
      <g id="Water_Project">
        <circle id="Water-1" class="cls-2" cx="326.81" cy="347.45" r="6.6" transform="translate(-149.96 332.85) rotate(-45)"/>
      <path id="Water-4" class="cls-1" d="m337.69,234.91c-3.65,0-6.6-2.95-6.6-6.6s2.95-6.6,6.6-6.6,6.6,2.95,6.6,6.6-2.95,6.6-6.6,6.6Z"/>
      <circle id="Water-6" class="cls-2" cx="337.69" cy="223.21" r="6.6" transform="translate(-58.92 304.16) rotate(-45)"/>
      <circle id="Water-7" class="cls-2" cx="337.69" cy="218.11" r="6.6" transform="translate(-55.32 302.67) rotate(-45)"/>
      <path id="Water-2" class="cls-1" d="m439.17,332.98c3.65,0,6.6,2.95,6.6,6.6s-2.95,6.6-6.6,6.6-6.6-2.95-6.6-6.6,2.95-6.6,6.6-6.6Z"/>
      <circle id="Water-3" class="cls-2" cx="120.23" cy="256.44" r="6.6" transform="translate(-49.11 29.41) rotate(-11.6)"/>
      <circle id="Water-5" class="cls-2" cx="341.12" cy="159.29" r="6.6"/>
      <circle id="Water-9" class="cls-2" cx="201.34" cy="151.15" r="6.6" transform="translate(-39.01 226.1) rotate(-54.22)"/>
      <circle id="Water-11" class="cls-2" cx="337.18" cy="174.94" r="6.6" transform="translate(46.52 419.5) rotate(-67.5)"/>
      <circle id="Water-12" class="cls-2" cx="279.69" cy="264.28" r="6.6"/>
      <path id="Water-13" class="cls-1" d="m345.07,173.8c3.65,0,6.6,2.95,6.6,6.6s-2.95,6.6-6.6,6.6-6.6-2.95-6.6-6.6,2.95-6.6,6.6-6.6Z"/>
      <circle id="Water-15" class="cls-2" cx="326.42" cy="127.32" r="6.6" transform="translate(83.87 380.17) rotate(-67.5)"/>
      <circle id="Water-16" class="cls-2" cx="326.42" cy="122.66" r="6.6" transform="translate(88.18 377.29) rotate(-67.5)"/>
      <path id="Water-8" class="cls-1" d="m337.69,219.62c-3.65,0-6.6-2.95-6.6-6.6s2.95-6.6,6.6-6.6,6.6,2.95,6.6,6.6-2.95,6.6-6.6,6.6Z"/>
      <circle id="Water-14" class="cls-2" cx="337.69" cy="207.92" r="6.6" transform="translate(16.37 440.34) rotate(-67.5)"/>
      <circle id="Water-17" class="cls-2" cx="337.69" cy="202.83" r="6.6" transform="translate(-44.51 298.19) rotate(-45)"/>
      <circle id="Water-18" class="cls-2" cx="337.69" cy="197.73" r="6.6"/>
      <circle id="Water-22" class="cls-2" cx="337.69" cy="192.63" r="6.6" transform="translate(-37.3 295.21) rotate(-45)"/>
      <path id="Water-10" class="cls-1" d="m326.81,335.71c3.65,0,6.6,2.95,6.6,6.6s-2.95,6.6-6.6,6.6-6.6-2.95-6.6-6.6,2.95-6.6,6.6-6.6Z"/>
      <circle id="Water-21" class="cls-2" cx="326.81" cy="337.18" r="6.6" transform="translate(-142.7 329.85) rotate(-45)"/>
      <circle id="Water-20" class="cls-2" cx="326.81" cy="332.04" r="6.6" transform="translate(-139.07 328.34) rotate(-45)"/>
      <circle id="Water-19" class="cls-2" cx="326.81" cy="326.91" r="6.6"/>
      <circle id="Water-23" class="cls-2" cx="326.81" cy="321.77" r="6.6" transform="translate(-95.54 500.57) rotate(-67.5)"/>
      </g>
    </g>
  </g>
</svg>