<?xml version="1.0" encoding="UTF-8"?>
<svg xmlns="http://www.w3.org/2000/svg" xmlns:xlink="http://www.w3.org/1999/xlink" viewBox="0 0 921.6 651.36">
  <defs>
    <style>
      .cls-1, .cls-2 {
        fill: #1d6996;
        stroke: #fff;
        stroke-linecap: round;
        stroke-linejoin: bevel;
        stroke-width: 1.65px;
      }

      .cls-2 {
        fill-rule: evenodd;
      }
    </style>
  </defs>
  <g id="Base_Map_PNG" data-name="Base Map PNG">
    <image width="3840" height="2714" transform="translate(0 0) scale(.24)" xlink:href="0530_WATER_Base_Map-01.png"/>
  </g>
  <g id="Protest_Data_Points" data-name="Protest Data Points">
    <g id="ProtestData_For_All_Data">
      <g id="Water">
        <path id="Water_2" data-name="2" class="cls-2" d="m439.17,332.98c3.65,0,6.6,2.95,6.6,6.6s-2.95,6.6-6.6,6.6-6.6-2.95-6.6-6.6,2.95-6.6,6.6-6.6Z"/>
        <circle id="Water_3" data-name="3" class="cls-1" cx="120.23" cy="256.44" r="6.6" transform="translate(-49.11 29.41) rotate(-11.6)"/>
        <circle id="Water_5" data-name="5" class="cls-1" cx="341.12" cy="159.29" r="6.6"/>
        <circle id="Water_9" data-name="9" class="cls-1" cx="201.34" cy="151.15" r="6.6" transform="translate(-39.01 226.1) rotate(-54.22)"/>
        <circle id="Water_11" data-name="11" class="cls-1" cx="337.18" cy="174.94" r="6.6" transform="translate(46.52 419.5) rotate(-67.5)"/>
        <circle id="Water_12" data-name="12" class="cls-1" cx="279.69" cy="264.28" r="6.6"/>
        <path id="Water_13" data-name="13" class="cls-2" d="m345.07,173.8c3.65,0,6.6,2.95,6.6,6.6s-2.95,6.6-6.6,6.6-6.6-2.95-6.6-6.6,2.95-6.6,6.6-6.6Z"/>
        <circle id="Water_15" data-name="15" class="cls-1" cx="326.42" cy="127.32" r="6.6" transform="translate(83.87 380.17) rotate(-67.5)"/>
        <circle id="Water_16" data-name="16" class="cls-1" cx="326.42" cy="122.66" r="6.6" transform="translate(88.18 377.29) rotate(-67.5)"/>
        <circle id="Water_22" data-name="22" class="cls-1" cx="337.69" cy="228.31" r="6.6" transform="translate(-62.53 305.65) rotate(-45)"/>
        <circle id="Water_18" data-name="18" class="cls-1" cx="337.69" cy="223.21" r="6.6"/>
        <circle id="Water_17" data-name="17" class="cls-1" cx="337.69" cy="218.11" r="6.6" transform="translate(-55.32 302.67) rotate(-45)"/>
        <circle id="Water_14" data-name="14" class="cls-1" cx="337.69" cy="213.02" r="6.6" transform="translate(11.66 443.49) rotate(-67.5)"/>
        <path id="Water_8" data-name="8" class="cls-2" d="m337.69,201.32c3.65,0,6.6,2.95,6.6,6.6s-2.95,6.6-6.6,6.6-6.6-2.95-6.6-6.6,2.95-6.6,6.6-6.6Z"/>
        <circle id="Water_7" data-name="7" class="cls-1" cx="337.69" cy="202.83" r="6.6" transform="translate(-44.51 298.19) rotate(-45)"/>
        <circle id="Water_6" data-name="6" class="cls-1" cx="337.69" cy="197.73" r="6.6" transform="translate(-40.91 296.7) rotate(-45)"/>
        <circle id="Water_23" data-name="23" class="cls-1" cx="326.81" cy="346.12" r="6.6" transform="translate(-118.03 515.6) rotate(-67.5)"/>
        <path id="Water_10" data-name="10" class="cls-2" d="m326.81,334.58c3.65,0,6.6,2.95,6.6,6.6s-2.95,6.6-6.6,6.6-6.6-2.95-6.6-6.6,2.95-6.6,6.6-6.6Z"/>
        <circle id="Water_21" data-name="21" class="cls-1" cx="326.81" cy="336.25" r="6.6" transform="translate(-142.04 329.57) rotate(-45)"/>
        <circle id="Water_20" data-name="20" class="cls-1" cx="326.81" cy="331.31" r="6.6" transform="translate(-138.55 328.13) rotate(-45)"/>
        <circle id="Water_19" data-name="19" class="cls-1" cx="326.81" cy="326.37" r="6.6"/>
        <circle id="Water_1" data-name="1" class="cls-1" cx="326.81" cy="321.44" r="6.6" transform="translate(-131.57 325.24) rotate(-45)"/>
        <path id="Water_4" data-name="4" class="cls-2" d="m337.69,186.03c3.65,0,6.6,2.95,6.6,6.6s-2.95,6.6-6.6,6.6-6.6-2.95-6.6-6.6,2.95-6.6,6.6-6.6Z"/>
      </g>
    </g>
  </g>
</svg>