<?xml version="1.0" encoding="UTF-8"?>
<svg xmlns="http://www.w3.org/2000/svg" xmlns:xlink="http://www.w3.org/1999/xlink" viewBox="0 0 921.6 651.36">
  <defs>
    <style>
      .cls-1, .cls-2, .cls-3 {
        fill: #F4C21B;
        stroke: #fff;
        stroke-miterlimit: 10;
        stroke-width: 2px;
      }

      .cls-2 {
        fill-rule: evenodd;
      }
    </style>
  </defs>
  <g id="Raster_Base">
    <image width="922" height="652" transform="translate(-.2 2.68)" xlink:href="https://infographicsuo.github.io/AEW/Fossil_Fuel_Interactive_Maps/Rail/Rail_Aug25.jpg"/>
  </g>
  <g id="ProtestData_For_All_Data">
    <g id="Rail">
      <path id="Rail-26" class="cls-3" d="m335.66,196.81c-3.53,0-6.4-2.87-6.4-6.4s2.87-6.4,6.4-6.4,6.4,2.87,6.4,6.4-2.87,6.4-6.4,6.4Z"/>
      <circle id="Rail-28" class="cls-2" cx="335.66" cy="184.01" r="6.4" transform="translate(-9.88 348.72) rotate(-54.22)"/>
      <path id="Rail-30" class="cls-3" d="m370.54,342.03c3.53,0,6.4,2.87,6.4,6.4s-2.87,6.4-6.4,6.4-6.4-2.87-6.4-6.4,2.87-6.4,6.4-6.4Z"/>
      <path id="Rail-24" class="cls-3" d="m292.22,307.07c3.53,0,6.4,2.87,6.4,6.4s-2.87,6.4-6.4,6.4-6.4-2.87-6.4-6.4,2.87-6.4,6.4-6.4Z"/>
      <circle id="Rail-25" class="cls-2" cx="347.55" cy="212.9" r="6.4" transform="translate(-55.02 149.21) rotate(-22.5)"/>
      <circle id="Rail-27" class="cls-1" cx="339.49" cy="236.99" r="6.4" transform="translate(-64.85 147.96) rotate(-22.5)"/>
      <circle id="Rail-31" class="cls-2" cx="337.34" cy="169.73" r="6.4" transform="translate(-39.27 142.01) rotate(-22.5)"/>
      <circle id="Rail-32" class="cls-2" cx="326.69" cy="134.45" r="6.4" transform="translate(-26.58 135.25) rotate(-22.5)"/>
      <path id="Rail-37" class="cls-3" d="m326.69,121.01c3.53,0,6.4,2.87,6.4,6.4s-2.87,6.4-6.4,6.4-6.4-2.87-6.4-6.4,2.87-6.4,6.4-6.4Z"/>
      <path id="Rail-29" class="cls-3" d="m336.75,332.7c3.53,0,6.4,2.87,6.4,6.4s-2.87,6.4-6.4,6.4-6.4-2.87-6.4-6.4,2.87-6.4,6.4-6.4Z"/>
      <path id="Rail-36" class="cls-3" d="m309.95,351.18c3.53,0,6.4,2.87,6.4,6.4s-2.87,6.4-6.4,6.4-6.4-2.87-6.4-6.4,2.87-6.4,6.4-6.4Z"/>
      <path id="Rail-35" class="cls-3" d="m309.95,345.21c3.53,0,6.4,2.87,6.4,6.4s-2.87,6.4-6.4,6.4-6.4-2.87-6.4-6.4,2.87-6.4,6.4-6.4Z"/>
      <path id="Rail-34" class="cls-3" d="m309.95,339.25c3.53,0,6.4,2.87,6.4,6.4s-2.87,6.4-6.4,6.4-6.4-2.87-6.4-6.4,2.87-6.4,6.4-6.4Z"/>
      <path id="Rail-33" class="cls-3" d="m309.95,333.28c3.53,0,6.4,2.87,6.4,6.4s-2.87,6.4-6.4,6.4-6.4-2.87-6.4-6.4,2.87-6.4,6.4-6.4Z"/>
      <path id="Rail-40" class="cls-3" d="m309.95,327.32c3.53,0,6.4,2.87,6.4,6.4s-2.87,6.4-6.4,6.4-6.4-2.87-6.4-6.4,2.87-6.4,6.4-6.4Z"/>
      <path id="Rail-39" class="cls-3" d="m309.95,321.35c3.53,0,6.4,2.87,6.4,6.4s-2.87,6.4-6.4,6.4-6.4-2.87-6.4-6.4,2.87-6.4,6.4-6.4Z"/>
      <path id="Rail-38" class="cls-3" d="m309.95,315.38c3.53,0,6.4,2.87,6.4,6.4s-2.87,6.4-6.4,6.4-6.4-2.87-6.4-6.4,2.87-6.4,6.4-6.4Z"/>
      <path id="Rail-41" class="cls-3" d="m309.95,309.42c3.53,0,6.4,2.87,6.4,6.4s-2.87,6.4-6.4,6.4-6.4-2.87-6.4-6.4,2.87-6.4,6.4-6.4Z"/>
    </g>
  </g>
</svg>