<?xml version="1.0" encoding="UTF-8"?>
<svg xmlns="http://www.w3.org/2000/svg" xmlns:xlink="http://www.w3.org/1999/xlink" viewBox="0 0 921.6 651.36">
  <defs>
    <style>
      .cls-1, .cls-2, .cls-3, .cls-5 {
        fill: #F4C21B;
        stroke: #fff;
        stroke-miterlimit: 10;
        stroke-width: 2px;
      }

      .cls-2 {
        fill-rule: evenodd;
      }
    </style>
  </defs>
  <g id="Raster_Base">
    <image width="922" height="652" transform="translate(-.2 2.68)" xlink:href="Rail.jpg"/>

  </g>
  <g id="ProtestData_For_All_Data">
    <g id="Rail">
     <path id="Rail-26" class="cls-5" d="m335.66,199.05c-4.77,0-8.64-3.87-8.64-8.64s3.87-8.64,8.64-8.64,8.64,3.87,8.64,8.64-3.87,8.64-8.64,8.64Z"/>
      <circle id="Rail-28" class="cls-3" cx="335.66" cy="181.13" r="8.64" transform="translate(-7.54 347.53) rotate(-54.22)"/>
      <path id="Rail-30" class="cls-5" d="m370.54,339.79c4.77,0,8.64,3.87,8.64,8.64s-3.87,8.64-8.64,8.64-8.64-3.87-8.64-8.64,3.87-8.64,8.64-8.64Z"/>
      <path id="Rail-24" class="cls-5" d="m292.22,304.83c4.77,0,8.64,3.87,8.64,8.64s-3.87,8.64-8.64,8.64-8.64-3.87-8.64-8.64,3.87-8.64,8.64-8.64Z"/>
      <circle id="Rail-25" class="cls-3" cx="347.55" cy="212.9" r="8.64" transform="translate(-55.02 149.21) rotate(-22.5)"/>
      <circle id="Rail-27" class="cls-3" cx="339.49" cy="236.99" r="8.64" transform="translate(-64.85 147.96) rotate(-22.5)"/>
      <circle id="Rail-31" class="cls-3" cx="344.3" cy="163.85" r="8.64" transform="translate(-36.49 144.23) rotate(-22.5)"/>
      <circle id="Rail-32" class="cls-3" cx="326.69" cy="134.45" r="8.64" transform="translate(-26.58 135.25) rotate(-22.5)"/>
      <path id="Rail-37" class="cls-5" d="m326.69,116.53c4.77,0,8.64,3.87,8.64,8.64s-3.87,8.64-8.64,8.64-8.64-3.87-8.64-8.64,3.87-8.64,8.64-8.64Z"/>
      <path id="Rail-29" class="cls-5" d="m344.3,324.31c4.77,0,8.64,3.87,8.64,8.64s-3.87,8.64-8.64,8.64-8.64-3.87-8.64-8.64,3.87-8.64,8.64-8.64Z"/>
      <path id="Rail-36" class="cls-5" d="m320.29,342.87c4.77,0,8.64,3.87,8.64,8.64s-3.87,8.64-8.64,8.64-8.64-3.87-8.64-8.64,3.87-8.64,8.64-8.64Z"/>
      <path id="Rail-35" class="cls-5" d="m320.29,333.59c4.77,0,8.64,3.87,8.64,8.64s-3.87,8.64-8.64,8.64-8.64-3.87-8.64-8.64,3.87-8.64,8.64-8.64Z"/>
      <path id="Rail-34" class="cls-5" d="m320.29,324.31c4.77,0,8.64,3.87,8.64,8.64s-3.87,8.64-8.64,8.64-8.64-3.87-8.64-8.64,3.87-8.64,8.64-8.64Z"/>
      <path id="Rail-33" class="cls-5" d="m320.29,315.03c4.77,0,8.64,3.87,8.64,8.64s-3.87,8.64-8.64,8.64-8.64-3.87-8.64-8.64,3.87-8.64,8.64-8.64Z"/>
      <path id="Rail-40" class="cls-5" d="m320.29,305.75c4.77,0,8.64,3.87,8.64,8.64s-3.87,8.64-8.64,8.64-8.64-3.87-8.64-8.64,3.87-8.64,8.64-8.64Z"/>
      <path id="Rail-39" class="cls-5" d="m320.29,296.47c4.77,0,8.64,3.87,8.64,8.64s-3.87,8.64-8.64,8.64-8.64-3.87-8.64-8.64,3.87-8.64,8.64-8.64Z"/>
      <path id="Rail-38" class="cls-5" d="m320.29,287.19c4.77,0,8.64,3.87,8.64,8.64s-3.87,8.64-8.64,8.64-8.64-3.87-8.64-8.64,3.87-8.64,8.64-8.64Z"/>
      <path id="Rail-41" class="cls-5" d="m320.29,277.91c4.77,0,8.64,3.87,8.64,8.64s-3.87,8.64-8.64,8.64-8.64-3.87-8.64-8.64,3.87-8.64,8.64-8.64Z"/>
    </g>
  </g>
</svg>