<?xml version="1.0" encoding="UTF-8"?>
<svg xmlns="http://www.w3.org/2000/svg" xmlns:xlink="http://www.w3.org/1999/xlink" viewBox="0 0 921.6 651.36">
  <defs>
    <style>
      .cls-1, .cls-2 {
        fill: #F4C21B;
        stroke: #fff;
        stroke-miterlimit: 10;
        stroke-width: 1.38px;
      }

      .cls-2 {
        fill-rule: evenodd;
      }
    </style>
  </defs>
  <g id="Raster_Base">
    <image width="922" height="652" transform="translate(-.2 2.68)" xlink:href="https://infographicsuo.github.io/AEW/Fossil_Fuel_Interactive_Maps/Rail/Rail_Aug22.jpg"/>
  </g>
  <g id="ProtestData_For_All_Data">
    <g id="Rail">
      <circle id="Rail-28" class="cls-1" cx="335.66" cy="190.41" r="4" transform="translate(-15.07 351.38) rotate(-54.22)"/>
      <path id="Rail-30" class="cls-2" d="m370.54,344.43c2.21,0,4,1.79,4,4s-1.79,4-4,4-4-1.79-4-4,1.79-4,4-4Z"/>
      <path id="Rail-41" class="cls-2" d="m318.1,346.06c2.21,0,4,1.79,4,4s-1.79,4-4,4-4-1.79-4-4,1.79-4,4-4Z"/>
      <path id="Rail-40" class="cls-2" d="m318.1,341.67c2.21,0,4,1.79,4,4s-1.79,4-4,4-4-1.79-4-4,1.79-4,4-4Z"/>
      <path id="Rail-39" class="cls-2" d="m318.1,337.29c2.21,0,4,1.79,4,4s-1.79,4-4,4-4-1.79-4-4,1.79-4,4-4Z"/>
      <path id="Rail-38" class="cls-2" d="m318.1,332.9c2.21,0,4,1.79,4,4s-1.79,4-4,4-4-1.79-4-4,1.79-4,4-4Z"/>
      <path id="Rail-36" class="cls-2" d="m318.1,328.51c2.21,0,4,1.79,4,4s-1.79,4-4,4-4-1.79-4-4,1.79-4,4-4Z"/>
      <path id="Rail-24" class="cls-2" d="m292.22,309.47c2.21,0,4,1.79,4,4s-1.79,4-4,4-4-1.79-4-4,1.79-4,4-4Z"/>
      <circle id="Rail-25" class="cls-1" cx="347.55" cy="212.9" r="4" transform="translate(-55.02 149.21) rotate(-22.5)"/>
      <path id="Rail-26" class="cls-2" d="m335.66,181.06c2.21,0,4,1.79,4,4s-1.79,4-4,4-4-1.79-4-4,1.79-4,4-4Z"/>
      <circle id="Rail-27" class="cls-1" cx="339.49" cy="236.99" r="4" transform="translate(-64.85 147.96) rotate(-22.5)"/>
      <path id="Rail-35" class="cls-2" d="m318.1,324.12c2.21,0,4,1.79,4,4s-1.79,4-4,4-4-1.79-4-4,1.79-4,4-4Z"/>
      <circle id="Rail-31" class="cls-1" cx="337.34" cy="171.75" r="4" transform="translate(-40.05 142.17) rotate(-22.5)"/>
      <circle id="Rail-32" class="cls-1" cx="317.47" cy="138.66" r="4" transform="translate(-28.9 132.04) rotate(-22.5)"/>
      <path id="Rail-34" class="cls-2" d="m318.1,319.74c2.21,0,4,1.79,4,4s-1.79,4-4,4-4-1.79-4-4,1.79-4,4-4Z"/>
      <path id="Rail-37" class="cls-2" d="m317.47,129.61c2.21,0,4,1.79,4,4s-1.79,4-4,4-4-1.79-4-4,1.79-4,4-4Z"/>
      <path id="Rail-33" class="cls-2" d="m318.1,315.35c2.21,0,4,1.79,4,4s-1.79,4-4,4-4-1.79-4-4,1.79-4,4-4Z"/>
      <path id="Rail-29" class="cls-2" d="m318.1,310.96c2.21,0,4,1.79,4,4s-1.79,4-4,4-4-1.79-4-4,1.79-4,4-4Z"/>
    </g>
  </g>
</svg>