<?xml version="1.0" encoding="UTF-8"?>
<svg id="ProtestData_For_All_Data" xmlns="http://www.w3.org/2000/svg" xmlns:xlink="http://www.w3.org/1999/xlink" viewBox="0 0 921.6 651.36">
  <defs>
    <style>
      .cls-1 {
        fill-rule: evenodd;
      }

      .cls-1, .cls-2 {
        fill: #edad08;
        stroke: #fff;
        stroke-miterlimit: 10;
      }
    </style>
  </defs>
  <g id="Base_Image" data-name="Base Image">
    <image width="3840" height="2714" transform="scale(.24)" xlink:href="https://infographicsuo.github.io/AEW/Fossil_Fuel_Interactive_Maps/Rail/20230710_Rail_BaseMap-01.png"/>
  </g>
  <g id="Rail_project">
    <g id="Rail_project-2" data-name="Rail_project">
      <circle class="cls-2" cx="335.24" cy="188.19" r="4" transform="translate(-13.44 350.12) rotate(-54.22)"/>
      <path class="cls-1" d="m292.22,309.47c2.21,0,4,1.79,4,4s-1.79,4-4,4-4-1.79-4-4,1.79-4,4-4Z"/>
      <circle class="cls-2" cx="347.55" cy="212.9" r="4" transform="translate(-55.02 149.21) rotate(-22.5)"/>
      <path class="cls-1" d="m335.2,180.08c2.21,0,4,1.79,4,4s-1.79,4-4,4-4-1.79-4-4,1.79-4,4-4Z"/>
      <circle class="cls-2" cx="339.49" cy="236.99" r="4" transform="translate(-64.85 147.96) rotate(-22.5)"/>
      <path class="cls-1" d="m315.5,345.04c2.21,0,4,1.79,4,4s-1.79,4-4,4-4-1.79-4-4,1.79-4,4-4Z"/>
      <path class="cls-1" d="m367.36,341.46c2.21,0,4,1.79,4,4s-1.79,4-4,4-4-1.79-4-4,1.79-4,4-4Z"/>
      <circle class="cls-2" cx="337.34" cy="171.75" r="4" transform="translate(-40.05 142.17) rotate(-22.5)"/>
      <path class="cls-1" d="m316.41,132.4c2.21,0,4,1.79,4,4s-1.79,4-4,4-4-1.79-4-4,1.79-4,4-4Z"/>
      <path class="cls-1" d="m315.5,341.34c2.21,0,4,1.79,4,4s-1.79,4-4,4-4-1.79-4-4,1.79-4,4-4Z"/>
      <path class="cls-1" d="m315.5,337.64c2.21,0,4,1.79,4,4s-1.79,4-4,4-4-1.79-4-4,1.79-4,4-4Z"/>
      <path class="cls-1" d="m315.5,333.94c2.21,0,4,1.79,4,4s-1.79,4-4,4-4-1.79-4-4,1.79-4,4-4Z"/>
      <path class="cls-1" d="m315.5,330.25c2.21,0,4,1.79,4,4s-1.79,4-4,4-4-1.79-4-4,1.79-4,4-4Z"/>
      <path class="cls-1" d="m315.5,326.55c2.21,0,4,1.79,4,4s-1.79,4-4,4-4-1.79-4-4,1.79-4,4-4Z"/>
      <path class="cls-1" d="m315.5,322.85c2.21,0,4,1.79,4,4s-1.79,4-4,4-4-1.79-4-4,1.79-4,4-4Z"/>
      <path class="cls-1" d="m315.5,319.15c2.21,0,4,1.79,4,4s-1.79,4-4,4-4-1.79-4-4,1.79-4,4-4Z"/>
      <path class="cls-1" d="m315.5,315.45c2.21,0,4,1.79,4,4s-1.79,4-4,4-4-1.79-4-4,1.79-4,4-4Z"/>
      <circle id="Rail-24" class="cls-2" cx="316.41" cy="132.03" r="4" transform="translate(-26.44 131.13) rotate(-22.5)"/>
    </g>
  </g>
</svg>