<?xml version="1.0" encoding="UTF-8"?>
<svg xmlns="http://www.w3.org/2000/svg" xmlns:xlink="http://www.w3.org/1999/xlink" viewBox="0 0 921.6 651.6">
  <defs>
    <style>
      .cls-1, .cls-2, .cls-3, .cls-4, .cls-5, .cls-6, .cls-7, .cls-8, .cls-9, .cls-10, .cls-11, .cls-12, .cls-13, .cls-14, .cls-15, .cls-16, .cls-17, .cls-18, .cls-19, .cls-20 {
        opacity: .85;
      }

      .cls-2, .cls-3, .cls-21, .cls-22, .cls-4, .cls-5, .cls-6, .cls-7, .cls-23, .cls-8, .cls-24, .cls-25, .cls-9, .cls-26, .cls-10, .cls-27, .cls-11, .cls-28, .cls-29, .cls-30, .cls-31, .cls-32, .cls-33, .cls-34, .cls-35, .cls-12, .cls-36, .cls-13, .cls-37, .cls-38, .cls-14, .cls-39, .cls-15, .cls-40, .cls-41, .cls-42, .cls-16, .cls-17, .cls-18, .cls-43, .cls-44, .cls-45, .cls-19, .cls-46, .cls-47, .cls-48, .cls-49, .cls-50, .cls-20 {
        stroke-linecap: round;
        stroke-linejoin: round;
      }

      .cls-2, .cls-3, .cls-4, .cls-5, .cls-6, .cls-7, .cls-23, .cls-8, .cls-9, .cls-26, .cls-10, .cls-11, .cls-29, .cls-32, .cls-12, .cls-13, .cls-38, .cls-14, .cls-15, .cls-40, .cls-41, .cls-16, .cls-17, .cls-18, .cls-43, .cls-19, .cls-46, .cls-47, .cls-48, .cls-20 {
        stroke-width: 1px;
      }

      .cls-2, .cls-3, .cls-27, .cls-41 {
        stroke: #bdffde;
      }

      .cls-2, .cls-3, .cls-27, .cls-41, .cls-51 {
        fill: #2fce7f;
      }

      .cls-2, .cls-21, .cls-22, .cls-4, .cls-52, .cls-53, .cls-7, .cls-24, .cls-25, .cls-9, .cls-10, .cls-27, .cls-30, .cls-12, .cls-13, .cls-37, .cls-39, .cls-15, .cls-42, .cls-17, .cls-18, .cls-54, .cls-50 {
        fill-rule: evenodd;
      }

      .cls-55 {
        fill: #262626;
      }

      .cls-56 {
        font-size: 12.6px;
        letter-spacing: -.03em;
      }

      .cls-56, .cls-57, .cls-58, .cls-59, .cls-60, .cls-61 {
        fill: #fff;
      }

      .cls-56, .cls-57, .cls-58, .cls-60, .cls-61 {
        font-family: FreightSansProBold-Regular, 'FreightSans Pro';
      }

      .cls-21, .cls-22, .cls-24, .cls-25, .cls-27, .cls-30, .cls-37, .cls-39, .cls-42, .cls-50 {
        stroke-width: 2.12px;
      }

      .cls-21, .cls-6, .cls-23, .cls-34, .cls-15 {
        stroke: #d5f1f5;
      }

      .cls-21, .cls-6, .cls-23, .cls-15, .cls-62 {
        fill: #53c8d9;
      }

      .cls-63, .cls-37 {
        fill: #fbbe43;
      }

      .cls-22, .cls-9, .cls-11, .cls-64, .cls-47 {
        fill: #f46520;
      }

      .cls-22, .cls-49 {
        stroke: #ffcab0;
      }

      .cls-65 {
        letter-spacing: .07em;
      }

      .cls-66 {
        letter-spacing: .1em;
      }

      .cls-4, .cls-67, .cls-38, .cls-50 {
        fill: #2b8131;
      }

      .cls-4, .cls-33, .cls-38, .cls-50 {
        stroke: #c9eacb;
      }

      .cls-5, .cls-68, .cls-29, .cls-39, .cls-17 {
        fill: #3955e4;
      }

      .cls-5, .cls-29, .cls-39, .cls-17, .cls-45 {
        stroke: #d0daff;
      }

      .cls-52 {
        opacity: .5;
        stroke-width: 1.28px;
      }

      .cls-52, .cls-69, .cls-70, .cls-71 {
        stroke: #000;
        stroke-miterlimit: 10;
      }

      .cls-52, .cls-54 {
        fill: #141515;
      }

      .cls-53 {
        fill: #bdffde;
      }

      .cls-7, .cls-72, .cls-42, .cls-43, .cls-19 {
        fill: #9d0808;
      }

      .cls-7, .cls-42, .cls-43, .cls-44, .cls-19 {
        stroke: #ffbebe;
      }

      .cls-8, .cls-26, .cls-12 {
        fill: #fbcd43;
        stroke: #ffedb7;
      }

      .cls-73 {
        letter-spacing: .1em;
      }

      .cls-24, .cls-31 {
        stroke: #f4e0ff;
      }

      .cls-24, .cls-74, .cls-13, .cls-14, .cls-48 {
        fill: #bd80f9;
      }

      .cls-25, .cls-75, .cls-18 {
        fill: #f03589;
      }

      .cls-25, .cls-36, .cls-18 {
        stroke: #ffdcec;
      }

      .cls-9, .cls-11, .cls-47 {
        stroke: #fddbca;
      }

      .cls-10, .cls-30, .cls-35, .cls-16, .cls-46 {
        stroke: #e8d8fc;
      }

      .cls-10, .cls-30, .cls-16, .cls-46, .cls-76 {
        fill: #6639a1;
      }

      .cls-69, .cls-32, .cls-40, .cls-70, .cls-20, .cls-71 {
        fill: none;
      }

      .cls-69, .cls-70, .cls-71 {
        stroke-width: 1.04px;
      }

      .cls-28 {
        fill: #fff8e3;
      }

      .cls-28, .cls-31, .cls-33, .cls-34, .cls-35, .cls-36, .cls-44, .cls-45, .cls-49 {
        stroke-width: 3px;
      }

      .cls-28, .cls-37 {
        stroke: #fff8e3;
      }

      .cls-77 {
        opacity: .3;
      }

      .cls-78 {
        letter-spacing: .04em;
      }

      .cls-57, .cls-58, .cls-60 {
        font-size: 9px;
      }

      .cls-31 {
        fill: #f4e0ff;
      }

      .cls-32 {
        stroke: #797b7d;
      }

      .cls-33 {
        fill: #c9eacb;
      }

      .cls-79 {
        letter-spacing: 0em;
      }

      .cls-34 {
        fill: #d5f1f5;
      }

      .cls-80 {
        letter-spacing: .07em;
      }

      .cls-58, .cls-81 {
        letter-spacing: .05em;
      }

      .cls-59 {
        font-family: FreightSansProSemibold-Regular, 'FreightSans Pro';
        font-size: 11px;
        letter-spacing: -.04em;
      }

      .cls-35 {
        fill: #e8d8fc;
      }

      .cls-36 {
        fill: #ffdcec;
      }

      .cls-13, .cls-14, .cls-48 {
        stroke: #efd2ff;
      }

      .cls-60 {
        letter-spacing: .04em;
      }

      .cls-40 {
        stroke: #262626;
      }

      .cls-82 {
        letter-spacing: .05em;
      }

      .cls-44 {
        fill: #ffbebe;
      }

      .cls-45 {
        fill: #d0daff;
      }

      .cls-83 {
        letter-spacing: .07em;
      }

      .cls-61 {
        font-size: 14px;
        letter-spacing: -.04em;
      }

      .cls-84 {
        letter-spacing: .11em;
      }

      .cls-70 {
        stroke-dasharray: 0 0 5.01 5.01;
      }

      .cls-49 {
        fill: #ffcab0;
      }

      .cls-20 {
        stroke: #e5e5e5;
      }

      .cls-85 {
        letter-spacing: .08em;
      }

      .cls-86 {
        letter-spacing: .02em;
      }

      .cls-71 {
        stroke-dasharray: 0 0 5.03 5.03;
      }

      .cls-87 {
        letter-spacing: .07em;
      }

      .cls-88 {
        letter-spacing: .09em;
      }
    </style>
  </defs>
  <g id="Flat_Base_Map" data-name="Flat Base Map">
    <image width="3840" height="2715" transform="translate(0 1.15) scale(.24)" xlink:href="https://infographicsuo.github.io/AEW/Carceral_Interactive_Maps/2019/Interactive_Basemap_20230731-01.png"/>
  </g>
  <g id="Legend_Frame_to_Highlight" data-name="Legend Frame to Highlight">
    <g id="Map_Frames" data-name="Map Frames">
      <polygon class="cls-52" points="22.34 288.94 22.34 47.85 22.34 42.65 31.75 42.65 207.72 42.65 217.12 42.65 217.12 47.85 217.12 288.94 217.12 294.14 207.72 294.14 31.75 294.14 22.34 294.14 22.34 288.94"/>
      <g class="cls-77">
        <polygon class="cls-54" points="22.34 550.53 22.34 310.36 22.34 305.18 30.11 305.18 175.41 305.18 183.18 305.18 183.18 310.36 183.18 550.53 183.18 555.72 175.41 555.72 30.11 555.72 22.34 555.72 22.34 550.53"/>
        <g>
          <polyline class="cls-69" points="22.34 307.68 22.34 305.18 24.84 305.18"/>
          <polyline class="cls-71" points="29.87 305.18 30.11 305.18 175.41 305.18 178.16 305.18"/>
          <polyline class="cls-69" points="180.68 305.18 183.18 305.18 183.18 307.68"/>
          <polyline class="cls-70" points="183.18 312.69 183.18 550.53 183.18 550.71"/>
          <polyline class="cls-69" points="183.18 553.22 183.18 555.72 180.68 555.72"/>
          <polyline class="cls-71" points="175.65 555.72 175.41 555.72 30.11 555.72 27.35 555.72"/>
          <polyline class="cls-69" points="24.84 555.72 22.34 555.72 22.34 553.22"/>
          <polyline class="cls-70" points="22.34 548.21 22.34 310.36 22.34 310.18"/>
        </g>
      </g>
    </g>
  </g>
  <g id="Legend_Items_Non_Interactive" data-name="Legend Items Non Interactive">
    <text class="cls-56" transform="translate(36.89 433.75)"><tspan x="0" y="0">Preposition Deployments</tspan></text>
    <text class="cls-56" transform="translate(49.07 330.5)"><tspan x="0" y="0">Deployments to Fires </tspan><tspan x="-2.26" y="12">Without Location Data</tspan></text>
    <text class="cls-56" transform="translate(52.59 198.72)"><tspan x="0" y="0">Total Incarcerated Person</tspan><tspan x="11.04" y="11">Days Per Deployment</tspan></text>
    <text class="cls-56" transform="translate(49.89 109.75)"><tspan x="0" y="0">Person Days per Institution</tspan></text>
    <text class="cls-61" transform="translate(64.09 61.65)"><tspan x="0" y="0">Deployment Name: </tspan></text>
    <path class="cls-32" d="m116.31,221.69c16.57,0,30,13.43,30,30,0,5.27-1.39,10.44-4.02,15-5.36,9.28-15.26,15-25.98,15s-20.62-5.72-25.98-15c-2.63-4.56-4.02-9.73-4.02-15,0-16.57,13.43-30,30-30Z"/>
    <path class="cls-32" d="m116.22,243.57c10.52,0,19.05,8.53,19.05,19.05,0,3.34-.88,6.63-2.55,9.52-3.4,5.89-9.69,9.52-16.5,9.52s-13.09-3.63-16.5-9.52c-1.67-2.9-2.55-6.18-2.55-9.52,0-10.52,8.53-19.05,19.05-19.05Z"/>
    <path class="cls-32" d="m116.31,266.26c4.1,0,7.42,3.32,7.42,7.42,0,1.3-.34,2.58-.99,3.71-1.33,2.3-3.78,3.71-6.43,3.71s-5.1-1.42-6.43-3.71c-.65-1.13-.99-2.41-.99-3.71,0-4.1,3.32-7.42,7.42-7.42Z"/>
    <text class="cls-57" transform="translate(112.17 276.15)"><tspan x="0" y="0">10</tspan></text>
    <text class="cls-60" transform="translate(111.17 261.54)"><tspan x="0" y="0">80</tspan></text>
    <text class="cls-57" transform="translate(109.24 237.91)"><tspan class="cls-84" x="0" y="0">1</tspan><tspan class="cls-82" x="4.51" y="0">5</tspan><tspan x="9.34" y="0">0</tspan></text>
  </g>
  <g id="Legend_Text_to_Highlight" data-name="Legend Text to Highlight">
    <text class="cls-57" transform="translate(84.5 140.92)"><tspan class="cls-66" x="0" y="0">D</tspan><tspan class="cls-80" x="7.03" y="0">RC</tspan><tspan x="19.34" y="0">I</tspan></text>
    <text class="cls-57" transform="translate(84.5 152.62)"><tspan class="cls-66" x="0" y="0">M</tspan><tspan class="cls-81" x="8.56" y="0">C</tspan><tspan class="cls-65" x="14.53" y="0">C</tspan><tspan x="20.66" y="0">F</tspan></text>
    <text class="cls-57" transform="translate(84.5 164.32)"><tspan class="cls-73" x="0" y="0">P</tspan><tspan class="cls-65" x="6.21" y="0">RC</tspan><tspan x="18.52" y="0">F</tspan></text>
    <text class="cls-57" transform="translate(84.5 129.22)"><tspan class="cls-81" x="0" y="0">CC</tspan><tspan class="cls-83" x="11.93" y="0">C</tspan><tspan x="18.07" y="0">F</tspan></text>
    <text class="cls-57" transform="translate(84.5 176.02)"><tspan class="cls-87" x="0" y="0">S</tspan><tspan class="cls-81" x="5.67" y="0">C</tspan><tspan class="cls-65" x="11.64" y="0">C</tspan><tspan x="17.77" y="0">I</tspan></text>
    <text class="cls-57" transform="translate(180.5 128.77)"><tspan class="cls-87" x="0" y="0">S</tspan><tspan class="cls-65" x="5.67" y="0">C</tspan><tspan x="11.81" y="0">I</tspan></text>
    <text class="cls-57" transform="translate(180.5 140.47)"><tspan class="cls-87" x="0" y="0">S</tspan><tspan class="cls-88" x="5.67" y="0">F</tspan><tspan class="cls-85" x="11.38" y="0">F</tspan><tspan class="cls-79" x="16.98" y="0">C</tspan></text>
    <text class="cls-57" transform="translate(180.5 152.17)"><tspan class="cls-87" x="0" y="0">S</tspan><tspan class="cls-65" x="5.67" y="0">RC</tspan><tspan x="17.98" y="0">I</tspan></text>
    <text class="cls-57" transform="translate(180.5 163.87)"><tspan class="cls-78" x="0" y="0">T</tspan><tspan class="cls-65" x="5.82" y="0">RC</tspan><tspan x="18.13" y="0">I</tspan></text>
    <text class="cls-57" transform="translate(180.5 175.57)"><tspan class="cls-86" x="0" y="0">W</tspan><tspan class="cls-81" x="8.76" y="0">C</tspan><tspan class="cls-65" x="14.72" y="0">C</tspan><tspan x="20.86" y="0">F</tspan></text>
  </g>
  <g id="Interactive_Text" data-name="Interactive Text">
    <text class="cls-58" transform="translate(125.28 127.4)"><tspan x="0" y="0">xxxxx</tspan></text>
    <text class="cls-58" transform="translate(125.28 150.87)"><tspan x="0" y="0">xxxxx</tspan></text>
    <text class="cls-58" transform="translate(125.28 139.13)"><tspan x="0" y="0">xxxxx</tspan></text>
    <text class="cls-58" transform="translate(125.28 162.61)"><tspan x="0" y="0">xxxxx</tspan></text>
    <text class="cls-58" transform="translate(125.28 174.35)"><tspan x="0" y="0">xxxxx</tspan></text>
    <text class="cls-58" transform="translate(30.92 127.4)"><tspan x="0" y="0">xxxxx</tspan></text>
    <text class="cls-58" transform="translate(30.92 150.87)"><tspan x="0" y="0">xxxxx</tspan></text>
    <text class="cls-58" transform="translate(30.92 139.13)"><tspan x="0" y="0">xxxxx</tspan></text>
    <text class="cls-58" transform="translate(30.92 162.61)"><tspan x="0" y="0">xxxxx</tspan></text>
    <text class="cls-58" transform="translate(30.92 174.35)"><tspan x="0" y="0">xxxxx</tspan></text>
    <text class="cls-59" transform="translate(69.49 76.55)"><tspan x="0" y="0">HOVER FOR DETAILS </tspan></text>
  </g>
  <g id="Pies_to_Fade" data-name="Pies to Fade">
    <g id="Pies">
      <circle class="cls-3" cx="420.84" cy="265.21" r="12.13"/>
      <circle class="cls-5" cx="339.05" cy="184.65" r="18.75"/>
      <circle class="cls-5" cx="296.56" cy="151.95" r="18.75" transform="translate(109.52 427.72) rotate(-82.98)"/>
      <circle class="cls-3" cx="375.55" cy="259.41" r="8.82"/>
      <circle class="cls-3" cx="407.61" cy="221.58" r="7.17"/>
      <path class="cls-2" d="m387.26,287.22c0-8.53-6.91-15.44-15.44-15.44-2.71,0-5.37.71-7.72,2.07-4.78,2.76-7.72,7.85-7.72,13.37s2.94,10.61,7.72,13.37l7.72-13.37h15.44Z"/>
      <path class="cls-12" d="m364.1,300.59c2.35,1.36,5.01,2.07,7.72,2.07s5.37-.71,7.72-2.07l-7.72-13.37-7.72,13.37Z"/>
      <path class="cls-17" d="m379.54,300.59c4.78-2.76,7.72-7.85,7.72-13.37h-15.44l7.72,13.37Z"/>
      <circle class="cls-19" cx="214.59" cy="411.85" r="18.58"/>
      <path class="cls-12" d="m420.72,86.69h0c0-5.27-1.39-10.44-4.02-15l-25.98,15h30Z"/>
      <path class="cls-17" d="m416.7,71.69c-5.36-9.28-15.26-15-25.98-15-8.87,0-17.28,3.92-22.98,10.72-4.53,5.4-7.02,12.23-7.02,19.28,0,12.61,7.89,23.88,19.74,28.19,3.29,1.2,6.76,1.81,10.26,1.81,16.57,0,30-13.43,30-30h-30l25.98-15Z"/>
      <path class="cls-12" d="m310.53,223.7c0-12.18-9.88-22.06-22.06-22.06-2.31,0-4.61.36-6.82,1.08-9.09,2.95-15.24,11.42-15.24,20.98,0,4.66,1.47,9.2,4.21,12.97l17.84-12.97h22.06Z"/>
      <path class="cls-17" d="m270.63,236.67c4.15,5.71,10.78,9.09,17.84,9.09,2.31,0,4.61-.36,6.82-1.08,9.09-2.95,15.24-11.42,15.24-20.98h-22.06l-17.84,12.97Z"/>
      <path class="cls-13" d="m504.24,288.43c0-11.91-7.04-22.69-17.95-27.47-3.8-1.67-7.9-2.53-12.05-2.53-7.53,0-14.78,2.83-20.32,7.93l20.32,22.07h30Z"/>
      <path class="cls-18" d="m453.92,266.35c-6.17,5.68-9.68,13.68-9.68,22.07,0,11.91,7.04,22.69,17.95,27.47l12.05-27.47-20.32-22.07Z"/>
      <path class="cls-17" d="m462.19,315.9c3.8,1.67,7.9,2.53,12.05,2.53,16.57,0,30-13.43,30-30h-30l-12.05,27.47Z"/>
      <circle class="cls-5" cx="345.92" cy="119.52" r="18.75" transform="translate(-19.41 141.48) rotate(-22.5)"/>
      <path class="cls-7" d="m270.82,492.78c0-16.57-13.43-30-30-30-2.39,0-4.78.29-7.11.85-13.44,3.28-22.89,15.32-22.89,29.15,0,4.81,1.16,9.54,3.37,13.81,5.16,9.95,15.43,16.19,26.63,16.19,7.25,0,14.26-2.63,19.73-7.4l-19.73-22.6h30Z"/>
      <path class="cls-17" d="m260.55,515.38c6.53-5.7,10.27-13.94,10.27-22.6,0,0,0,0,0,0h-30l19.73,22.6Z"/>
      <circle class="cls-5" cx="331.72" cy="152.28" r="7.17" transform="translate(-33.02 138.53) rotate(-22.5)"/>
      <circle class="cls-11" cx="483.32" cy="558.28" r="10.47" transform="translate(-217.42 791.17) rotate(-67.5)"/>
      <circle class="cls-3" cx="380.37" cy="205.88" r="8.82"/>
      <path class="cls-2" d="m445.85,151.69c0-16.57-13.43-30-30-30-3.42,0-6.82.59-10.05,1.73-11.96,4.25-19.95,15.57-19.95,28.27,0,6.9,2.38,13.58,6.73,18.93l23.27-18.93h30Z"/>
      <path class="cls-12" d="m392.58,170.63c3.47,4.26,8.04,7.49,13.22,9.34l10.05-28.27-23.27,18.93Z"/>
      <path class="cls-17" d="m405.81,179.96c3.23,1.15,6.62,1.73,10.05,1.73,16.57,0,30-13.43,30-30h-30l-10.05,28.27Z"/>
      <path class="cls-12" d="m392.48,564.91c0-9.23-4.25-17.95-11.52-23.63l-18.48,23.63h30Z"/>
      <path class="cls-17" d="m380.96,541.27c-5.28-4.13-11.78-6.37-18.48-6.37-11.59,0-22.15,6.68-27.11,17.16-1.9,4.01-2.89,8.4-2.89,12.84,0,14.03,9.73,26.19,23.42,29.27,2.16.49,4.37.73,6.58.73,16.57,0,30-13.43,30-30h-30l18.48-23.63Z"/>
      <path class="cls-9" d="m442.3,548.69c3.96,0,7.17,3.21,7.17,7.17s-3.21,7.17-7.17,7.17-7.17-3.21-7.17-7.17,3.21-7.17,7.17-7.17Z"/>
      <path class="cls-18" d="m310.43,545.17c0-15.24-11.42-28.06-26.56-29.8l-3.44,29.8h30Z"/>
      <path class="cls-17" d="m283.87,515.37c-1.14-.13-2.29-.2-3.44-.2-6.69,0-13.18,2.23-18.46,6.35l18.46,23.65,3.44-29.8Z"/>
      <path class="cls-4" d="m261.98,521.52c-7.29,5.68-11.54,14.41-11.54,23.65,0,8.43,3.54,16.46,9.76,22.15,5.53,5.05,12.75,7.85,20.24,7.85,10.2,0,19.69-5.18,25.22-13.75l-25.22-16.25-18.46-23.65Z"/>
      <path class="cls-9" d="m305.65,561.42c3.12-4.85,4.78-10.49,4.78-16.25h-30l25.22,16.25Z"/>
      <circle class="cls-14" cx="636.05" cy="249.06" r="30" transform="translate(213.36 785.65) rotate(-73.15)"/>
      <circle class="cls-19" cx="286.05" cy="446.75" r="23.71"/>
      <circle class="cls-19" cx="257.09" cy="425.34" r="7.17"/>
      <circle class="cls-3" cx="407.61" cy="240.91" r="7.17"/>
      <path class="cls-12" d="m324.91,293.13h0c0-13.43-9.43-25.02-22.58-27.75-1.9-.39-3.83-.59-5.77-.59-11.29,0-21.5,6.7-26,17.05l26,11.29h28.35Z"/>
      <path class="cls-17" d="m270.57,281.84c-1.55,3.56-2.35,7.41-2.35,11.29,0,13.43,9.43,25.02,22.58,27.75,1.9.39,3.83.59,5.77.59,15.65,0,28.35-12.69,28.35-28.35h-28.35l-26-11.29Z"/>
      <path class="cls-13" d="m519.41,192.38c0-14.37-10.18-26.72-24.29-29.45l-5.71,29.45h30Z"/>
      <path class="cls-15" d="m495.13,162.93c-1.88-.36-3.79-.55-5.71-.55-12.24,0-23.25,7.43-27.83,18.79l27.83,11.21,5.71-29.45Z"/>
      <path class="cls-18" d="m461.59,181.17c-1.44,3.56-2.17,7.37-2.17,11.21,0,8.56,3.65,16.7,10.04,22.4l19.96-22.4-27.83-11.21Z"/>
      <path class="cls-17" d="m469.45,214.78c5.5,4.9,12.6,7.6,19.96,7.6,4.23,0,8.41-.89,12.27-2.62,10.79-4.84,17.73-15.55,17.73-27.38h-30l-19.96,22.4Z"/>
      <circle class="cls-5" cx="373.69" cy="153.74" r="7.17" transform="translate(-19.8 61.84) rotate(-9.22)"/>
      <circle class="cls-16" cx="670.3" cy="158.43" r="10.81" transform="translate(84.3 520.38) rotate(-45)"/>
      <path class="cls-15" d="m659.37,202.92c0-6.15-4.99-11.14-11.14-11.14-1.03,0-2.06.14-3.05.43l3.05,10.71h11.14Z"/>
      <path class="cls-10" d="m645.18,192.21c-4.79,1.36-8.09,5.73-8.09,10.71,0,.69.06,1.37.19,2.05.99,5.27,5.59,9.09,10.95,9.09.34,0,.69-.02,1.03-.05,5.73-.53,10.11-5.34,10.11-11.09h-11.14l-3.05-10.71Z"/>
      <path class="cls-13" d="m601.05,238.63c0-9.59-6.79-17.84-16.2-19.69-1.28-.25-2.57-.38-3.88-.38-8.15,0-15.49,4.93-18.58,12.47l18.58,7.61h20.07Z"/>
      <path class="cls-4" d="m562.4,231.02c-.99,2.41-1.5,5-1.5,7.61,0,9.59,6.79,17.84,16.2,19.69,1.28.25,2.57.38,3.88.38,11.09,0,20.07-8.99,20.07-20.07h-20.07l-18.58-7.61Z"/>
      <path class="cls-10" d="m673.94,174.24c3.96,0,7.17,3.21,7.17,7.17s-3.21,7.17-7.17,7.17-7.17-3.21-7.17-7.17,3.21-7.17,7.17-7.17Z"/>
      <circle class="cls-6" cx="716.4" cy="211.18" r="12.13" transform="translate(207.13 757.5) rotate(-63.43)"/>
      <circle class="cls-16" cx="673.19" cy="202.43" r="8.82"/>
      <path class="cls-12" d="m787.22,158.57c0-11.6-6.68-22.15-17.17-27.12l-12.83,27.12h30Z"/>
      <path class="cls-17" d="m770.06,131.46c-4.01-1.9-8.4-2.88-12.83-2.88-12.52,0-23.72,7.78-28.1,19.5-1.25,3.36-1.9,6.91-1.9,10.5,0,13.46,8.96,25.27,21.92,28.89,2.63.74,5.35,1.11,8.08,1.11,14.41,0,26.78-10.24,29.47-24.39l-29.47-5.61,12.83-27.12Z"/>
      <path class="cls-10" d="m786.69,164.18c.35-1.85.53-3.73.53-5.61h-30l29.47,5.61Z"/>
      <path class="cls-18" d="m375.43,499.91c0-16.57-13.43-30-30-30-.73,0-1.46.03-2.19.08-15.68,1.15-27.81,14.2-27.81,29.92,0,1.46.11,2.92.32,4.37l29.68-4.37h30Z"/>
      <path class="cls-17" d="m315.75,504.27c2.05,13.91,13.47,24.53,27.49,25.55l2.19-29.92-29.68,4.37Z"/>
      <path class="cls-9" d="m343.24,529.83c.73.05,1.46.08,2.19.08,16.57,0,30-13.43,30-30h-30l-2.19,29.92Z"/>
      <path class="cls-12" d="m333.17,242.53c0-4.87-3.95-8.82-8.82-8.82s-8.82,3.95-8.82,8.82h17.64Z"/>
      <path class="cls-17" d="m315.53,242.53c0,4.87,3.95,8.82,8.82,8.82s8.82-3.95,8.82-8.82h-17.64Z"/>
      <circle class="cls-3" cx="403.01" cy="195.51" r="8.82" transform="translate(68.15 493.03) rotate(-67.5)"/>
      <circle class="cls-19" cx="331.77" cy="375.36" r="25.37" transform="translate(-55.84 57.99) rotate(-9.22)"/>
      <circle class="cls-5" cx="369.97" cy="173.07" r="7.17" transform="translate(68.49 448.65) rotate(-67.5)"/>
      <circle class="cls-19" cx="236.27" cy="438.27" r="8.65"/>
      <circle class="cls-16" cx="694.93" cy="172.23" r="8.82"/>
      <path class="cls-12" d="m428.84,330.29s0,0,0,0c0-11.88-7.01-22.64-17.88-27.44-3.82-1.69-7.94-2.56-12.12-2.56-7.48,0-14.69,2.79-20.21,7.83l20.21,22.17h30Z"/>
      <path class="cls-17" d="m378.63,308.12c-6.24,5.68-9.79,13.73-9.79,22.17,0,11.88,7.01,22.64,17.88,27.44,3.82,1.69,7.94,2.56,12.12,2.56,16.57,0,30-13.43,30-30h-30l-20.21-22.17Z"/>
      <circle class="cls-5" cx="352.7" cy="152.09" r="8.82"/>
      <circle class="cls-19" cx="300.17" cy="482.44" r="10.31"/>
      <circle class="cls-3" cx="368.95" cy="234.31" r="7.17" transform="translate(11.28 485.51) rotate(-67.5)"/>
      <circle class="cls-19" cx="273.63" cy="358.07" r="7.17" transform="translate(-116.2 131.97) rotate(-22.5)"/>
      <circle class="cls-3" cx="388.28" cy="226.86" r="7.17" transform="translate(-46.69 341) rotate(-45)"/>
      <circle class="cls-5" cx="309.79" cy="116.32" r="10.47" transform="translate(125.4 391.1) rotate(-76.72)"/>
      <circle class="cls-19" cx="222.57" cy="453.35" r="8.49"/>
      <circle class="cls-11" cx="556.9" cy="540.08" r="12.46" transform="translate(-164.29 254.23) rotate(-22.5)"/>
      <circle class="cls-19" cx="247.64" cy="401.38" r="11.8"/>
      <circle class="cls-3" cx="396.54" cy="263.64" r="7.17" transform="translate(-70.28 357.61) rotate(-45)"/>
      <circle class="cls-5" cx="301.09" cy="186.17" r="10.47"/>
      <circle class="cls-19" cx="144.23" cy="493.52" r="15.44" transform="translate(-177.88 92.76) rotate(-22.5)"/>
      <circle class="cls-19" cx="103.76" cy="532.67" r="12.13"/>
      <circle class="cls-19" cx="126.99" cy="519.53" r="7"/>
      <circle class="cls-19" cx="133.99" cy="462.7" r="11.8"/>
      <circle class="cls-19" cx="145.26" cy="528.02" r="7.17"/>
      <circle class="cls-19" cx="103.76" cy="487.47" r="21.73" transform="translate(-76.74 22.91) rotate(-9.22)"/>
      <circle class="cls-8" cx="77.59" cy="463.52" r="7.17"/>
      <circle class="cls-3" cx="70.68" cy="517.32" r="17.09" transform="translate(-451.28 504.22) rotate(-80.78)"/>
      <circle class="cls-5" cx="64.25" cy="482.52" r="8.82"/>
      <circle class="cls-19" cx="102.67" cy="377.45" r="18.42" transform="translate(-286.35 418.33) rotate(-80.78)"/>
    </g>
  </g>
  <g id="Interactive_Pie_Outlines" data-name="Interactive Pie Outlines">
    <g id="Outlines">
      <circle class="cls-20" cx="420.84" cy="265.21" r="12.13"/>
      <circle class="cls-20" cx="339.05" cy="184.65" r="18.75"/>
      <circle class="cls-20" cx="296.56" cy="151.95" r="18.75" transform="translate(109.52 427.72) rotate(-82.98)"/>
      <circle class="cls-20" cx="375.55" cy="259.41" r="8.82"/>
      <circle class="cls-20" cx="407.61" cy="221.58" r="7.17"/>
      <circle class="cls-20" cx="371.82" cy="287.22" r="15.44"/>
      <circle class="cls-20" cx="214.59" cy="411.85" r="18.58"/>
      <circle class="cls-20" cx="390.72" cy="86.69" r="30" transform="translate(242.56 458.48) rotate(-80.78)"/>
      <circle class="cls-20" cx="288.47" cy="223.7" r="22.06" transform="translate(21.45 472.61) rotate(-80.78)"/>
      <circle class="cls-20" cx="474.24" cy="288.43" r="30" transform="translate(60.76 658.73) rotate(-73.15)"/>
      <circle class="cls-20" cx="345.92" cy="119.52" r="18.75" transform="translate(-19.41 141.48) rotate(-22.5)"/>
      <circle class="cls-20" cx="240.82" cy="492.78" r="30" transform="translate(-34.33 18.31) rotate(-4.07)"/>
      <circle class="cls-20" cx="331.72" cy="152.28" r="7.17" transform="translate(-33.02 138.53) rotate(-22.5)"/>
      <circle class="cls-20" cx="483.32" cy="558.28" r="10.47" transform="translate(-217.42 791.17) rotate(-67.5)"/>
      <circle class="cls-20" cx="380.37" cy="205.88" r="8.82"/>
      <circle class="cls-20" cx="415.85" cy="151.69" r="30" transform="translate(-26.4 170.69) rotate(-22.5)"/>
      <circle class="cls-20" cx="362.48" cy="564.91" r="30" transform="translate(-85.81 65.36) rotate(-9.22)"/>
      <path class="cls-20" d="m442.3,548.69c3.96,0,7.17,3.21,7.17,7.17s-3.21,7.17-7.17,7.17-7.17-3.21-7.17-7.17,3.21-7.17,7.17-7.17Z"/>
      <circle class="cls-20" cx="280.43" cy="545.17" r="30" transform="translate(-103.89 67.52) rotate(-11.6)"/>
      <circle class="cls-20" cx="636.05" cy="249.06" r="30" transform="translate(213.36 785.65) rotate(-73.15)"/>
      <circle class="cls-20" cx="286.05" cy="446.75" r="23.71"/>
      <circle class="cls-20" cx="257.09" cy="425.34" r="7.17"/>
      <circle class="cls-20" cx="407.61" cy="240.91" r="7.17"/>
      <circle class="cls-20" cx="296.57" cy="293.13" r="28.35" transform="translate(-109.82 199.69) rotate(-31.72)"/>
      <circle class="cls-20" cx="489.41" cy="192.38" r="30" transform="translate(189.73 624.5) rotate(-76.72)"/>
      <circle class="cls-20" cx="373.69" cy="153.74" r="7.17" transform="translate(-19.8 61.84) rotate(-9.22)"/>
      <circle class="cls-20" cx="670.3" cy="158.43" r="10.81" transform="translate(84.3 520.38) rotate(-45)"/>
      <circle class="cls-20" cx="648.23" cy="202.92" r="11.14" transform="translate(-9.87 371.1) rotate(-31.72)"/>
      <circle class="cls-20" cx="580.98" cy="238.63" r="20.07"/>
      <path class="cls-20" d="m673.94,174.24c3.96,0,7.17,3.21,7.17,7.17s-3.21,7.17-7.17,7.17-7.17-3.21-7.17-7.17,3.21-7.17,7.17-7.17Z"/>
      <circle class="cls-20" cx="716.4" cy="211.18" r="12.13" transform="translate(207.13 757.5) rotate(-63.43)"/>
      <circle class="cls-20" cx="673.19" cy="202.43" r="8.82"/>
      <circle class="cls-20" cx="757.22" cy="158.57" r="30" transform="translate(386.02 837.35) rotate(-73.15)"/>
      <circle class="cls-20" cx="345.43" cy="499.91" r="30" transform="translate(-75.62 61.79) rotate(-9.22)"/>
      <circle class="cls-20" cx="324.35" cy="242.53" r="8.82" transform="translate(-76.49 300.38) rotate(-45)"/>
      <circle class="cls-20" cx="403.01" cy="195.51" r="8.82" transform="translate(68.15 493.03) rotate(-67.5)"/>
      <circle class="cls-20" cx="331.77" cy="375.36" r="25.37" transform="translate(-55.84 57.99) rotate(-9.22)"/>
      <circle class="cls-20" cx="369.97" cy="173.07" r="7.17" transform="translate(68.49 448.65) rotate(-67.5)"/>
      <circle class="cls-20" cx="236.27" cy="438.27" r="8.65"/>
      <circle class="cls-20" cx="694.93" cy="172.23" r="8.82"/>
      <circle class="cls-20" cx="398.84" cy="330.29" r="30"/>
      <circle class="cls-20" cx="352.7" cy="152.09" r="8.82"/>
      <circle class="cls-20" cx="300.17" cy="482.44" r="10.31"/>
      <circle class="cls-20" cx="368.95" cy="234.31" r="7.17" transform="translate(11.28 485.51) rotate(-67.5)"/>
      <circle class="cls-20" cx="273.63" cy="358.07" r="7.17" transform="translate(-116.2 131.97) rotate(-22.5)"/>
      <circle class="cls-20" cx="388.28" cy="226.86" r="7.17" transform="translate(-46.69 341) rotate(-45)"/>
      <circle class="cls-20" cx="309.79" cy="116.32" r="10.47" transform="translate(125.4 391.1) rotate(-76.72)"/>
      <circle class="cls-20" cx="222.57" cy="453.35" r="8.49"/>
      <circle class="cls-20" cx="556.9" cy="540.08" r="12.46" transform="translate(-164.29 254.23) rotate(-22.5)"/>
      <circle class="cls-20" cx="247.64" cy="401.38" r="11.8"/>
      <circle class="cls-20" cx="396.54" cy="263.64" r="7.17" transform="translate(-70.28 357.61) rotate(-45)"/>
      <circle class="cls-20" cx="301.09" cy="186.17" r="10.47"/>
      <circle class="cls-20" cx="144.23" cy="493.52" r="15.44" transform="translate(-177.88 92.76) rotate(-22.5)"/>
      <circle class="cls-20" cx="103.76" cy="532.67" r="12.13"/>
      <circle class="cls-20" cx="126.99" cy="519.53" r="7"/>
      <circle class="cls-20" cx="133.99" cy="462.7" r="11.8"/>
      <circle class="cls-20" cx="145.26" cy="528.02" r="7.17"/>
      <circle class="cls-20" cx="103.76" cy="487.47" r="21.73" transform="translate(-76.74 22.91) rotate(-9.22)"/>
      <circle class="cls-20" cx="77.59" cy="463.52" r="7.17"/>
      <circle class="cls-20" cx="70.68" cy="517.32" r="17.09" transform="translate(-451.28 504.22) rotate(-80.78)"/>
      <circle class="cls-20" cx="64.25" cy="482.52" r="8.82"/>
      <circle class="cls-20" cx="102.59" cy="377.45" r="18.42" transform="translate(-286.42 418.25) rotate(-80.78)"/>
    </g>
  </g>
  <g id="Leading_Lines_to_Fade" data-name="Leading Lines to Fade">
    <g id="Leadling_Lines" data-name="Leadling Lines">
      <g class="cls-1">
        <g>
          <line class="cls-40" x1="376.85" y1="249.56" x2="421.07" y2="265.61"/>
          <path class="cls-55" d="m376.3,251.36c-.98-.35-1.48-1.43-1.13-2.41s1.43-1.48,2.41-1.13c.98.35,1.48,1.43,1.13,2.41s-1.43,1.48-2.41,1.13Z"/>
        </g>
      </g>
      <g class="cls-1">
        <g>
          <line class="cls-40" x1="351.7" y1="158.82" x2="296.27" y2="151.69"/>
          <path class="cls-55" d="m351.85,156.94c1.03.13,1.76,1.07,1.62,2.1s-1.07,1.76-2.1,1.62c-1.03-.13-1.76-1.07-1.62-2.1.13-1.03,1.07-1.76,2.1-1.62Z"/>
        </g>
      </g>
      <g class="cls-1">
        <g>
          <line class="cls-40" x1="390.11" y1="242.87" x2="407.65" y2="221.55"/>
          <path class="cls-55" d="m391.62,243.99c-.66.8-1.84.92-2.65.26s-.92-1.84-.26-2.65,1.84-.92,2.65-.26.92,1.84.26,2.65Z"/>
        </g>
      </g>
      <g class="cls-1">
        <g>
          <line class="cls-40" x1="388.31" y1="245.91" x2="371.82" y2="287.22"/>
          <path class="cls-55" d="m386.53,245.3c.38-.96,1.48-1.43,2.44-1.05s1.43,1.48,1.05,2.44c-.38.96-1.48,1.43-2.44,1.05s-1.43-1.48-1.05-2.44Z"/>
        </g>
      </g>
      <g class="cls-1">
        <g>
          <line class="cls-40" x1="234.67" y1="421.85" x2="214.59" y2="411.85"/>
          <path class="cls-55" d="m235.43,420.13c.93.46,1.31,1.59.84,2.52s-1.59,1.31-2.52.84c-.93-.46-1.31-1.59-.84-2.52s1.59-1.31,2.52-.84Z"/>
        </g>
      </g>
      <g class="cls-1">
        <g>
          <line class="cls-40" x1="355.18" y1="146.91" x2="390.72" y2="86.69"/>
          <path class="cls-55" d="m356.85,147.78c-.53.89-1.68,1.19-2.57.66s-1.19-1.68-.66-2.57c.53-.89,1.68-1.19,2.57-.66s1.19,1.68.66,2.57Z"/>
        </g>
      </g>
      <g class="cls-1">
        <g>
          <line class="cls-40" x1="222.77" y1="453.35" x2="229.24" y2="479.46"/>
          <path class="cls-55" d="m227.4,479.82c.25,1.01,1.27,1.62,2.28,1.37,1.01-.25,1.62-1.27,1.37-2.28-.25-1.01-1.27-1.62-2.28-1.37-1.01.25-1.62,1.27-1.37,2.28Z"/>
        </g>
      </g>
      <g class="cls-1">
        <g>
          <line class="cls-40" x1="382.15" y1="250.86" x2="415.85" y2="151.69"/>
          <path class="cls-55" d="m383.96,251.37c-.33.98-1.4,1.51-2.38,1.17s-1.51-1.4-1.17-2.38c.33-.98,1.4-1.51,2.38-1.17.98.33,1.51,1.4,1.17,2.38Z"/>
        </g>
      </g>
      <g class="cls-1">
        <g>
          <line class="cls-40" x1="249.72" y1="439.02" x2="286.27" y2="446.92"/>
          <path class="cls-55" d="m249.41,440.88c-1.01-.22-1.66-1.22-1.44-2.23s1.22-1.66,2.23-1.44c1.01.22,1.66,1.22,1.44,2.23-.22,1.01-1.22,1.66-2.23,1.44Z"/>
        </g>
      </g>
      <g class="cls-1">
        <g>
          <line class="cls-40" x1="245.67" y1="406.49" x2="256.67" y2="425.35"/>
          <path class="cls-55" d="m244.1,407.52c-.52-.9-.22-2.05.68-2.57s2.05-.22,2.57.68c.52.9.22,2.05-.68,2.57-.9.52-2.05.22-2.57-.68Z"/>
        </g>
      </g>
      <g class="cls-1">
        <g>
          <line class="cls-40" x1="693.54" y1="182.95" x2="670.3" y2="158.43"/>
          <path class="cls-55" d="m694.84,181.59c.71.75.68,1.94-.07,2.66s-1.94.68-2.66-.07c-.71-.75-.68-1.94.07-2.66.75-.71,1.94-.68,2.66.07Z"/>
        </g>
      </g>
      <g class="cls-1">
        <g>
          <line class="cls-40" x1="343.78" y1="160.43" x2="369.67" y2="173.07"/>
          <path class="cls-55" d="m343.04,162.16c-.93-.46-1.32-1.58-.86-2.51s1.58-1.32,2.51-.86c.93.46,1.32,1.58.86,2.51-.46.93-1.58,1.32-2.51.86Z"/>
        </g>
      </g>
    </g>
  </g>
  <g id="Institutions_to_Fade" data-name="Institutions to Fade">
    <g id="Labels">
      <g id="Correctional_institutions_outlineNotHalo">
        <g id="WCCF">
          <polygon class="cls-22" points="562.28 545.39 562.28 538.69 556.64 533.75 550.99 538.69 550.99 545.39 562.28 545.39"/>
        </g>
        <g id="TRCI">
          <polygon class="cls-30" points="647.39 142.31 647.39 135.6 641.74 130.66 636.09 135.6 636.09 142.31 647.39 142.31"/>
        </g>
        <g id="SRCI">
          <polygon class="cls-50" points="823.17 339.37 823.17 332.67 817.52 327.72 811.88 332.67 811.88 339.37 823.17 339.37"/>
        </g>
        <g id="SFFC">
          <polygon class="cls-39" points="319.53 175.49 319.53 168.79 313.88 163.85 308.23 168.79 308.23 175.49 319.53 175.49"/>
        </g>
        <g id="SCI">
          <polygon class="cls-25" points="365.98 247.41 365.98 240.7 360.33 235.76 354.69 240.7 354.69 247.41 365.98 247.41"/>
        </g>
        <g id="SCCI">
          <polygon class="cls-42" points="260.26 397.62 260.26 390.91 254.61 385.97 248.96 390.91 248.96 397.62 260.26 397.62"/>
        </g>
        <g id="PRCF">
          <polygon class="cls-21" points="759.11 263.69 759.11 256.99 753.46 252.04 747.82 256.99 747.82 263.69 759.11 263.69"/>
        </g>
        <g id="DRCI">
          <polygon class="cls-24" points="509.4 284.06 509.4 277.36 503.76 272.42 498.11 277.36 498.11 284.06 509.4 284.06"/>
        </g>
        <g id="MCCF">
          <polygon class="cls-37" points="358.38 265.57 358.38 258.87 352.74 253.92 347.09 258.87 347.09 265.57 358.38 265.57"/>
        </g>
        <g id="CCCF">
          <polygon class="cls-27" points="376.03 204.35 376.03 197.65 370.38 192.71 364.74 197.65 364.74 204.35 376.03 204.35"/>
        </g>
      </g>
      <g id="Correctional_institutions_outlineNotHalo_-_WCCF" data-name="Correctional_institutions_outlineNotHalo - WCCF">
        <polygon class="cls-49" points="579.39 507.47 579.89 513.67 582.09 513.67 586.19 504.97 583.79 504.97 581.49 511.07 581.09 504.97 578.59 504.97 575.79 511.07 575.89 504.97 573.49 504.97 574.19 513.67 576.39 513.67 579.39 507.47"/>
        <path class="cls-49" d="m590.38,509.88c-2.96-.2-4.27.88-4.27,2.2,0,.93.71,1.8,1.84,1.8.88,0,1.49-.47,1.95-1.02h.02c.08.65.7,1.12,2.17.98l.49-1.56c-.42-.03-.49-.17-.41-.6l.34-1.57c.4-1.74-.25-3.08-2.98-3.08-.95,0-1.92.21-2.55.48l.18,1.64c.59-.25,1.37-.48,2.05-.48.93,0,1.35.36,1.21,1.05l-.02.15v.02Zm-.44,2.19c-.22.21-.6.41-.99.41-.46,0-.78-.28-.78-.71,0-.62.69-.92,2.02-.95l-.21,1.25h-.04Z"/>
        <path class="cls-49" d="m596.19,509.84c.53-.55,1.13-.81,1.84-.81.48,0,.9.1,1.27.28l.59-1.99c-.36-.2-.76-.3-1.21-.3-.76,0-1.52.39-2.07,1.04l.22-.99-2.8.31-1.53,6.53h2.67l1.02-4.04v-.02Z"/>
        <path class="cls-49" d="m605.39,513.67l.78-4.21c.04-.2.07-.46.07-.65,0-.97-.63-1.78-1.85-1.78-.77,0-1.59.53-2.17,1.11l.17-1.07-2.2.3-1.2,6.3h2.1l.85-4.16c.33-.39.79-.69,1.24-.69.54,0,.79.28.79.73,0,.17-.04.39-.07.54l-.71,3.57h2.2Z"/>
        <path class="cls-49" d="m609.55,509.88c.2-.92.72-1.46,1.38-1.46.51,0,.82.3.82.83,0,.17-.04.46-.1.61h-2.12s.02.01.02.01Zm-.22.98h4.11c.18-.42.31-1.07.31-1.54,0-1.5-1.06-2.31-2.7-2.31-2.2,0-3.83,1.7-3.83,3.8,0,1.98,1.42,3.09,3.54,3.09.83,0,1.74-.18,2.27-.42l-.27-1.63c-.43.22-1.14.47-1.82.47-.85,0-1.62-.42-1.62-1.32v-.15Z"/>
        <path class="cls-49" d="m617.87,509.74c.49-.53,1.04-.78,1.7-.78.44,0,.83.1,1.17.27l.54-1.92c-.33-.2-.7-.29-1.11-.29-.7,0-1.4.38-1.91,1l.21-.95-2.58.3-1.41,6.3h2.46l.94-3.9-.02-.02Z"/>
        <path class="cls-49" d="m579,519.13c-.93-.32-1.9-.5-2.92-.5-3.42,0-5.22,2.42-5.22,5.12,0,2.43,1.77,3.99,4.55,3.99.79,0,1.71-.14,2.59-.53l-.36-1.85c-.66.28-1.4.49-2.1.49-1.42,0-2.44-.75-2.44-2.37s1.02-2.95,2.94-2.95c.81,0,1.67.2,2.57.54l.42-1.97-.03.03Z"/>
        <path class="cls-49" d="m582.6,523.58c.48-.53,1.01-.78,1.65-.78.43,0,.81.1,1.14.27l.53-1.92c-.32-.2-.68-.29-1.08-.29-.68,0-1.37.38-1.86,1l.24-.95-2.51.3-1.48,6.3h2.51l.91-3.9-.05-.02Z"/>
        <path class="cls-49" d="m588.24,523.72c.2-.92.72-1.46,1.38-1.46.51,0,.82.3.82.83,0,.17-.04.46-.1.61h-2.06s-.04.01-.04.01Zm-.26.98h4.15c.18-.42.31-1.07.31-1.54,0-1.5-1.06-2.31-2.7-2.31-2.2,0-3.83,1.7-3.83,3.8,0,1.98,1.42,3.09,3.54,3.09.83,0,1.74-.18,2.27-.42l-.27-1.63c-.43.22-1.14.47-1.82.47-.85,0-1.62-.42-1.62-1.32v-.1l-.03-.05Z"/>
        <path class="cls-49" d="m596.26,523.72c.2-.92.72-1.46,1.38-1.46.51,0,.82.3.82.83,0,.17-.04.46-.1.61h-2.05s-.05.01-.05.01Zm-.25.98h4.15c.18-.42.31-1.07.31-1.54,0-1.5-1.06-2.31-2.7-2.31-2.2,0-3.83,1.7-3.83,3.8,0,1.98,1.42,3.09,3.54,3.09.83,0,1.74-.18,2.27-.42l-.27-1.63c-.43.22-1.14.47-1.82.47-.85,0-1.62-.42-1.62-1.32v-.1l-.03-.05Z"/>
        <polygon class="cls-49" points="604.53 524.41 605.93 527.51 608.33 527.51 606.63 524.11 609.53 521.11 606.93 521.11 604.63 523.71 605.73 518.11 603.53 518.21 601.73 527.51 603.83 527.51 604.43 524.41 604.53 524.41"/>
        <g>
          <path class="cls-64" d="m576.41,513.7h-2.23l-.66-8.75h2.37l-.04,6.11,2.8-6.11h2.45l.42,6.11,2.34-6.11h2.41l-4.09,8.75h-2.27l-.46-6.25-3.04,6.25Z"/>
          <path class="cls-64" d="m590.17,509.69c.14-.69-.28-1.05-1.22-1.05-.69,0-1.47.22-2.06.48l-.18-1.65c.63-.27,1.61-.48,2.56-.48,2.75,0,3.4,1.34,3,3.1l-.34,1.58c-.08.43-.01.57.41.6l-.49,1.57c-1.49.15-2.1-.32-2.19-.98h-.01c-.46.55-1.08,1.02-1.96,1.02-1.13,0-1.85-.87-1.85-1.81,0-1.33,1.32-2.41,4.3-2.21l.03-.17Zm-.21,1.11c-1.33.03-2.03.34-2.03.95,0,.43.32.71.78.71.39,0,.77-.2.99-.41l.25-1.26Z"/>
          <path class="cls-64" d="m595.58,513.7h-2.16l1.25-6.4,2.21-.27-.18.95c.43-.63,1.04-1.01,1.64-1.01.35,0,.67.1.95.29l-.46,1.93c-.29-.17-.63-.27-1.01-.27-.56,0-1.04.25-1.46.78l-.78,3.98Z"/>
          <path class="cls-64" d="m603.33,513.7l.7-3.63c.03-.15.07-.38.07-.55,0-.46-.25-.74-.8-.74-.45,0-.91.31-1.25.7l-.81,4.22h-2.17l1.23-6.4,2.23-.27-.2,1.06c.59-.59,1.42-1.12,2.19-1.12,1.23,0,1.86.81,1.86,1.79,0,.2-.03.46-.07.66l-.83,4.27h-2.16Z"/>
          <path class="cls-64" d="m609.81,510.99c0,.91.77,1.33,1.62,1.33.69,0,1.4-.25,1.83-.48l.27,1.64c-.53.24-1.44.42-2.28.42-2.13,0-3.56-1.12-3.56-3.11,0-2.12,1.64-3.82,3.85-3.82,1.65,0,2.72.81,2.72,2.33,0,.48-.13,1.12-.31,1.55l-4.15.04v.1Zm2.34-1.15c.06-.15.1-.45.1-.62,0-.53-.31-.84-.83-.84-.66,0-1.19.55-1.39,1.47h2.12Z"/>
          <path class="cls-64" d="m617.24,513.7h-2.16l1.25-6.4,2.21-.27-.18.95c.43-.63,1.04-1.01,1.64-1.01.35,0,.67.1.95.29l-.46,1.93c-.29-.17-.63-.27-1.01-.27-.56,0-1.04.25-1.46.78l-.78,3.98Z"/>
          <path class="cls-64" d="m578.66,521.04c-.91-.35-1.78-.55-2.59-.55-1.93,0-2.96,1.33-2.96,2.97s1.02,2.38,2.45,2.38c.71,0,1.46-.21,2.12-.49l.36,1.86c-.88.39-1.81.53-2.61.53-2.8,0-4.58-1.57-4.58-4.02,0-2.72,1.81-5.15,5.25-5.15,1.02,0,2,.18,2.94.5l-.39,1.96Z"/>
          <path class="cls-64" d="m581.5,527.54h-2.16l1.25-6.4,2.21-.27-.18.95c.43-.63,1.04-1.01,1.64-1.01.35,0,.67.1.95.29l-.46,1.93c-.29-.17-.63-.27-1.01-.27-.56,0-1.04.25-1.46.78l-.79,3.98Z"/>
          <path class="cls-64" d="m588.01,524.83c0,.91.77,1.33,1.62,1.33.69,0,1.4-.25,1.83-.48l.27,1.64c-.53.24-1.44.42-2.28.42-2.13,0-3.56-1.12-3.56-3.11,0-2.12,1.64-3.82,3.85-3.82,1.65,0,2.72.81,2.72,2.33,0,.48-.13,1.12-.31,1.55l-4.15.04v.1Zm2.34-1.15c.06-.15.1-.45.1-.62,0-.53-.31-.84-.83-.84-.66,0-1.19.55-1.39,1.47h2.12Z"/>
          <path class="cls-64" d="m596.03,524.83c0,.91.77,1.33,1.62,1.33.69,0,1.4-.25,1.83-.48l.27,1.64c-.53.24-1.44.42-2.28.42-2.13,0-3.56-1.12-3.56-3.11,0-2.12,1.64-3.82,3.85-3.82,1.65,0,2.72.81,2.72,2.33,0,.48-.13,1.12-.31,1.55l-4.15.04v.1Zm2.34-1.15c.06-.15.1-.45.1-.62,0-.53-.31-.84-.83-.84-.66,0-1.19.55-1.39,1.47h2.12Z"/>
          <path class="cls-64" d="m604.48,524.37l-.6,3.17h-2.16l1.82-9.34,2.2-.18-1.12,5.67h.03l2.34-2.66h2.56l-2.94,3.05,1.76,3.46h-2.38l-1.49-3.17h-.03Z"/>
        </g>
      </g>
      <g id="Correctional_institutions_outlineNotHalo_-_TRCI" data-name="Correctional_institutions_outlineNotHalo - TRCI">
        <polygon class="cls-35" points="659.27 108.7 659.57 106.8 651.87 106.8 651.47 108.7 654.27 108.7 652.97 115.5 655.17 115.5 656.47 108.7 659.27 108.7"/>
        <polygon class="cls-35" points="662.19 115.6 664.29 111.3 664.59 115.6 666.69 115.6 669.69 109.1 667.49 109.1 665.99 113 665.69 109.1 663.69 109.1 661.79 113.1 661.79 109.1 659.69 109.1 660.19 115.6 662.19 115.6"/>
        <path class="cls-35" d="m674.69,111.83c0,1.24-.6,2.38-1.58,2.38-.74,0-1.17-.53-1.17-1.41,0-1.04.54-2.38,1.61-2.38.71,0,1.13.53,1.13,1.4Zm2.16.13c0-1.84-1.31-3.09-3.23-3.09-2.27,0-3.8,1.72-3.8,3.81,0,1.9,1.35,3.08,3.26,3.08,2.27,0,3.77-1.71,3.77-3.8Z"/>
        <path class="cls-35" d="m651.66,124.76l.47-2.41h.94c.8,0,1.43.35,1.43,1.08,0,1-.89,1.32-1.89,1.33h-.95Zm-.3,1.69l1-.1,1.1,2.9h2.4l-1.38-3.28c2.77,1.68,2.31-1.31,2.31-2.81s-1.21-2.55-3.21-2.55l-3.32.04-1.7,8.6h2.2l.6-2.8Z"/>
        <path class="cls-35" d="m659.67,129.4l1.3-6.5-2.2.1-1.2,6.4h2.1Zm1.89-8.49c0-.75-.47-1.16-1.25-1.16s-1.28.41-1.28,1.16.49,1.14,1.27,1.14,1.26-.4,1.26-1.14Z"/>
        <polygon class="cls-35" points="669.28 122.94 667.08 122.94 664.88 127.14 664.38 122.94 662.18 122.94 663.38 129.44 665.58 129.44 669.28 122.94"/>
        <path class="cls-35" d="m671.58,125.67c.2-.92.72-1.46,1.38-1.46.51,0,.82.3.82.83,0,.17-.04.46-.1.61l-2.08-.02-.02.03Zm-.18,1.07l4.07-.08c.18-.43.31-1.07.31-1.54,0-1.5-1.06-2.31-2.7-2.31-2.2,0-3.83,1.7-3.83,3.8,0,1.98,1.42,3.09,3.54,3.09.83,0,1.74-.18,2.27-.42l-.27-1.63c-.43.22-1.14.47-1.82.47-.85,0-1.62-.42-1.62-1.32v-.1l.05.04Z"/>
        <path class="cls-35" d="m679.7,125.45c.49-.53,1.05-.78,1.71-.78.44,0,.84.1,1.18.27l.55-1.92c-.33-.2-.71-.29-1.12-.29-.71,0-1.42.38-1.93,1l.26-.97-2.6.3-1.54,6.3h2.6l.83-3.9h.05Z"/>
        <path class="cls-35" d="m688.24,127.48c0-1.06-.57-1.57-2.03-1.99-.74-.24-1.07-.35-1.07-.65s.29-.49.68-.49c.77,0,1.64.3,2.51.79l.45-1.67c-.8-.42-1.91-.67-2.87-.67-1.77,0-2.82.93-2.82,2.19,0,1,.58,1.57,2.04,1.95.74.23,1.07.38,1.07.7s-.33.53-.75.53c-.76,0-1.77-.35-2.56-.79l-.43,1.67c.78.4,1.93.65,2.91.65,1.81,0,2.88-.95,2.88-2.21Z"/>
        <g>
          <path class="cls-76" d="m656.53,108.66l-1.34,6.88h-2.23l1.34-6.88h-2.8l.36-1.88h7.8l-.35,1.88h-2.79Z"/>
          <path class="cls-76" d="m660.15,115.57l-.53-6.54h2.13l.06,4.05,1.89-4.06h2.03l.29,3.99,1.53-3.98h2.21l-3.11,6.54h-2.06l-.32-4.26-2.07,4.26h-2.04Z"/>
          <path class="cls-76" d="m673.09,115.75c-1.92,0-3.28-1.18-3.28-3.1,0-2.1,1.54-3.84,3.82-3.84,1.93,0,3.25,1.26,3.25,3.11,0,2.1-1.51,3.82-3.8,3.82Zm.49-5.36c-1.08,0-1.62,1.34-1.62,2.39,0,.88.43,1.42,1.18,1.42.98,0,1.58-1.15,1.58-2.4,0-.88-.42-1.41-1.13-1.41Z"/>
          <path class="cls-76" d="m650.77,129.44h-2.21l1.7-8.74h3.31c2.02,0,3.24,1.11,3.24,2.56s-1.01,2.47-2.33,2.83l1.39,3.35h-2.37l-1.16-2.97-.99.08-.56,2.89Zm1.82-4.57c1.01-.01,1.91-.34,1.91-1.34,0-.74-.64-1.09-1.44-1.09h-.95l-.52,2.45h1.01Z"/>
          <path class="cls-76" d="m657.53,129.44l1.25-6.44,2.2-.18-1.29,6.63h-2.16Zm2.76-7.44c-.79,0-1.28-.41-1.28-1.15s.5-1.16,1.29-1.16,1.26.41,1.26,1.16-.49,1.15-1.27,1.15Z"/>
          <path class="cls-76" d="m665.54,129.45h-2.24l-1.13-6.53h2.19l.5,4.22,2.17-4.22h2.27l-3.75,6.53Z"/>
          <path class="cls-76" d="m671.35,126.74c0,.91.77,1.33,1.62,1.33.69,0,1.4-.25,1.83-.48l.27,1.64c-.53.24-1.44.42-2.28.42-2.13,0-3.56-1.12-3.56-3.11,0-2.12,1.64-3.82,3.85-3.82,1.65,0,2.72.81,2.72,2.33,0,.48-.13,1.12-.31,1.55l-4.15.04v.1Zm2.34-1.15c.06-.15.1-.45.1-.62,0-.53-.31-.84-.83-.84-.66,0-1.19.55-1.39,1.47h2.12Z"/>
          <path class="cls-76" d="m678.74,129.44h-2.16l1.25-6.4,2.21-.27-.18.95c.43-.63,1.04-1.01,1.64-1.01.35,0,.67.1.95.29l-.46,1.93c-.29-.17-.63-.27-1.01-.27-.56,0-1.04.25-1.46.78l-.79,3.98Z"/>
          <path class="cls-76" d="m685.36,129.71c-.98,0-2.14-.25-2.93-.66l.43-1.68c.8.45,1.81.8,2.58.8.42,0,.76-.2.76-.53s-.34-.48-1.08-.7c-1.47-.38-2.06-.95-2.06-1.96,0-1.26,1.06-2.2,2.84-2.2.97,0,2.09.25,2.89.67l-.45,1.68c-.87-.49-1.75-.8-2.52-.8-.39,0-.69.18-.69.49s.34.42,1.08.66c1.47.42,2.04.94,2.04,2,0,1.28-1.08,2.23-2.9,2.23Z"/>
        </g>
      </g>
      <g id="Correctional_institutions_outlineNotHalo_-_SRCI" data-name="Correctional_institutions_outlineNotHalo - SRCI">
        <path class="cls-33" d="m830.74,310.17c-.72,0-1.96-.35-2.92-.86l-.41,1.93c.72.38,2.08.76,3.38.76,2.2,0,3.68-1.07,3.68-2.94,0-1.27-.99-1.91-2.3-2.41-1.25-.49-1.64-.66-1.64-1.11s.43-.79,1.24-.79,1.96.33,2.83.78l.39-1.94c-.7-.35-1.89-.69-3.28-.69-1.91,0-3.41.99-3.41,2.76,0,1.42,1.14,2.06,2.31,2.53,1.27.5,1.63.71,1.63,1.16,0,.5-.47.82-1.49.82Z"/>
        <path class="cls-33" d="m841.93,311.79l.82-4.24c.04-.2.07-.46.07-.65,0-.98-.63-1.78-1.85-1.78-.77,0-1.59.53-2.17,1.11l.24-1.04-2.3.2-1.2,6.4h2.2l.79-4.18c.33-.39.79-.69,1.24-.69.54,0,.79.28.79.74,0,.17-.04.39-.07.54l-.65,3.6h2.1Z"/>
        <path class="cls-33" d="m848.2,307.99c-2.96-.2-4.27.88-4.27,2.2,0,.93.71,1.8,1.84,1.8.88,0,1.49-.47,1.95-1.02h.01c.08.65.7,1.12,2.17.98l.49-1.56c-.42-.03-.49-.17-.41-.6l.34-1.57c.4-1.74-.25-3.08-2.98-3.08-.95,0-1.92.21-2.55.48l.18,1.64c.59-.25,1.37-.48,2.05-.48.93,0,1.35.36,1.21,1.05l-.04.17h0Zm-.43,2.18c-.22.21-.6.4-.99.4-.46,0-.78-.28-.78-.71,0-.61.69-.92,2.02-.95l-.23,1.27-.03-.02Z"/>
        <polygon class="cls-33" points="854.31 308.69 855.71 311.79 858.11 311.79 856.31 308.39 859.31 305.29 856.71 305.29 854.41 307.99 855.51 302.29 853.31 302.49 851.51 311.79 853.61 311.79 854.21 308.69 854.31 308.69"/>
        <path class="cls-33" d="m861.11,307.99c.2-.92.72-1.46,1.38-1.46.51,0,.82.3.82.83,0,.17-.04.46-.1.62l-2.11.02h.01Zm-.21,1l4.11-.02c.18-.43.31-1.07.31-1.55,0-1.5-1.06-2.31-2.7-2.31-2.2,0-3.82,1.7-3.82,3.8,0,1.98,1.42,3.09,3.54,3.09.83,0,1.74-.18,2.27-.42l-.27-1.63c-.43.22-1.14.47-1.82.47-.85,0-1.62-.42-1.62-1.32v-.12Z"/>
        <path class="cls-33" d="m827.58,321.3l.54-2.45h.99c.83,0,1.5.35,1.5,1.08,0,1-.93,1.32-1.98,1.33l-1.04.03Zm-.31,1.6h1.05l1.25,2.9h2.4l-1.4-3.32c1.37-.36,2.41-1.31,2.41-2.81s-1.27-2.55-3.36-2.55l-3.41-.02-1.78,8.7h2.3l.52-2.9Z"/>
        <path class="cls-33" d="m835.59,325.8l1.3-6.6-2.2.2-1.3,6.4h2.2Zm1.84-8.52c0-.75-.47-1.15-1.25-1.15s-1.28.4-1.28,1.15.49,1.14,1.27,1.14,1.26-.4,1.26-1.14Z"/>
        <polygon class="cls-33" points="845.23 319.3 842.93 319.3 840.73 323.5 840.23 319.3 838.13 319.3 839.23 325.8 841.43 325.8 845.23 319.3"/>
        <path class="cls-33" d="m847.18,322c.2-.92.72-1.46,1.38-1.46.51,0,.82.3.82.83,0,.17-.04.46-.1.62l-2.12.02h.02Zm-.22,1l4.12-.02c.18-.43.31-1.07.31-1.55,0-1.5-1.06-2.31-2.7-2.31-2.2,0-3.83,1.7-3.83,3.8,0,1.98,1.42,3.09,3.54,3.09.83,0,1.74-.18,2.27-.42l-.27-1.63c-.43.22-1.14.47-1.82.47-.85,0-1.62-.42-1.62-1.32v-.12Z"/>
        <path class="cls-33" d="m854.88,321.86c.42-.53.89-.78,1.45-.78.38,0,.71.1,1,.27l.46-1.92c-.28-.2-.6-.29-.95-.29-.6,0-1.2.38-1.63,1l.18-.93-2.2.2-1.2,6.4h2.1l.8-3.9v-.04Z"/>
        <g>
          <path class="cls-67" d="m832.26,309.33c0-.45-.36-.66-1.64-1.16-1.18-.48-2.33-1.12-2.33-2.55,0-1.78,1.51-2.77,3.43-2.77,1.4,0,2.61.35,3.31.7l-.39,1.95c-.87-.45-2.04-.78-2.84-.78s-1.25.34-1.25.8.39.63,1.65,1.12c1.32.5,2.31,1.15,2.31,2.42,0,1.88-1.48,2.96-3.7,2.96-1.32,0-2.68-.39-3.4-.77l.41-1.95c.97.52,2.21.87,2.94.87,1.02,0,1.5-.32,1.5-.83Z"/>
          <path class="cls-67" d="m839.78,311.8l.7-3.63c.03-.15.07-.38.07-.55,0-.46-.25-.74-.8-.74-.45,0-.91.31-1.25.7l-.81,4.22h-2.17l1.23-6.4,2.23-.27-.2,1.07c.59-.59,1.41-1.12,2.18-1.12,1.23,0,1.86.81,1.86,1.79,0,.2-.03.46-.07.66l-.83,4.27h-2.16Z"/>
          <path class="cls-67" d="m848.23,307.79c.14-.69-.28-1.05-1.22-1.05-.69,0-1.47.22-2.06.48l-.18-1.65c.63-.27,1.61-.48,2.56-.48,2.75,0,3.4,1.34,3,3.1l-.34,1.58c-.08.43-.01.57.41.6l-.49,1.57c-1.49.15-2.1-.32-2.19-.98h-.01c-.46.55-1.08,1.02-1.96,1.02-1.13,0-1.85-.87-1.85-1.81,0-1.33,1.32-2.41,4.3-2.21l.03-.17Zm-.21,1.11c-1.33.03-2.03.34-2.03.95,0,.43.32.71.78.71.39,0,.77-.2.99-.41l.25-1.26Z"/>
          <path class="cls-67" d="m854.25,308.63l-.6,3.17h-2.16l1.82-9.34,2.2-.18-1.12,5.67h.03l2.34-2.66h2.56l-2.94,3.05,1.77,3.46h-2.38l-1.48-3.17h-.03Z"/>
          <path class="cls-67" d="m860.72,309.1c0,.91.77,1.33,1.62,1.33.69,0,1.4-.25,1.83-.48l.27,1.64c-.53.24-1.44.42-2.28.42-2.13,0-3.56-1.12-3.56-3.11,0-2.12,1.64-3.82,3.85-3.82,1.65,0,2.72.81,2.72,2.33,0,.48-.13,1.12-.31,1.55l-4.15.04v.1Zm2.34-1.15c.06-.15.1-.45.1-.62,0-.53-.31-.84-.83-.84-.66,0-1.19.55-1.39,1.47h2.12Z"/>
          <path class="cls-67" d="m826.63,325.81h-2.21l1.7-8.74h3.31c2.02,0,3.24,1.11,3.24,2.56s-1.01,2.47-2.33,2.83l1.39,3.35h-2.37l-1.16-2.97-.99.08-.56,2.89Zm1.82-4.57c1.01-.01,1.91-.34,1.91-1.34,0-.74-.64-1.09-1.44-1.09h-.95l-.52,2.45h1.01Z"/>
          <path class="cls-67" d="m833.39,325.81l1.25-6.44,2.2-.18-1.29,6.63h-2.16Zm2.76-7.44c-.78,0-1.27-.41-1.27-1.15s.5-1.16,1.29-1.16,1.26.41,1.26,1.16-.49,1.15-1.28,1.15Z"/>
          <path class="cls-67" d="m841.49,325.82h-2.24l-1.13-6.53h2.19l.5,4.22,2.17-4.22h2.27l-3.75,6.53Z"/>
          <path class="cls-67" d="m846.95,323.11c0,.91.77,1.33,1.62,1.33.69,0,1.4-.25,1.83-.48l.27,1.64c-.53.24-1.44.42-2.28.42-2.13,0-3.56-1.12-3.56-3.11,0-2.12,1.64-3.82,3.85-3.82,1.65,0,2.72.81,2.72,2.33,0,.48-.13,1.12-.31,1.55l-4.15.04v.1Zm2.34-1.15c.06-.15.1-.45.1-.62,0-.53-.31-.84-.83-.84-.66,0-1.19.55-1.39,1.47h2.12Z"/>
          <path class="cls-67" d="m854.12,325.81h-2.16l1.25-6.4,2.21-.27-.18.95c.43-.63,1.04-1.01,1.64-1.01.35,0,.67.1.95.29l-.46,1.93c-.29-.17-.63-.27-1.01-.27-.56,0-1.04.25-1.46.78l-.78,3.98Z"/>
        </g>
      </g>
      <g id="Correctional_institutions_outlineNotHalo_-_SFFC" data-name="Correctional_institutions_outlineNotHalo - SFFC">
        <path class="cls-45" d="m228.68,140.54c-.72,0-1.96-.35-2.92-.86l-.4,1.93c.72.38,2.08.77,3.38.77,2.2,0,3.68-1.07,3.68-2.94,0-1.27-.99-1.91-2.3-2.41-1.25-.49-1.64-.66-1.64-1.11s.43-.79,1.24-.79,1.96.33,2.83.78l.39-1.94c-.7-.35-1.89-.69-3.29-.69-1.91,0-3.41.99-3.41,2.76,0,1.42,1.14,2.06,2.31,2.53,1.27.5,1.63.71,1.63,1.16,0,.5-.47.82-1.49.82Z"/>
        <path class="cls-45" d="m238.78,138.47c0,1.24-.6,2.38-1.57,2.38-.74,0-1.17-.53-1.17-1.41,0-1.04.54-2.38,1.61-2.38.71,0,1.13.53,1.13,1.4Zm2.16.13c0-1.84-1.31-3.09-3.23-3.09-2.27,0-3.8,1.72-3.8,3.81,0,1.91,1.35,3.08,3.26,3.08,2.27,0,3.77-1.71,3.77-3.8Z"/>
        <path class="cls-45" d="m242.91,135.78l-.75,4.09c-.04.27-.08.6-.08.85,0,.97.55,1.71,1.82,1.71.78,0,1.62-.54,2.12-1.08l-.2,1.04,2.2-.2,1.2-6.4h-2.1l-.85,4.3c-.29.32-.71.55-1.12.55-.56,0-.8-.28-.8-.73,0-.17.04-.39.07-.54l.69-3.57h-2.2Z"/>
        <path class="cls-45" d="m254.74,140.55c-.22.09-.46.14-.68.14-.51,0-.78-.15-.78-.57,0-.14.04-.29.07-.4l.51-2.26h1.8l.1-1.6h-1.4l.3-1.6h-2.1l-.3,1.5-1.2.3-.1,1.4h.9l-.56,2.5c-.06.22-.1.45-.1.67,0,1.21.96,1.78,2.14,1.78.63,0,1.21-.1,1.64-.22l-.23-1.63h-.02Z"/>
        <path class="cls-45" d="m262.89,142.18l.79-4.26c.03-.2.06-.38.06-.57,0-1.02-.63-1.8-1.85-1.8-.77,0-1.5.45-2.17,1.1l.78-3.87-2.2.2-1.8,9.2h2.1l.86-4.21c.33-.38.73-.64,1.2-.64.56,0,.82.26.82.76,0,.14-.03.3-.06.46l-.72,3.62h2.2Z"/>
        <polygon class="cls-45" points="270.43 142.18 272.63 142.18 273.23 138.98 276.63 138.98 276.93 137.18 273.63 137.18 273.93 135.38 278.03 135.38 278.33 133.48 272.13 133.48 270.43 142.18"/>
        <path class="cls-45" d="m283.01,138.5c0,1.24-.6,2.38-1.58,2.38-.73,0-1.17-.53-1.17-1.41,0-1.04.54-2.38,1.61-2.38.71,0,1.13.53,1.13,1.4Zm2.16.13c0-1.84-1.31-3.09-3.23-3.09-2.27,0-3.8,1.72-3.8,3.81,0,1.91,1.35,3.08,3.26,3.08,2.27,0,3.77-1.71,3.77-3.8Z"/>
        <path class="cls-45" d="m288.76,138.26c.42-.53.89-.78,1.45-.78.38,0,.71.1,1,.27l.46-1.92c-.28-.2-.6-.29-.95-.29-.6,0-1.2.38-1.63,1l.23-.96-2.2.3-1.3,6.3h2.2l.7-3.9.04-.02Z"/>
        <polygon class="cls-45" points="294.49 139.08 295.99 142.18 298.29 142.18 296.59 138.78 299.49 135.78 296.99 135.78 294.59 138.38 295.69 132.78 293.49 132.98 291.69 142.18 293.89 142.18 294.49 139.08"/>
        <polygon class="cls-45" points="223.29 155.88 225.49 155.88 226.19 152.68 229.49 152.68 229.79 150.88 226.49 150.88 226.89 149.08 230.89 149.08 231.19 147.18 224.99 147.18 223.29 155.88"/>
        <path class="cls-45" d="m235.75,152.19c0,1.24-.6,2.38-1.57,2.38-.74,0-1.17-.53-1.17-1.41,0-1.04.54-2.38,1.61-2.38.71,0,1.13.53,1.13,1.4Zm2.16.13c0-1.84-1.31-3.09-3.23-3.09-2.27,0-3.8,1.73-3.8,3.81,0,1.9,1.35,3.07,3.26,3.07,2.27,0,3.77-1.71,3.77-3.8Z"/>
        <path class="cls-45" d="m241.59,151.96c.42-.53.89-.78,1.45-.78.38,0,.71.1,1,.27l.46-1.92c-.28-.2-.6-.29-.95-.29-.6,0-1.2.38-1.63,1l.21-.95-2.2.3-1.3,6.3h2.2l.8-3.9-.05-.02Z"/>
        <path class="cls-45" d="m247.35,152.1c.19-.92.72-1.46,1.38-1.46.51,0,.82.3.82.83,0,.17-.04.46-.1.62h-2.05s-.05.01-.05.01Zm-.25.99h4.15c.18-.43.31-1.07.31-1.54,0-1.5-1.06-2.31-2.7-2.31-2.2,0-3.83,1.7-3.83,3.8,0,1.98,1.42,3.09,3.54,3.09.83,0,1.74-.18,2.27-.42l-.27-1.63c-.43.22-1.14.47-1.82.47-.85,0-1.62-.42-1.62-1.32v-.1l-.03-.05Z"/>
        <path class="cls-45" d="m257.99,153.91c0-1.06-.57-1.57-2.03-1.99-.74-.24-1.07-.35-1.07-.65s.29-.49.68-.49c.76,0,1.64.3,2.5.79l.45-1.67c-.79-.42-1.91-.67-2.87-.67-1.77,0-2.82.93-2.82,2.19,0,1,.58,1.57,2.04,1.95.74.22,1.07.38,1.07.7s-.33.53-.75.53c-.76,0-1.77-.35-2.56-.8l-.43,1.67c.78.4,1.93.65,2.91.65,1.81,0,2.88-.94,2.88-2.21Z"/>
        <path class="cls-45" d="m263.31,154.27c-.22.09-.46.14-.68.14-.51,0-.78-.15-.78-.57,0-.14.04-.29.07-.4l.48-2.25h1.9v-1.6h-1.4l.3-1.6h-2l-.4,1.5-1.2.3v1.4h.8l-.52,2.49c-.06.22-.1.45-.1.67,0,1.21.96,1.78,2.14,1.78.63,0,1.21-.1,1.64-.22l-.26-1.62h.01Z"/>
        <path class="cls-45" d="m279.06,147.51c-.93-.32-1.91-.5-2.92-.5-3.42,0-5.22,2.42-5.22,5.12,0,2.43,1.77,3.99,4.55,3.99.79,0,1.71-.14,2.59-.53l-.36-1.85c-.66.28-1.4.49-2.1.49-1.42,0-2.44-.75-2.44-2.37s1.02-2.95,2.94-2.95c.81,0,1.67.2,2.57.54l.38-1.97v.02Z"/>
        <path class="cls-45" d="m283.63,152.1c-2.96-.2-4.27.88-4.27,2.2,0,.93.71,1.8,1.84,1.8.88,0,1.49-.47,1.95-1.02h.02c.08.65.7,1.12,2.17.98l.49-1.56c-.42-.03-.49-.17-.4-.6l.34-1.57c.4-1.74-.25-3.08-2.98-3.08-.95,0-1.92.21-2.55.48l.18,1.64c.58-.25,1.36-.48,2.05-.48.93,0,1.35.36,1.21,1.05v.15s-.03.01-.03.01Zm-.43,2.19c-.22.21-.6.4-.99.4-.46,0-.78-.28-.78-.71,0-.61.69-.92,2.02-.95l-.3,1.25h.04Z"/>
        <path class="cls-45" d="m297.55,155.88l.81-4.22c.04-.2.07-.47.07-.65,0-.99-.63-1.78-1.85-1.78-.81,0-1.75.6-2.3,1.22-.24-.76-.86-1.22-1.81-1.22-.71,0-1.47.45-2.02.98l.2-.92-2.2.3-1.2,6.3h2.1l.86-4.37c.27-.27.64-.49,1.06-.49.54,0,.8.28.8.72,0,.17-.04.4-.07.56l-.74,3.58h2.2l.8-4.13s.01-.1.03-.13c0-.01.02-.08.02-.11.29-.28.65-.49,1.06-.49.54,0,.81.28.81.72,0,.17-.06.4-.08.56l-.72,3.58h2.2Z"/>
        <path class="cls-45" d="m302.43,151.23c.26-.2.57-.39,1.03-.39.66,0,1.15.54,1.15,1.45,0,1.14-.65,2.26-1.67,2.26-.47,0-.84-.23-1.1-.47l.59-2.79v-.05Zm.2-1.25l.2-.7-2.3.3-1.7,9.2h2.1l.58-3.08c.45.22.96.4,1.56.4,2.1,0,3.72-1.68,3.72-4.01,0-1.78-1.06-2.86-2.38-2.86-.79,0-1.32.36-1.75.72l-.03.03Z"/>
        <g>
          <path class="cls-68" d="m230.2,139.75c0-.45-.36-.66-1.64-1.16-1.18-.48-2.33-1.12-2.33-2.55,0-1.78,1.51-2.77,3.43-2.77,1.4,0,2.61.35,3.31.7l-.39,1.95c-.87-.45-2.04-.78-2.84-.78s-1.25.34-1.25.8.39.63,1.65,1.12c1.32.5,2.31,1.15,2.31,2.42,0,1.88-1.48,2.96-3.7,2.96-1.32,0-2.68-.39-3.4-.77l.41-1.95c.97.52,2.21.87,2.94.87,1.02,0,1.5-.32,1.5-.83Z"/>
          <path class="cls-68" d="m237.16,142.42c-1.92,0-3.28-1.18-3.28-3.1,0-2.1,1.54-3.84,3.82-3.84,1.93,0,3.25,1.26,3.25,3.11,0,2.1-1.51,3.82-3.8,3.82Zm.49-5.36c-1.08,0-1.62,1.34-1.62,2.39,0,.88.43,1.42,1.18,1.42.98,0,1.58-1.15,1.58-2.4,0-.88-.42-1.41-1.13-1.41Z"/>
          <path class="cls-68" d="m245.34,135.7l-.7,3.63c-.03.15-.07.38-.07.55,0,.46.24.74.8.74.42,0,.84-.24,1.13-.56l.84-4.36h2.16l-1.26,6.46-2.2.27.21-1.09c-.5.55-1.34,1.09-2.13,1.09-1.27,0-1.83-.74-1.83-1.72,0-.25.04-.59.08-.85l.8-4.15h2.17Z"/>
          <path class="cls-68" d="m255,142.2c-.43.13-1.02.22-1.65.22-1.19,0-2.16-.57-2.16-1.79,0-.22.04-.45.1-.67l.57-2.48-.87-.07.04-1.37,1.2-.32.35-1.48h2.09l-.34,1.57h1.4l-.04,1.68h-1.85l-.5,2.24c-.03.11-.07.27-.07.41,0,.42.27.57.78.57.22,0,.46-.06.69-.14l.25,1.64Z"/>
          <path class="cls-68" d="m260.71,142.21l.71-3.68c.03-.15.06-.32.06-.46,0-.5-.27-.77-.83-.77-.46,0-.87.27-1.2.64l-.83,4.27h-2.17l1.82-9.34,2.2-.18-.76,3.92c.67-.66,1.41-1.11,2.19-1.11,1.23,0,1.86.79,1.86,1.81,0,.2-.03.38-.06.57l-.84,4.33h-2.16Z"/>
          <path class="cls-68" d="m272.07,133.46h6.26l-.35,1.83h-4.06l-.35,1.81h3.33l-.35,1.82h-3.33l-.64,3.29h-2.2l1.7-8.75Z"/>
          <path class="cls-68" d="m281.39,142.42c-1.92,0-3.28-1.18-3.28-3.1,0-2.1,1.54-3.84,3.82-3.84,1.93,0,3.25,1.26,3.25,3.11,0,2.1-1.51,3.82-3.8,3.82Zm.49-5.36c-1.08,0-1.62,1.34-1.62,2.39,0,.88.43,1.42,1.18,1.42.98,0,1.58-1.15,1.58-2.4,0-.88-.42-1.41-1.13-1.41Z"/>
          <path class="cls-68" d="m287.96,142.21h-2.16l1.25-6.4,2.21-.27-.18.95c.43-.63,1.04-1.01,1.64-1.01.35,0,.67.1.95.29l-.46,1.93c-.29-.17-.63-.27-1.01-.27-.56,0-1.04.25-1.46.78l-.78,3.98Z"/>
          <path class="cls-68" d="m294.44,139.05l-.6,3.17h-2.16l1.82-9.34,2.2-.18-1.12,5.67h.03l2.34-2.66h2.56l-2.94,3.05,1.76,3.46h-2.38l-1.48-3.17h-.03Z"/>
        </g>
        <g>
          <path class="cls-68" d="m225.03,147.15h6.26l-.35,1.83h-4.06l-.35,1.81h3.33l-.35,1.82h-3.33l-.64,3.29h-2.2l1.7-8.75Z"/>
          <path class="cls-68" d="m234.13,156.12c-1.92,0-3.28-1.18-3.28-3.1,0-2.1,1.54-3.84,3.82-3.84,1.93,0,3.25,1.26,3.25,3.11,0,2.1-1.51,3.82-3.8,3.82Zm.49-5.37c-1.08,0-1.62,1.35-1.62,2.4,0,.88.43,1.42,1.18,1.42.98,0,1.58-1.15,1.58-2.4,0-.88-.42-1.42-1.13-1.42Z"/>
          <path class="cls-68" d="m240.8,155.91h-2.16l1.25-6.4,2.21-.27-.18.95c.43-.63,1.04-1.01,1.64-1.01.35,0,.67.1.95.29l-.46,1.93c-.29-.17-.63-.27-1.01-.27-.56,0-1.04.25-1.46.78l-.78,3.98Z"/>
          <path class="cls-68" d="m247.12,153.21c0,.91.77,1.33,1.62,1.33.69,0,1.4-.25,1.83-.48l.27,1.64c-.53.24-1.44.42-2.28.42-2.13,0-3.56-1.12-3.56-3.11,0-2.12,1.64-3.82,3.85-3.82,1.65,0,2.72.81,2.72,2.33,0,.48-.13,1.12-.31,1.55l-4.15.04v.1Zm2.34-1.15c.06-.15.1-.45.1-.62,0-.53-.31-.84-.83-.84-.66,0-1.19.55-1.39,1.47h2.12Z"/>
          <path class="cls-68" d="m255.11,156.12c-.98,0-2.14-.25-2.93-.66l.43-1.68c.8.45,1.81.8,2.58.8.42,0,.76-.2.76-.53s-.34-.48-1.08-.7c-1.47-.38-2.06-.95-2.06-1.96,0-1.26,1.06-2.2,2.84-2.2.97,0,2.09.25,2.89.67l-.45,1.68c-.87-.49-1.75-.8-2.52-.8-.39,0-.69.18-.69.49s.34.42,1.08.66c1.47.42,2.04.94,2.04,2,0,1.27-1.08,2.23-2.9,2.23Z"/>
          <path class="cls-68" d="m263.58,155.9c-.43.13-1.02.22-1.65.22-1.19,0-2.16-.57-2.16-1.79,0-.22.04-.45.1-.67l.57-2.48-.87-.07.04-1.37,1.2-.32.35-1.49h2.09l-.34,1.57h1.4l-.04,1.68h-1.85l-.5,2.24c-.03.11-.07.27-.07.41,0,.42.27.57.78.57.22,0,.46-.06.69-.14l.25,1.64Z"/>
          <path class="cls-68" d="m278.72,149.41c-.91-.35-1.78-.55-2.59-.55-1.93,0-2.96,1.33-2.96,2.97s1.02,2.38,2.45,2.38c.71,0,1.46-.21,2.12-.49l.36,1.86c-.88.39-1.81.53-2.61.53-2.8,0-4.58-1.57-4.58-4.02,0-2.72,1.81-5.16,5.25-5.16,1.02,0,2,.18,2.94.5l-.39,1.96Z"/>
          <path class="cls-68" d="m283.66,151.9c.14-.69-.28-1.05-1.22-1.05-.69,0-1.47.22-2.06.48l-.18-1.65c.63-.27,1.61-.48,2.56-.48,2.75,0,3.4,1.34,3,3.1l-.34,1.58c-.08.43-.01.57.41.6l-.49,1.57c-1.48.15-2.1-.32-2.19-.98h-.01c-.46.55-1.08,1.02-1.96,1.02-1.13,0-1.85-.87-1.85-1.81,0-1.33,1.32-2.41,4.3-2.21l.03-.17Zm-.21,1.11c-1.33.03-2.03.34-2.03.95,0,.43.32.71.78.71.39,0,.77-.2.99-.41l.25-1.26Z"/>
          <path class="cls-68" d="m295.41,155.91l.7-3.63c.03-.15.08-.39.08-.56,0-.45-.27-.73-.81-.73-.41,0-.77.21-1.06.49,0,.03-.01.1-.01.11-.01.03-.03.1-.03.13l-.81,4.19h-2.17l.71-3.63c.03-.15.07-.39.07-.56,0-.45-.25-.73-.8-.73-.42,0-.8.22-1.06.49l-.85,4.43h-2.17l1.23-6.4,2.23-.27-.2.92c.55-.53,1.32-.98,2.03-.98.95,0,1.58.46,1.82,1.23.55-.63,1.5-1.23,2.31-1.23,1.23,0,1.86.8,1.86,1.79,0,.18-.03.46-.07.66l-.85,4.27h-2.14Z"/>
          <path class="cls-68" d="m304.45,149.19c1.33,0,2.4,1.09,2.4,2.89,0,2.34-1.62,4.03-3.74,4.03-.6,0-1.12-.18-1.57-.41l-.59,3.11h-2.16l1.79-9.3,2.23-.27-.13.67c.43-.36.97-.73,1.77-.73Zm-2.59,4.88c.27.25.63.48,1.11.48,1.02,0,1.68-1.12,1.68-2.27,0-.91-.5-1.46-1.16-1.46-.46,0-.77.2-1.04.39l-.59,2.86Z"/>
        </g>
      </g>
      <g id="Correctional_institutions_outlineNotHalo_-_SCI" data-name="Correctional_institutions_outlineNotHalo - SCI">
        <path class="cls-36" d="m313.05,222.15c-.72,0-1.96-.35-2.93-.86l-.4,1.93c.72.38,2.08.77,3.38.77,2.2,0,3.68-1.07,3.68-2.94,0-1.27-.99-1.91-2.3-2.41-1.25-.49-1.64-.66-1.64-1.11s.43-.79,1.24-.79,1.96.33,2.83.78l.39-1.93c-.7-.35-1.89-.69-3.29-.69-1.91,0-3.41.99-3.41,2.76,0,1.42,1.14,2.06,2.31,2.53,1.27.5,1.63.71,1.63,1.15,0,.5-.47.82-1.49.82Z"/>
        <path class="cls-36" d="m322.18,219.97c-2.96-.2-4.27.88-4.27,2.2,0,.93.71,1.8,1.84,1.8.88,0,1.49-.47,1.95-1.02h.01c.08.65.7,1.12,2.17.97l.49-1.56c-.42-.03-.49-.17-.4-.6l.34-1.57c.4-1.74-.25-3.08-2.98-3.08-.95,0-1.92.21-2.55.48l.18,1.64c.59-.25,1.37-.48,2.05-.48.93,0,1.35.36,1.21,1.05l-.07.21.04-.05Zm-.43,2.19c-.22.21-.6.4-.99.4-.46,0-.78-.28-.78-.71,0-.62.69-.92,2.02-.95l-.26,1.21v.04Z"/>
        <path class="cls-36" d="m332.06,223.81l.81-4.28c.05-.19.07-.46.07-.65,0-.98-.63-1.78-1.85-1.78-.76,0-1.59.53-2.17,1.11l.24-1.1-2.3.3-1.2,6.4h2.2l.78-4.22c.33-.39.79-.69,1.24-.69.54,0,.8.28.8.74,0,.17-.04.39-.07.54l-.64,3.64h2.1Z"/>
        <path class="cls-36" d="m338.21,222.13c-.22.09-.46.14-.68.14-.51,0-.78-.15-.78-.57,0-.14.04-.29.07-.4l.49-2.19h1.9v-1.7h-1.4l.3-1.6h-2l-.4,1.5-1.2.3v1.4l.8.1-.53,2.43c-.06.22-.1.45-.1.67,0,1.21.96,1.78,2.14,1.78.63,0,1.21-.1,1.64-.22l.77-3.58-1.02,1.95Z"/>
        <path class="cls-36" d="m342.18,223.75l1.2-6.6-2.2.2-1.2,6.4h2.2Zm1.81-8.56c0-.75-.47-1.15-1.25-1.15s-1.28.4-1.28,1.15.49,1.14,1.27,1.14,1.26-.4,1.26-1.14Z"/>
        <path class="cls-36" d="m348.22,219.97c-2.96-.2-4.27.88-4.27,2.2,0,.93.71,1.8,1.84,1.8.88,0,1.49-.47,1.95-1.02h.01c.08.65.7,1.12,2.17.97l.49-1.56c-.42-.03-.49-.17-.4-.6l.34-1.57c.4-1.74-.25-3.08-2.98-3.08-.95,0-1.92.21-2.55.48l.18,1.64c.59-.25,1.37-.48,2.05-.48.93,0,1.35.36,1.21,1.05l-.03.21v-.05Zm-.43,2.19c-.22.21-.6.4-.99.4-.46,0-.78-.28-.78-.71,0-.62.69-.92,2.02-.95l-.23,1.21-.03.04Z"/>
        <path class="cls-36" d="m361.94,223.77l.84-4.28c.04-.19.07-.47.07-.65,0-.99-.63-1.78-1.85-1.78-.81,0-1.75.6-2.3,1.22-.24-.76-.86-1.22-1.81-1.22-.71,0-1.47.45-2.02.97l.17-.96-2.2.3-1.2,6.4h2.1l.89-4.43c.27-.27.64-.49,1.06-.49.54,0,.79.28.79.72,0,.17-.04.4-.07.55l-.67,3.64h2.1l.83-4.19s.01-.1.03-.13c0-.01.02-.08.02-.11.29-.28.65-.49,1.06-.49.54,0,.81.28.81.72,0,.17-.06.4-.08.55l-.65,3.64h2.1Z"/>
        <g>
          <path class="cls-75" d="m314.52,221.31c0-.45-.36-.66-1.64-1.16-1.18-.48-2.33-1.12-2.33-2.55,0-1.78,1.51-2.77,3.43-2.77,1.4,0,2.61.35,3.31.7l-.39,1.95c-.87-.45-2.04-.78-2.84-.78s-1.25.34-1.25.8.39.63,1.65,1.12c1.32.5,2.31,1.15,2.31,2.42,0,1.88-1.48,2.96-3.7,2.96-1.32,0-2.68-.39-3.4-.77l.41-1.95c.97.52,2.21.87,2.94.87,1.02,0,1.5-.32,1.5-.83Z"/>
          <path class="cls-75" d="m322.22,219.77c.14-.69-.28-1.05-1.22-1.05-.69,0-1.47.22-2.06.48l-.18-1.65c.63-.27,1.61-.48,2.56-.48,2.75,0,3.4,1.34,3,3.1l-.34,1.58c-.08.43-.01.57.41.6l-.49,1.57c-1.48.15-2.1-.32-2.19-.98h-.01c-.46.55-1.08,1.02-1.96,1.02-1.13,0-1.85-.87-1.85-1.81,0-1.33,1.32-2.41,4.3-2.21l.03-.17Zm-.21,1.11c-1.33.03-2.03.34-2.03.95,0,.43.32.71.78.71.39,0,.77-.2.99-.41l.25-1.26Z"/>
          <path class="cls-75" d="m329.9,223.78l.7-3.63c.03-.15.07-.38.07-.55,0-.46-.25-.74-.8-.74-.45,0-.91.31-1.25.7l-.81,4.22h-2.17l1.23-6.4,2.23-.27-.2,1.06c.59-.59,1.41-1.12,2.19-1.12,1.23,0,1.86.81,1.86,1.79,0,.2-.03.46-.07.66l-.83,4.27h-2.16Z"/>
          <path class="cls-75" d="m338.48,223.76c-.43.13-1.02.22-1.65.22-1.19,0-2.16-.57-2.16-1.79,0-.22.04-.45.1-.67l.57-2.48-.87-.07.04-1.37,1.2-.32.35-1.48h2.09l-.34,1.57h1.4l-.04,1.68h-1.85l-.5,2.24c-.03.11-.07.27-.07.41,0,.42.27.57.78.57.22,0,.46-.06.69-.14l.25,1.64Z"/>
          <path class="cls-75" d="m339.96,223.78l1.25-6.44,2.2-.18-1.29,6.63h-2.16Zm2.76-7.44c-.78,0-1.27-.41-1.27-1.15s.5-1.16,1.29-1.16,1.26.41,1.26,1.16-.49,1.15-1.27,1.15Z"/>
          <path class="cls-75" d="m348.26,219.77c.14-.69-.28-1.05-1.22-1.05-.69,0-1.47.22-2.06.48l-.18-1.65c.63-.27,1.61-.48,2.56-.48,2.75,0,3.4,1.34,3,3.1l-.34,1.58c-.08.43-.01.57.41.6l-.49,1.57c-1.48.15-2.1-.32-2.19-.98h-.01c-.46.55-1.08,1.02-1.96,1.02-1.13,0-1.85-.87-1.85-1.81,0-1.33,1.32-2.41,4.3-2.21l.03-.17Zm-.21,1.11c-1.33.03-2.03.34-2.03.95,0,.43.32.71.78.71.39,0,.77-.2.99-.41l.25-1.26Z"/>
          <path class="cls-75" d="m359.82,223.78l.7-3.63c.03-.15.08-.39.08-.56,0-.45-.27-.73-.81-.73-.41,0-.77.21-1.06.49,0,.03-.01.1-.01.11-.01.03-.03.1-.03.13l-.81,4.19h-2.17l.71-3.63c.03-.15.07-.39.07-.56,0-.45-.25-.73-.8-.73-.42,0-.8.22-1.06.49l-.85,4.43h-2.17l1.23-6.4,2.23-.27-.2.92c.55-.53,1.32-.98,2.03-.98.95,0,1.58.46,1.82,1.23.55-.63,1.5-1.23,2.31-1.23,1.23,0,1.86.8,1.86,1.79,0,.18-.03.46-.07.66l-.85,4.27h-2.14Z"/>
        </g>
      </g>
      <g id="Correctional_institutions_outlineNotHalo_-_SCCI" data-name="Correctional_institutions_outlineNotHalo - SCCI">
        <path class="cls-44" d="m274.67,375.67c-.72,0-1.96-.35-2.92-.86l-.4,1.93c.72.38,2.08.77,3.38.77,2.2,0,3.67-1.07,3.67-2.94,0-1.27-.99-1.91-2.3-2.41-1.25-.49-1.64-.66-1.64-1.11s.43-.79,1.24-.79,1.96.33,2.83.78l.39-1.93c-.7-.35-1.89-.69-3.29-.69-1.91,0-3.41.99-3.41,2.76,0,1.42,1.14,2.06,2.31,2.53,1.27.5,1.63.71,1.63,1.15,0,.5-.47.82-1.49.82Z"/>
        <path class="cls-44" d="m285.92,377.29l.82-4.34c.03-.2.06-.38.06-.57,0-1.02-.63-1.8-1.85-1.8-.76,0-1.5.45-2.17,1.1l.75-3.89-2.2.2-1.8,9.3h2.2l.79-4.29c.33-.38.74-.64,1.2-.64.55,0,.82.26.82.76,0,.14-.03.3-.06.46l-.75,3.71h2.2Z"/>
        <path class="cls-44" d="m288.91,370.85l-.82,4.1c-.04.27-.09.6-.09.85,0,.97.58,1.71,1.9,1.71.81,0,1.68-.54,2.2-1.08l-.17,1.12,2.18-.3,1.35-6.4h-2.18l-.92,4.31c-.3.32-.74.55-1.17.55-.58,0-.83-.28-.83-.73,0-.17.04-.39.07-.54l.76-3.59h-2.29Z"/>
        <path class="cls-44" d="m300.21,375.63c-.25.09-.51.14-.77.14-.58,0,3.16-1.95,3.16-2.37,0-.14-3.3-1.6-3.96,1.4l.51-2.18h2.14v-1.7h-1.57l.45-1.6h-2.36l-.45,1.5-1.24.3-.11,1.4,1.01.1-.67,2.42c-.06.22-.11.45-.11.67,0,1.21,1.08,1.78,2.41,1.78.7,0,1.36-.1,1.85-.22l-.32-1.64h.04Z"/>
        <path class="cls-44" d="m306.37,375.66c-.22.09-.46.14-.68.14-.51,0-.78-.15-.78-.57,0-.14.04-.29.07-.4l.55-2.18h1.8v-1.7h-1.4l.4-1.6h-2.1l-.3,1.5-1.2.3-.1,1.4.9.1-.59,2.42c-.06.22-.1.45-.1.67,0,1.21.96,1.78,2.14,1.78.63,0,1.21-.1,1.64-.22l-.29-1.64h.04Z"/>
        <path class="cls-44" d="m310.3,373.49c.2-.92.72-1.46,1.38-1.46.51,0,.82.3.82.83,0,.17-.04.46-.1.61l-2.12-.03.02.04Zm-.22,1.06l4.12-.07c.18-.43.31-1.07.31-1.55,0-1.5-1.06-2.31-2.7-2.31-2.2,0-3.82,1.7-3.82,3.8,0,1.98,1.42,3.09,3.54,3.09.83,0,1.74-.18,2.27-.42l-.27-1.63c-.43.22-1.14.47-1.82.47-.85,0-1.62-.42-1.62-1.32v-.1.03Z"/>
        <path class="cls-44" d="m318.56,373.35c.42-.53.89-.78,1.45-.78.38,0,.71.1,1,.27l.46-1.92c-.28-.2-.6-.29-.95-.29-.6,0-1.2.38-1.63,1l.18-.98-2.2.3-1.2,6.4h2.1l.8-4h0Z"/>
        <path class="cls-44" d="m276.8,382.4c-.93-.32-1.9-.5-2.92-.5-3.42,0-5.22,2.42-5.22,5.12,0,2.43,1.77,3.99,4.55,3.99.79,0,1.71-.14,2.59-.53l-.36-1.85c-.66.28-1.39.49-2.1.49-1.42,0-2.44-.75-2.44-2.37s1.02-2.95,2.94-2.95c.81,0,1.67.19,2.57.54l.42-1.9-.03-.05Z"/>
        <path class="cls-44" d="m280.1,386.81c.42-.53.89-.78,1.45-.78.38,0,.71.1,1,.27l.46-1.92c-.28-.2-.6-.29-.95-.29-.6,0-1.2.38-1.63,1l.2-.98-2.2.3-1.3,6.4h2.2l.8-4h-.03Z"/>
        <path class="cls-44" d="m285.95,386.99c.2-.92.74-1.46,1.41-1.46.53,0,.84.3.84.83,0,.17-.04.46-.1.61l-2.12-.03-.04.04Zm-.27,1.06l4.27-.07c.18-.43.32-1.07.32-1.55,0-1.5-1.09-2.31-2.78-2.31-2.26,0-3.93,1.7-3.93,3.8,0,1.98,1.46,3.09,3.63,3.09.85,0,1.79-.18,2.33-.42l-.27-1.63c-.44.22-1.17.47-1.87.47-.87,0-1.66-.42-1.66-1.32v-.1l-.04.03Z"/>
        <path class="cls-44" d="m294.07,386.99c.2-.92.72-1.46,1.38-1.46.51,0,.82.3.82.83,0,.17-.04.46-.1.61l-2.06-.03-.04.04Zm-.26,1.06l4.15-.07c.18-.43.31-1.07.31-1.55,0-1.5-1.06-2.31-2.7-2.31-2.2,0-3.83,1.7-3.83,3.8,0,1.98,1.42,3.09,3.54,3.09.83,0,1.74-.18,2.27-.42l-.27-1.63c-.43.22-1.14.47-1.82.47-.85,0-1.62-.42-1.62-1.32v-.1l-.03.03Z"/>
        <polygon class="cls-44" points="302.33 387.65 303.73 390.85 306.13 390.85 304.43 387.35 307.33 384.35 304.73 384.35 302.43 386.95 303.53 381.35 301.33 381.55 299.53 390.85 301.63 390.85 302.23 387.65 302.33 387.65"/>
        <g>
          <path class="cls-72" d="m276.19,374.84c0-.45-.36-.66-1.64-1.16-1.18-.48-2.33-1.12-2.33-2.55,0-1.78,1.51-2.77,3.43-2.77,1.4,0,2.61.35,3.31.7l-.39,1.95c-.87-.45-2.04-.78-2.84-.78s-1.25.34-1.25.8.39.63,1.65,1.12c1.32.5,2.31,1.15,2.31,2.42,0,1.88-1.48,2.96-3.7,2.96-1.32,0-2.68-.39-3.4-.77l.41-1.95c.97.52,2.21.87,2.94.87,1.02,0,1.5-.32,1.5-.83Z"/>
          <path class="cls-72" d="m283.71,377.3l.71-3.68c.03-.15.06-.32.06-.46,0-.5-.27-.77-.83-.77-.46,0-.87.27-1.2.64l-.83,4.27h-2.17l1.82-9.34,2.2-.18-.76,3.92c.67-.66,1.41-1.11,2.19-1.11,1.23,0,1.86.79,1.86,1.81,0,.2-.03.38-.06.57l-.84,4.33h-2.16Z"/>
          <path class="cls-72" d="m291.06,370.79l-.7,3.63c-.03.15-.07.38-.07.55,0,.46.24.74.8.74.42,0,.84-.24,1.13-.56l.84-4.36h2.16l-1.26,6.46-2.2.27.21-1.09c-.5.55-1.34,1.09-2.13,1.09-1.27,0-1.83-.74-1.83-1.72,0-.25.04-.59.08-.85l.8-4.15h2.17Z"/>
          <path class="cls-72" d="m300.75,377.29c-.43.13-1.02.22-1.65.22-1.19,0-2.16-.57-2.16-1.79,0-.22.04-.45.1-.67l.57-2.48-.87-.07.04-1.37,1.2-.32.35-1.49h2.09l-.34,1.57h1.4l-.04,1.68h-1.85l-.5,2.24c-.03.11-.07.27-.07.41,0,.42.27.57.78.57.22,0,.46-.06.69-.14l.25,1.64Z"/>
          <path class="cls-72" d="m306.61,377.29c-.43.13-1.02.22-1.65.22-1.19,0-2.16-.57-2.16-1.79,0-.22.04-.45.1-.67l.57-2.48-.87-.07.04-1.37,1.2-.32.35-1.49h2.09l-.34,1.57h1.4l-.04,1.68h-1.85l-.5,2.24c-.03.11-.07.27-.07.41,0,.42.27.57.78.57.22,0,.46-.06.69-.14l.25,1.64Z"/>
          <path class="cls-72" d="m310.36,374.6c0,.91.77,1.33,1.62,1.33.69,0,1.4-.25,1.83-.48l.27,1.64c-.53.24-1.44.42-2.28.42-2.13,0-3.56-1.12-3.56-3.11,0-2.12,1.64-3.82,3.85-3.82,1.65,0,2.72.81,2.72,2.33,0,.48-.13,1.12-.31,1.55l-4.15.04v.1Zm2.34-1.15c.06-.15.1-.45.1-.62,0-.53-.31-.84-.83-.84-.66,0-1.19.55-1.39,1.47h2.12Z"/>
          <path class="cls-72" d="m317.8,377.3h-2.16l1.25-6.4,2.21-.27-.18.95c.43-.63,1.04-1.01,1.64-1.01.35,0,.67.1.95.29l-.46,1.93c-.29-.17-.63-.27-1.01-.27-.56,0-1.04.25-1.46.78l-.78,3.98Z"/>
          <path class="cls-72" d="m276.46,384.31c-.91-.35-1.78-.55-2.59-.55-1.93,0-2.96,1.33-2.96,2.97s1.02,2.38,2.45,2.38c.71,0,1.46-.21,2.12-.49l.36,1.86c-.88.39-1.81.53-2.61.53-2.8,0-4.58-1.57-4.58-4.02,0-2.72,1.81-5.16,5.25-5.16,1.02,0,2,.18,2.94.5l-.39,1.96Z"/>
          <path class="cls-72" d="m279.3,390.81h-2.16l1.25-6.4,2.21-.27-.18.95c.43-.63,1.04-1.01,1.64-1.01.35,0,.67.1.95.29l-.46,1.93c-.29-.17-.63-.27-1.01-.27-.56,0-1.04.25-1.46.78l-.78,3.98Z"/>
          <path class="cls-72" d="m285.81,388.1c0,.91.77,1.33,1.62,1.33.69,0,1.4-.25,1.83-.48l.27,1.64c-.53.24-1.44.42-2.28.42-2.13,0-3.56-1.12-3.56-3.11,0-2.12,1.64-3.82,3.85-3.82,1.65,0,2.72.81,2.72,2.33,0,.48-.13,1.12-.31,1.55l-4.15.04v.1Zm2.34-1.15c.06-.15.1-.45.1-.62,0-.53-.31-.84-.83-.84-.66,0-1.19.55-1.39,1.47h2.12Z"/>
          <path class="cls-72" d="m293.84,388.1c0,.91.77,1.33,1.62,1.33.69,0,1.4-.25,1.83-.48l.27,1.64c-.53.24-1.44.42-2.28.42-2.13,0-3.56-1.12-3.56-3.11,0-2.12,1.64-3.82,3.85-3.82,1.65,0,2.72.81,2.72,2.33,0,.48-.13,1.12-.31,1.55l-4.15.04v.1Zm2.34-1.15c.06-.15.1-.45.1-.62,0-.53-.31-.84-.83-.84-.66,0-1.19.55-1.39,1.47h2.12Z"/>
          <path class="cls-72" d="m302.28,387.64l-.6,3.17h-2.16l1.82-9.34,2.2-.18-1.12,5.67h.03l2.34-2.66h2.56l-2.94,3.05,1.76,3.46h-2.38l-1.48-3.17h-.03Z"/>
        </g>
      </g>
      <g id="Correctional_institutions_outlineNotHalo_-_PRCF" data-name="Correctional_institutions_outlineNotHalo - PRCF">
        <path class="cls-34" d="m767.74,230.5c0,.75-.51,1.5-1.74,1.5l-1.05.02.5-2.7.75-.02c1.03,0,1.55.5,1.55,1.2Zm2.27-.15c0-1.48-1.23-2.8-3.38-2.8l-2.98-.03-1.7,8.7h2.2l.5-2.5h1.3c2.76,0,4.07-1.49,4.07-3.37Z"/>
        <path class="cls-34" d="m775.53,232.53c0,1.24-.6,2.38-1.58,2.38-.73,0-1.17-.53-1.17-1.41,0-1.04.54-2.38,1.61-2.38.71,0,1.13.53,1.13,1.4Zm2.16.13c0-1.84-1.31-3.09-3.23-3.09-2.27,0-3.8,1.73-3.8,3.81,0,1.9,1.35,3.07,3.25,3.07,2.27,0,3.77-1.71,3.77-3.8Z"/>
        <polygon class="cls-34" points="781.46 236.32 783.56 232.02 783.86 236.32 785.96 236.32 788.96 229.82 786.76 229.82 785.26 233.72 784.96 229.72 782.96 229.72 781.06 233.82 781.06 229.82 778.96 229.82 779.46 236.32 781.46 236.32"/>
        <path class="cls-34" d="m794.24,231.62l-.63,2.84c-.26.2-.57.4-1.03.4-.66,0-1.14-.54-1.14-1.45,0-1.16.64-2.27,1.67-2.27.46,0,.82.23,1.08.47h.05Zm.27-1.63c-.45-.22-.96-.39-1.54-.39-2.12,0-3.73,1.67-3.73,4,0,1.78,1.06,2.87,2.38,2.87.79,0,1.32-.36,1.76-.72l-.13.49h2.2l1.8-9.4-2.2.1-.5,3.1-.03-.03Z"/>
        <path class="cls-34" d="m799.44,232.43c.2-.92.72-1.46,1.38-1.46.51,0,.82.3.82.83,0,.17-.04.46-.1.61h-2.12s.02.01.02.01Zm-.22.99h4.11c.18-.43.31-1.07.31-1.54,0-1.5-1.06-2.31-2.7-2.31-2.2,0-3.83,1.7-3.83,3.8,0,1.98,1.42,3.09,3.54,3.09.83,0,1.74-.18,2.27-.42l-.27-1.63c-.43.22-1.14.47-1.82.47-.85,0-1.62-.42-1.62-1.32v-.14Z"/>
        <path class="cls-34" d="m807.49,232.29c.42-.53.89-.78,1.45-.78.38,0,.71.1,1,.27l.46-1.92c-.28-.19-.6-.29-.95-.29-.6,0-1.2.38-1.63,1l.18-.95-2.2.3-1.2,6.3h2.1l.8-3.9-.02-.02Z"/>
        <path class="cls-34" d="m762.93,245.84l.53-2.43h.94c.8,0,1.43.34,1.43,1.08,0,1-.89,1.32-1.89,1.33h-1.01Zm-.2,1.71l1-.1,1.1,2.9h2.4l-1.42-3.3c1.31-.36,2.31-1.31,2.31-2.81s-1.21-2.55-3.21-2.55l-3.28-.04-1.7,8.7h2.2l.6-2.8Z"/>
        <path class="cls-34" d="m770.68,250.34l1.3-6.6-2.2.2-1.3,6.4h2.2Zm1.85-8.5c0-.75-.47-1.15-1.25-1.15s-1.28.4-1.28,1.15.49,1.14,1.27,1.14,1.26-.4,1.26-1.14Z"/>
        <polygon class="cls-34" points="780.3 243.91 778 243.91 775.9 248.01 775.4 243.91 773.2 243.91 774.3 250.31 776.5 250.31 780.3 243.91"/>
        <path class="cls-34" d="m782.66,246.55c.2-.92.72-1.46,1.38-1.46.51,0,.82.3.82.83,0,.17-.04.46-.1.61h-2.13s.03.01.03.01Zm-.23.99h4.13c.18-.43.31-1.07.31-1.54,0-1.5-1.06-2.31-2.7-2.31-2.2,0-3.82,1.7-3.82,3.8,0,1.98,1.42,3.09,3.54,3.09.83,0,1.74-.18,2.27-.42l-.27-1.63c-.43.22-1.14.47-1.82.47-.85,0-1.62-.42-1.62-1.32v-.14Z"/>
        <path class="cls-34" d="m790.65,246.41c.42-.53.89-.78,1.45-.78.38,0,.71.1,1,.27l.46-1.92c-.28-.19-.6-.29-.95-.29-.6,0-1.2.38-1.63,1l.16-.95-2.2.3-1.2,6.3h2.1l.8-3.9v-.02Z"/>
        <g>
          <path class="cls-62" d="m765.97,233.7h-1.29s-.49,2.55-.49,2.55h-2.23l1.7-8.75h3c2.17,0,3.4,1.33,3.4,2.82,0,1.89-1.32,3.39-4.09,3.39Zm.25-4.44h-.73l-.53,2.72h1.06c1.23,0,1.75-.76,1.75-1.51,0-.7-.52-1.21-1.56-1.21Z"/>
          <path class="cls-62" d="m773.92,236.46c-1.92,0-3.28-1.18-3.28-3.1,0-2.1,1.54-3.84,3.82-3.84,1.93,0,3.25,1.26,3.25,3.11,0,2.1-1.51,3.82-3.8,3.82Zm.49-5.36c-1.08,0-1.62,1.34-1.62,2.39,0,.88.43,1.42,1.18,1.42.98,0,1.58-1.15,1.58-2.4,0-.88-.42-1.41-1.13-1.41Z"/>
          <path class="cls-62" d="m779.43,236.27l-.53-6.54h2.13l.06,4.05,1.89-4.06h2.03l.29,3.99,1.53-3.98h2.21l-3.11,6.54h-2.06l-.32-4.26-2.07,4.26h-2.04Z"/>
          <path class="cls-62" d="m795.09,226.9l2.19-.18-1.85,9.53h-2.14l.08-.52c-.43.36-.97.73-1.76.73-1.33,0-2.4-1.09-2.4-2.89,0-2.34,1.62-4.02,3.75-4.02.59,0,1.11.17,1.55.39l.57-3.04Zm-1.99,4.2c-1.04,0-1.68,1.12-1.68,2.28,0,.91.49,1.46,1.15,1.46.46,0,.77-.21,1.04-.41l.59-2.86c-.27-.25-.63-.48-1.09-.48Z"/>
          <path class="cls-62" d="m799.23,233.54c0,.91.77,1.33,1.62,1.33.69,0,1.4-.25,1.83-.48l.27,1.64c-.53.24-1.44.42-2.28.42-2.13,0-3.56-1.12-3.56-3.11,0-2.12,1.64-3.82,3.85-3.82,1.65,0,2.72.81,2.72,2.33,0,.48-.13,1.12-.31,1.55l-4.15.04v.1Zm2.34-1.15c.06-.15.1-.45.1-.62,0-.53-.31-.84-.83-.84-.66,0-1.19.55-1.39,1.47h2.12Z"/>
          <path class="cls-62" d="m806.73,236.25h-2.16l1.25-6.4,2.21-.27-.18.95c.43-.63,1.04-1.01,1.64-1.01.35,0,.67.1.95.29l-.46,1.93c-.29-.17-.63-.27-1.01-.27-.56,0-1.04.25-1.46.78l-.79,3.98Z"/>
          <path class="cls-62" d="m762.12,250.36h-2.21l1.7-8.74h3.31c2.02,0,3.24,1.11,3.24,2.56s-1.01,2.47-2.33,2.83l1.39,3.35h-2.37l-1.16-2.97-.99.08-.56,2.89Zm1.82-4.57c1.01-.01,1.91-.34,1.91-1.34,0-.74-.64-1.09-1.44-1.09h-.95l-.52,2.45h1.01Z"/>
          <path class="cls-62" d="m768.56,250.36l1.25-6.44,2.2-.18-1.29,6.63h-2.16Zm2.76-7.44c-.78,0-1.27-.41-1.27-1.15s.5-1.16,1.29-1.16,1.26.41,1.26,1.16-.49,1.15-1.28,1.15Z"/>
          <path class="cls-62" d="m776.56,250.38h-2.24l-1.13-6.53h2.19l.5,4.22,2.17-4.22h2.27l-3.75,6.53Z"/>
          <path class="cls-62" d="m782.43,247.66c0,.91.77,1.33,1.62,1.33.69,0,1.4-.25,1.83-.48l.27,1.64c-.53.24-1.44.42-2.28.42-2.13,0-3.56-1.12-3.56-3.11,0-2.12,1.64-3.82,3.85-3.82,1.65,0,2.72.81,2.72,2.33,0,.48-.13,1.12-.31,1.55l-4.15.04v.1Zm2.34-1.15c.06-.15.1-.45.1-.62,0-.53-.31-.84-.83-.84-.66,0-1.19.55-1.39,1.47h2.12Z"/>
          <path class="cls-62" d="m789.87,250.36h-2.16l1.25-6.4,2.21-.27-.18.95c.43-.63,1.04-1.01,1.64-1.01.35,0,.67.1.95.29l-.46,1.93c-.29-.17-.63-.27-1.01-.27-.56,0-1.04.25-1.46.78l-.79,3.98Z"/>
        </g>
      </g>
      <g id="Correctional_institutions_outlineNotHalo_-_MCCF" data-name="Correctional_institutions_outlineNotHalo - MCCF">
        <polygon class="cls-28" points="322.1 279.2 324.2 279.2 325.6 270.5 322.5 270.5 319.4 276.9 318.8 270.5 315.7 270.5 313.7 279.2 315.8 279.2 317.2 272.8 317.8 279.1 320.2 279.1 323.2 272.8 322.1 279.2"/>
        <path class="cls-28" d="m328.11,279.2l1.3-6.6-2.2.2-1.2,6.4h2.1Zm1.89-8.51c0-.75-.47-1.16-1.25-1.16s-1.28.41-1.28,1.16.49,1.14,1.27,1.14,1.26-.4,1.26-1.14Z"/>
        <polygon class="cls-28" points="332.1 279.2 334 269.8 331.8 269.9 330 279.2 332.1 279.2"/>
        <polygon class="cls-28" points="335.82 279.2 337.72 269.8 335.52 269.9 333.72 279.2 335.82 279.2"/>
        <path class="cls-28" d="m319.09,284.19c-.93-.32-1.9-.5-2.92-.5-3.42,0-5.22,2.42-5.22,5.12,0,2.43,1.77,3.99,4.55,3.99.79,0,1.71-.14,2.59-.53l-.36-1.85c-.66.28-1.39.49-2.1.49-1.42,0-2.44-.75-2.44-2.37s1.02-2.95,2.94-2.95c.81,0,1.67.2,2.57.54l.43-1.96-.04.02Z"/>
        <path class="cls-28" d="m322.4,288.64c.42-.53.89-.78,1.45-.78.38,0,.71.1,1,.27l.46-1.92c-.28-.2-.6-.29-.95-.29-.6,0-1.2.38-1.63,1l.21-.94-2.2.3-1.3,6.3h2.2l.8-3.9-.05-.03Z"/>
        <path class="cls-28" d="m328.01,288.78c.19-.92.72-1.46,1.38-1.46.51,0,.82.3.82.83,0,.17-.04.46-.1.61h-2.05s-.05.01-.05.01Zm-.25.99h4.15c.18-.43.31-1.08.31-1.55,0-1.5-1.06-2.31-2.7-2.31-2.2,0-3.83,1.7-3.83,3.8,0,1.98,1.42,3.09,3.54,3.09.83,0,1.74-.18,2.27-.42l-.27-1.63c-.43.22-1.14.47-1.82.47-.85,0-1.62-.42-1.62-1.32v-.1l-.03-.04Z"/>
        <path class="cls-28" d="m335.61,288.78c.2-.92.72-1.46,1.38-1.46.51,0,.82.3.82.83,0,.17-.04.46-.1.61h-2.14s.04.01.04.01Zm-.24.99h4.14c.18-.43.31-1.08.31-1.55,0-1.5-1.06-2.31-2.7-2.31-2.2,0-3.83,1.7-3.83,3.8,0,1.98,1.42,3.09,3.54,3.09.83,0,1.74-.18,2.27-.42l-.27-1.63c-.43.22-1.14.47-1.82.47-.85,0-1.62-.42-1.62-1.32v-.1l-.02-.04Z"/>
        <polygon class="cls-28" points="343.62 289.47 345.02 292.57 347.42 292.57 345.62 289.17 348.62 286.07 346.02 286.07 343.72 288.77 344.82 283.17 342.62 283.27 340.82 292.57 342.92 292.57 343.52 289.47 343.62 289.47"/>
        <g>
          <path class="cls-63" d="m323.26,272.77l-3.07,6.33h-2.4l-.59-6.36-1.41,6.49h-2.14l2.05-8.77h3.11l.6,6.43,3.11-6.42h3.18l-1.43,8.75h-2.16l1.15-6.46Z"/>
          <path class="cls-63" d="m326.01,279.22l1.25-6.44,2.2-.18-1.29,6.63h-2.16Zm2.76-7.44c-.78,0-1.27-.41-1.27-1.15s.5-1.16,1.29-1.16,1.26.41,1.26,1.16-.49,1.15-1.27,1.15Z"/>
          <path class="cls-63" d="m329.7,279.22l1.82-9.34,2.2-.18-1.86,9.53h-2.16Z"/>
          <path class="cls-63" d="m333.4,279.22l1.82-9.34,2.2-.18-1.86,9.53h-2.16Z"/>
          <path class="cls-63" d="m318.74,286.09c-.91-.35-1.78-.55-2.59-.55-1.93,0-2.96,1.33-2.96,2.97s1.02,2.38,2.45,2.38c.71,0,1.46-.21,2.12-.49l.36,1.86c-.88.39-1.81.53-2.61.53-2.8,0-4.58-1.57-4.58-4.02,0-2.72,1.81-5.15,5.25-5.15,1.02,0,2,.18,2.94.5l-.39,1.96Z"/>
          <path class="cls-63" d="m321.6,292.59h-2.16l1.25-6.4,2.21-.27-.18.95c.43-.63,1.04-1.01,1.64-1.01.35,0,.67.1.95.29l-.46,1.93c-.29-.17-.63-.27-1.01-.27-.56,0-1.04.25-1.46.78l-.78,3.98Z"/>
          <path class="cls-63" d="m327.78,289.89c0,.91.77,1.33,1.62,1.33.69,0,1.4-.25,1.83-.48l.27,1.64c-.53.24-1.44.42-2.28.42-2.13,0-3.56-1.12-3.56-3.11,0-2.12,1.64-3.82,3.85-3.82,1.65,0,2.72.81,2.72,2.33,0,.48-.13,1.12-.31,1.55l-4.15.04v.1Zm2.34-1.15c.06-.15.1-.45.1-.62,0-.53-.31-.84-.83-.84-.66,0-1.19.55-1.39,1.47h2.12Z"/>
          <path class="cls-63" d="m335.38,289.89c0,.91.77,1.33,1.62,1.33.69,0,1.4-.25,1.83-.48l.27,1.64c-.53.24-1.44.42-2.28.42-2.13,0-3.56-1.12-3.56-3.11,0-2.12,1.64-3.82,3.85-3.82,1.65,0,2.72.81,2.72,2.33,0,.48-.13,1.12-.31,1.55l-4.15.04v.1Zm2.34-1.15c.06-.15.1-.45.1-.62,0-.53-.31-.84-.83-.84-.66,0-1.19.55-1.39,1.47h2.12Z"/>
          <path class="cls-63" d="m343.56,289.42l-.6,3.17h-2.16l1.82-9.34,2.2-.18-1.12,5.67h.03l2.34-2.66h2.56l-2.94,3.05,1.77,3.46h-2.38l-1.48-3.17h-.03Z"/>
        </g>
      </g>
      <g id="Correctional_institutions_outlineNotHalo_-_DRCI" data-name="Correctional_institutions_outlineNotHalo - DRCI">
        <path class="cls-31" d="m520.6,250.49c0,2.19-1.38,3.33-3.28,3.33l-1.14-.04,1.03-5.52h.82c1.54.02,2.56.72,2.56,2.23Zm2.39-.13c0-2.63-2.06-4-4.7-4h-3.08l-1.81,9.37h3.53c4.34,0,6.07-2.55,6.06-5.36Z"/>
        <path class="cls-31" d="m525.87,251.58c.22-.96.8-1.53,1.53-1.53.57,0,.91.32.91.87,0,.18-.05.48-.11.64l-2.38.03h.05Zm-.27,1.05l4.59-.02c.2-.45.34-1.12.34-1.62,0-1.57-1.17-2.42-3-2.42-2.44,0-4.24,1.78-4.24,3.98,0,2.07,1.57,3.24,3.92,3.24.92,0,1.93-.19,2.52-.44l-.3-1.7c-.48.23-1.26.49-2.02.49-.94,0-1.79-.44-1.79-1.39v-.1l-.02-.02Z"/>
        <path class="cls-31" d="m533.96,251.64c.21-.95.77-1.5,1.46-1.5.54,0,.87.31.87.86,0,.17-.04.48-.1.63l-2.26.02h.04Zm-.25,1.03l4.38-.02c.19-.44.33-1.11.33-1.59,0-1.55-1.12-2.38-2.87-2.38-2.33,0-4.06,1.75-4.06,3.92,0,2.04,1.5,3.19,3.75,3.19.88,0,1.84-.19,2.41-.43l-.28-1.68c-.46.23-1.21.49-1.93.49-.9,0-1.71-.43-1.71-1.37v-.12Z"/>
        <path class="cls-31" d="m542.59,251.41c.42-.53.89-.78,1.45-.78.38,0,.71.1,1,.27l.46-1.92c-.28-.2-.6-.29-.95-.29-.6,0-1.2.38-1.63,1l.16-.92-2.2.2-1.2,6.4h2.1l.8-4v.05Z"/>
        <path class="cls-31" d="m513.82,265.35l.6-2.68h1.02c.86,0,1.55.38,1.55,1.18,0,1.09-.96,1.45-2.05,1.46l-1.12.04Zm-.22,1.75h1.08l1.19,3.17h2.6l-1.52-3.63c1.42-.39,2.5-1.43,2.5-3.07s-1.31-2.79-3.48-2.79l-3.57-.02-1.84,9.51h2.39l.65-3.17Z"/>
        <path class="cls-31" d="m521.97,270.26l1.32-6.87-2.23.21-1.22,6.66h2.13Zm1.9-8.88c0-.78-.48-1.2-1.27-1.2s-1.3.42-1.3,1.2.49,1.19,1.29,1.19,1.28-.42,1.28-1.19Z"/>
        <path class="cls-31" d="m528.44,265.27l-.58,2.92c-.28.2-.61.42-1.1.42-.7,0-1.23-.56-1.23-1.5,0-1.2.69-2.36,1.79-2.36.49,0,.88.23,1.16.49l-.04.04Zm.39-1.72c-.48-.23-1.03-.4-1.66-.4-2.27,0-4,1.74-4,4.15,0,1.85,1.13,2.97,2.55,2.97.85,0,1.42-.37,1.88-.75l-.13.53h2.36l1.93-9.86-2.36.21-.54,3.11-.04.04Z"/>
        <path class="cls-31" d="m532.38,270.3c.46.1,1.24.21,1.67.28,1.01.18,1.35.4,1.35.82s-.69.82-1.82.82-1.92-.41-1.92-1.08c0-.39.33-.76.72-.85Zm2.07-3.76c-.71,0-1.1-.46-1.1-1.06,0-.87.54-1.42,1.23-1.42s1.09.45,1.09,1.06c0,.88-.5,1.41-1.21,1.41Zm-2.12.82c-1.08.2-1.75.79-1.75,1.46,0,.61.32.91.92,1.1-1.29.19-2.01.91-2.01,1.61,0,1.26,1.41,1.95,3.98,1.95,2.41,0,4.19-.98,4.19-2.53,0-1.28-1.04-1.85-2.96-2.16l-.29-.04c-1.15-.18-1.5-.31-1.5-.63,0-.21.19-.36.36-.42.27.07.69.16,1.18.16,2.1,0,3.3-1.18,3.3-2.68,0-.24-.08-.48-.14-.63l1.38.19v-1.82l-2.36.21c-.48-.3-1.18-.51-2.01-.51-1.89.01-3.47,1.15-3.47,2.83,0,.77.42,1.49,1.2,1.89Z"/>
        <path class="cls-31" d="m541.64,266.04c.21-.97.78-1.53,1.49-1.53.56,0,.89.32.89.87,0,.18-.04.48-.11.65l-2.24.03h-.04Zm-.29,1.05l4.5-.02c.19-.45.33-1.13.33-1.62,0-1.58-1.14-2.43-2.92-2.43-2.38,0-4.14,1.78-4.14,3.99,0,2.08,1.53,3.25,3.82,3.25.9,0,1.88-.19,2.45-.44l-.29-1.71c-.47.23-1.23.5-1.97.5-.92,0-1.75-.44-1.75-1.39v-.1l-.05-.02Z"/>
        <g>
          <path class="cls-74" d="m517.01,255.4h-3.31l1.7-8.75h2.89c2.46,0,4.4,1.29,4.4,3.74.01,2.63-1.61,5.01-5.67,5.01Zm1.04-6.98h-.77l-1.01,5.2h1.11c1.78,0,3.07-1.06,3.07-3.11,0-1.42-.95-2.07-2.4-2.09Z"/>
          <path class="cls-74" d="m525.94,252.7c0,.91.77,1.33,1.62,1.33.69,0,1.4-.25,1.83-.48l.27,1.64c-.53.24-1.44.42-2.28.42-2.13,0-3.56-1.12-3.56-3.11,0-2.12,1.64-3.82,3.85-3.82,1.65,0,2.72.81,2.72,2.33,0,.48-.13,1.12-.31,1.55l-4.15.04v.1Zm2.34-1.15c.06-.15.1-.45.1-.62,0-.53-.31-.84-.83-.84-.66,0-1.19.55-1.39,1.47h2.12Z"/>
          <path class="cls-74" d="m533.96,252.7c0,.91.77,1.33,1.62,1.33.69,0,1.4-.25,1.83-.48l.27,1.64c-.53.24-1.44.42-2.28.42-2.13,0-3.56-1.12-3.56-3.11,0-2.12,1.64-3.82,3.85-3.82,1.65,0,2.72.81,2.72,2.33,0,.48-.13,1.12-.31,1.55l-4.15.04v.1Zm2.34-1.15c.06-.15.1-.45.1-.62,0-.53-.31-.84-.83-.84-.66,0-1.19.55-1.39,1.47h2.12Z"/>
          <path class="cls-74" d="m541.8,255.4h-2.16l1.25-6.4,2.21-.27-.18.95c.43-.63,1.04-1.01,1.64-1.01.35,0,.67.1.95.29l-.46,1.93c-.29-.17-.63-.27-1.01-.27-.56,0-1.04.25-1.46.78l-.78,3.98Z"/>
          <path class="cls-74" d="m513.07,269.98h-2.21l1.7-8.74h3.31c2.02,0,3.24,1.11,3.24,2.56s-1.01,2.47-2.33,2.83l1.39,3.35h-2.37l-1.16-2.97-.99.08-.56,2.89Zm1.82-4.57c1.01-.01,1.91-.34,1.91-1.34,0-.74-.64-1.09-1.44-1.09h-.95l-.52,2.45h1.01Z"/>
          <path class="cls-74" d="m519.84,269.98l1.25-6.44,2.2-.18-1.29,6.63h-2.16Zm2.76-7.44c-.79,0-1.28-.41-1.28-1.15s.5-1.16,1.29-1.16,1.26.41,1.26,1.16-.49,1.15-1.27,1.15Z"/>
          <path class="cls-74" d="m529.32,260.64l2.19-.18-1.85,9.53h-2.14l.08-.52c-.43.36-.97.73-1.77.73-1.33,0-2.39-1.09-2.39-2.89,0-2.34,1.62-4.02,3.75-4.02.59,0,1.11.17,1.55.39l.57-3.04Zm-1.99,4.2c-1.04,0-1.68,1.12-1.68,2.28,0,.91.49,1.46,1.15,1.46.46,0,.77-.21,1.04-.41l.59-2.86c-.27-.25-.63-.48-1.09-.48Z"/>
          <path class="cls-74" d="m531.58,265.92c0-1.58,1.44-2.65,3.17-2.66.76,0,1.4.2,1.83.48l2.14-.17.06,1.64-1.3-.14c.06.14.13.36.13.59,0,1.42-1.09,2.52-3.01,2.52-.45,0-.83-.08-1.08-.15-.15.06-.32.2-.32.39,0,.29.32.42,1.37.59l.27.04c1.75.29,2.7.83,2.7,2.03,0,1.46-1.62,2.38-3.82,2.38-2.34,0-3.63-.64-3.63-1.83,0-.66.66-1.33,1.83-1.51-.55-.18-.84-.46-.84-1.04,0-.63.62-1.19,1.6-1.37-.71-.38-1.09-1.05-1.09-1.78Zm.48,5.34c0,.63.77,1.01,1.75,1.01,1.04,0,1.67-.36,1.67-.77s-.31-.6-1.23-.77c-.39-.07-1.11-.17-1.53-.27-.35.08-.66.43-.66.8Zm3.66-5.66c0-.57-.35-.99-1-.99s-1.12.52-1.12,1.33c0,.56.36.99,1.01.99s1.11-.5,1.11-1.33Z"/>
          <path class="cls-74" d="m541.73,267.28c0,.91.77,1.33,1.62,1.33.69,0,1.4-.25,1.83-.48l.27,1.64c-.53.24-1.44.42-2.28.42-2.13,0-3.56-1.12-3.56-3.11,0-2.12,1.64-3.82,3.85-3.82,1.65,0,2.72.81,2.72,2.33,0,.48-.13,1.12-.31,1.55l-4.15.04v.1Zm2.34-1.15c.06-.15.1-.45.1-.62,0-.53-.31-.84-.83-.84-.66,0-1.19.55-1.39,1.47h2.12Z"/>
        </g>
      </g>
      <g id="Layer_50" data-name="Layer 50">
        <path class="cls-53" d="m424.67,187.48l1.9-.4.3-.1.5.1.3-1.4h-.1l-2.3-.5-.7.1-.4.3-.2.4-.1.6.1.5.1.2.2.1.4.1Zm0,4.9h-.3l-1.8-.3-.5-.2-1.5-.8-.5-.4-.9-1.3-.1-.1-.1-.5-.4-1.6v-.5l.4-2,.2-.5,1-1.6.4-.5,1.6-1.1.1-.1.5-.2,2.3-.4h.5l2.9.5.5.2.6.5.2.8-.1.3v.2l1.8-.2h.2l.5.1.5-.1.4-.1.5.1.9.3.3.1.3.3.4-.2.1-.1.4-.2,1.6-.3h.4l1.2.2.5.1.8.5h.1l.4.4.3.4.3-.2,1.2-.8.1-.1.4-.2,1.6-.3h.4l1.2.2.4.1.9.5h.1l.3.3.5-2.5.2-.4.5-.6.7-.2,2.2-.2h.1l.7.2.6.6.2.7v.3l-.3,1.2h2.6l.7.2.6.6.2.7-.2.8-.3.3-2.1,2.2,1.2,2.5.2.7-.2.7-.6.6-.7.2h-2.4l-.7-.2-.3-.3-.3.3-.8.2h-2.1l-.8-.2-.1-.1-.1.1-2.3.4h-.5l-1.4-.2-.5-.2-1.1-.6h-.1l-.3-.3-.1.1-.5.6-.5.2-2.3.4h-.5l-1.4-.2-.5-.2-1.1-.6h-.1l-.4-.4-.7-1-.1-.1-.2-.5-.3-1.3v-.6h.1-.1l-.7,3.5-.1.4-.6.6-.7.2h-2.2l-.7-.2-.1-.1-1,.3-.3.1-1.3.1h-.1Zm-44-4.9l1.8-.4.3-.1.2-.9.1-.5-1.9-.4-.6.1-.4.3-.3.4-.1.6.1.5.1.2.2.1.5.1Zm-.1,4.9h-.2l-1.9-.3-.5-.2-1.4-.8h-.1l-.4-.4-.9-1.3-.1-.1-.2-.5-.3-1.6v-.5l.3-2,.2-.5,1-1.6.4-.5,1.7-1.1.1-.1.4-.2,2.3-.4h.5l3,.5.5.2.5.5.2.8v.3l-.1.5.1-.1.4-.2,1.6-.3h.5l1.3.3.5.1.1.1.9.5.3-.2.4-.2.5-.1.3-.8.1-.3v-.1l.6-.8.4-.4.8-.5.1-.1.5-.2,1.1-.1.3-.1.2.1,1.1.1.4.1.6.3.5-.3h.1l.5-.2,1.1-.2h.4l1.1.2.4.1.9.4h.1l.6.6.2.7-.2.7-.3.6,1.5-.3h.5l1.1.2.5.1.9.5.5.4.3.4.2-.2,1.3-.8v-.1l.5-.2,1.5-.3h.5l1.1.2.5.1.9.5.5.4.5.7.1.2.2.4.2,1v.6l-.3,1.6-.2.4-.4.4.2,1.2v.3l-.2.7-.6.6-.4.2-2.3.4h-.5l-1.4-.2-.5-.2-1.1-.6h-.1l-.4-.3v.1l-.5.6-.5.2-2.3.4h-.5l-1.4-.2-.5-.2-1.1-.6h-.1l-.4-.4-.7-1-.1-.1-.2-.5v-.1l-.4,1.7-.1.4-.6.6-.7.2h-2.2l-.7-.2-.6-.6-.5.6-.8.2h-2.1l-.8-.2-.5-.6-.1-.2-1,.6-.1.1-.4.2-1.6.3h-.5l-1.3-.2-.5-.2-1.1-.6v-.1l-.4.4-.3.1-1.3.4-.3.1-1.2.1h-.2Z"/>
        <path class="cls-51" d="m383.84,184.17c-.91-.35-1.78-.55-2.59-.55-1.93,0-2.96,1.33-2.96,2.97s1.02,2.38,2.45,2.38c.71,0,1.46-.21,2.12-.49l.36,1.86c-.88.39-1.81.53-2.61.53-2.8,0-4.58-1.57-4.58-4.02,0-2.72,1.81-5.15,5.25-5.15,1.02,0,2,.18,2.94.5l-.39,1.96Zm3.6,6.71c-1.92,0-3.28-1.18-3.28-3.1,0-2.1,1.54-3.84,3.82-3.84,1.93,0,3.25,1.26,3.25,3.11,0,2.1-1.51,3.82-3.8,3.82Zm.49-5.36c-1.08,0-1.62,1.34-1.62,2.4,0,.88.43,1.41,1.18,1.41.98,0,1.58-1.15,1.58-2.4,0-.88-.42-1.41-1.13-1.41Zm6.4,5.15h-2.16l.94-4.73-1.13-.07.07-1.37,1.37-.31.13-.59c.32-1.53,1.09-2.54,2.84-2.54.77,0,1.48.24,1.93.53,0,.01-.76,1.67-.76,1.67-.41-.27-.74-.39-1.11-.39-.6,0-.8.5-.87.84l-.1.53h2.69l.15-.78c.32-1.53,1.11-2.54,2.84-2.54.78,0,1.5.24,1.95.53,0,.01-.76,1.67-.76,1.67-.42-.27-.74-.39-1.11-.39-.62,0-.8.5-.87.84l-.14.67h1.65l-.04,1.69h-1.85l-.92,4.73h-2.16l.94-4.73h-2.62l-.92,4.73Zm9.87-2.7c0,.91.77,1.33,1.62,1.33.69,0,1.4-.25,1.83-.48l.27,1.64c-.53.24-1.44.42-2.28.42-2.13,0-3.56-1.12-3.56-3.11,0-2.12,1.64-3.82,3.85-3.82,1.65,0,2.72.81,2.72,2.33,0,.48-.13,1.12-.31,1.55l-4.15.04v.1Zm2.34-1.15c.06-.15.1-.45.1-.62,0-.53-.31-.84-.83-.84-.66,0-1.19.55-1.39,1.47h2.12Zm4.95,1.13c0,.91.77,1.33,1.62,1.33.69,0,1.4-.25,1.84-.48l.27,1.64c-.53.24-1.44.42-2.28.42-2.13,0-3.56-1.12-3.56-3.11,0-2.12,1.64-3.82,3.85-3.82,1.65,0,2.72.81,2.72,2.33,0,.48-.13,1.12-.31,1.55l-4.15.04v.1Zm2.34-1.15c.06-.15.1-.45.1-.62,0-.53-.31-.84-.83-.84-.66,0-1.19.55-1.39,1.47h2.12Zm14.07-2.66c-.91-.35-1.78-.55-2.59-.55-1.93,0-2.96,1.33-2.96,2.97s1.02,2.38,2.45,2.38c.71,0,1.46-.21,2.12-.49l.36,1.86c-.88.39-1.81.53-2.61.53-2.8,0-4.58-1.57-4.58-4.02,0-2.72,1.81-5.15,5.25-5.15,1.02,0,2,.18,2.94.5l-.39,1.96Zm2.46,6.5h-2.16l1.25-6.4,2.21-.27-.18.95c.43-.63,1.04-1.01,1.64-1.01.35,0,.67.1.95.29l-.46,1.93c-.29-.17-.63-.27-1.01-.27-.56,0-1.04.25-1.46.78l-.78,3.98Zm5.75-2.7c0,.91.77,1.33,1.62,1.33.69,0,1.4-.25,1.83-.48l.27,1.64c-.53.24-1.44.42-2.28.42-2.13,0-3.56-1.12-3.56-3.11,0-2.12,1.64-3.82,3.85-3.82,1.65,0,2.72.81,2.72,2.33,0,.48-.13,1.12-.31,1.55l-4.15.04v.1Zm2.34-1.15c.06-.15.1-.45.1-.62,0-.53-.31-.84-.83-.84-.66,0-1.19.55-1.39,1.47h2.12Zm4.95,1.13c0,.91.77,1.33,1.62,1.33.69,0,1.4-.25,1.83-.48l.27,1.64c-.53.24-1.44.42-2.28.42-2.13,0-3.56-1.12-3.56-3.11,0-2.12,1.64-3.82,3.85-3.82,1.65,0,2.72.81,2.72,2.33,0,.48-.13,1.12-.31,1.55l-4.15.04v.1Zm2.34-1.15c.06-.15.1-.45.1-.62,0-.53-.31-.84-.83-.84-.66,0-1.19.55-1.39,1.47h2.12Zm5.37.67l-.6,3.17h-2.16l1.82-9.34,2.2-.18-1.12,5.67h.03l2.34-2.66h2.56l-2.94,3.05,1.76,3.46h-2.38l-1.48-3.17h-.03Z"/>
      </g>
    </g>
  </g>
  <g id="Legend_Boxes_to_Fade" data-name="Legend Boxes to Fade">
    <rect class="cls-41" x="59.19" y="121.15" width="20.6" height="9.8"/>
    <rect class="cls-48" x="59.19" y="132.85" width="20.6" height="9.8"/>
    <rect class="cls-26" x="59.19" y="144.55" width="20.6" height="9.8"/>
    <rect class="cls-23" x="59.19" y="156.25" width="20.6" height="9.8"/>
    <rect class="cls-43" x="59.19" y="167.95" width="20.6" height="9.8"/>
    <rect class="cls-46" x="153.19" y="120.7" width="20.6" height="9.8"/>
    <rect class="cls-29" x="153.19" y="132.4" width="20.6" height="9.8"/>
    <rect class="cls-38" x="153.19" y="144.1" width="20.6" height="9.8"/>
    <rect class="cls-46" x="153.19" y="155.8" width="20.6" height="9.8"/>
    <rect class="cls-47" x="153.19" y="167.5" width="20.6" height="9.8"/>
  </g>
</svg>