<?xml version="1.0" encoding="UTF-8"?>
<svg xmlns="http://www.w3.org/2000/svg" xmlns:xlink="http://www.w3.org/1999/xlink" viewBox="0 0 921.6 651.36">
  <defs>
    <style>
      .cls-1, .cls-2, .cls-7, .cls-4, .cls-6 {
        fill: #1D7BBF;
        stroke: #fff;
        stroke-linecap: round;
        stroke-linejoin: bevel;
        stroke-width: 2px;
      }

      .cls-2 {
        fill-rule: evenodd;
      }
    </style>
  </defs>
  <g id="Base_Map_PNG" data-name="Base Map PNG">
    <image width="3840" height="2714" transform="translate(0 0) scale(.24)" xlink:href="Homecare_map_background.png"/>
  </g>
  <g id="Water_Project" data-name="Water Project">
    <g id="Water_Project">
      <g id="Water_Project">
         <circle id="Water-1" class="cls-7" cx="326.81" cy="347.45" r="8.65" transform="translate(-149.96 332.85) rotate(-45)"/>
      <path id="Water-4" class="cls-4" d="m343.69,238.95c-4.78,0-8.65-3.87-8.65-8.65s3.87-8.65,8.65-8.65,8.65,3.87,8.65,8.65-3.87,8.65-8.65,8.65Z"/>
      <circle id="Water-6" class="cls-7" cx="343.69" cy="221.01" r="8.65" transform="translate(-55.61 307.76) rotate(-45)"/>
      <circle id="Water-7" class="cls-7" cx="343.69" cy="211.72" r="8.65" transform="translate(-49.04 305.04) rotate(-45)"/>
      <path id="Water-2" class="cls-4" d="m439.17,330.94c4.78,0,8.65,3.87,8.65,8.65s-3.87,8.65-8.65,8.65-8.65-3.87-8.65-8.65,3.87-8.65,8.65-8.65Z"/>
      <circle id="Water-3" class="cls-7" cx="120.23" cy="256.44" r="8.65" transform="translate(-49.11 29.41) rotate(-11.6)"/>
      <circle id="Water-5" class="cls-7" cx="332.61" cy="155.58" r="8.65"/>
      <circle id="Water-9" class="cls-7" cx="201.34" cy="151.15" r="8.65" transform="translate(-39.01 226.1) rotate(-54.22)"/>
      <circle id="Water-11" class="cls-7" cx="360.98" cy="167.93" r="8.65" transform="translate(67.69 437.17) rotate(-67.5)"/>
      <circle id="Water-12" class="cls-7" cx="279.69" cy="264.28" r="8.65"/>
      <path id="Water-13" class="cls-4" d="m367.62,168.54c4.78-.01,8.66,3.85,8.67,8.62s-3.85,8.66-8.62,8.67-8.66-3.85-8.67-8.62,3.85-8.66,8.62-8.67Z"/>
      <circle id="Water-15" class="cls-7" cx="326.42" cy="127.32" r="8.65" transform="translate(83.87 380.17) rotate(-67.5)"/>
      <circle id="Water-16" class="cls-7" cx="326.42" cy="118.03" r="8.65" transform="translate(92.45 374.43) rotate(-67.5)"/>
      <path id="Water-8" class="cls-4" d="m343.69,211.07c-4.78,0-8.65-3.87-8.65-8.65s3.87-8.65,8.65-8.65,8.65,3.87,8.65,8.65-3.87,8.65-8.65,8.65Z"/>
      <circle id="Water-14" class="cls-7" cx="343.69" cy="193.14" r="8.65" transform="translate(33.73 436.76) rotate(-67.5)"/>
      <circle id="Water-17" class="cls-7" cx="343.69" cy="183.84" r="8.65" transform="translate(-29.33 296.87) rotate(-45)"/>
      <circle id="Water-18" class="cls-7" cx="343.69" cy="174.55" r="8.65"/>
      <circle id="Water-22" class="cls-7" cx="343.69" cy="165.26" r="8.65" transform="translate(-16.19 291.43) rotate(-45)"/>
      <path id="Water-10" class="cls-6" d="m326.81,329.51c4.78,0,8.65,3.87,8.65,8.65s-3.87,8.65-8.65,8.65-8.65-3.87-8.65-8.65,3.87-8.65,8.65-8.65Z"/>
      <circle id="Water-21" class="cls-7" cx="326.81" cy="328.86" r="8.65" transform="translate(-136.82 327.41) rotate(-45)"/>
      <circle id="Water-20" class="cls-7" cx="326.81" cy="319.57" r="8.65" transform="translate(-130.25 324.69) rotate(-45)"/>
      <circle id="Water-19" class="cls-7" cx="326.81" cy="310.28" r="8.65"/>
      <circle id="Water-23" class="cls-7" cx="326.81" cy="300.99" r="8.65" transform="translate(-76.33 487.74) rotate(-67.5)"/>
      </g>
    </g>
  </g>
</svg>